<svg xmlns="http://www.w3.org/2000/svg" xmlns:xlink="http://www.w3.org/1999/xlink" width="182" height="136" viewBox="0 0 182 136">
    <defs>
        <path id="prefix__a" d="M0 0.096L181.362 0.096 181.362 104 0 104z"/>
        <path id="prefix__c" d="M0 0.931L181.365 0.931 181.365 105.64 0 105.64z"/>
    </defs>
    <g fill="none" fill-rule="evenodd">
        <g transform="translate(0 31.778)">
            <mask id="prefix__b" fill="#fff">
                <use xlink:href="#prefix__a"/>
            </mask>
            <path fill="#6B360B" d="M146.132 30.157L96.44 1.467c-3.166-1.828-8.35-1.828-11.517 0l-49.689 28.69L0 30.305v21.392h.005c.021 1.188.811 2.373 2.372 3.273l82.546 47.66c3.166 1.827 8.351 1.827 11.517 0l82.547-47.66c1.563-.9 2.35-2.084 2.372-3.273l.003-21.54h-35.23z" mask="url(#prefix__b)"/>
        </g>
        <g transform="translate(0 8.778)">
            <mask id="prefix__d" fill="#fff">
                <use xlink:href="#prefix__c"/>
            </mask>
            <path fill="#A84E00" d="M96.44 104.268c-3.166 1.829-8.351 1.829-11.517 0L2.377 56.608c-3.17-1.827-3.17-4.82 0-6.648L84.923 2.3c3.166-1.826 8.35-1.826 11.517 0l82.548 47.66c3.17 1.829 3.17 4.82 0 6.65L96.44 104.268z" mask="url(#prefix__d)"/>
        </g>
        <path fill="#B75500" d="M56.724 39.434c-1.752 1.012-4.594 1.012-6.346 0-1.753-1.012-1.753-2.652 0-3.664 1.752-1.012 4.594-1.011 6.346 0 1.752 1.012 1.752 2.652 0 3.664M34.302 73.575c-1.752 1.013-4.593 1.012-6.346 0-1.752-1.012-1.752-2.651 0-3.663 1.753-1.013 4.596-1.012 6.347 0 1.753 1.012 1.753 2.65 0 3.663M82.026 103.412c-1.752 1.012-4.593 1.011-6.346 0-1.753-1.013-1.753-2.652-.001-3.663 1.754-1.013 4.596-1.012 6.348 0 1.752 1.011 1.752 2.65-.001 3.663M96.267 108.53c-.936.54-2.453.54-3.389 0-.935-.54-.935-1.417 0-1.957.936-.54 2.453-.54 3.39 0 .936.54.936 1.417 0 1.957M103.463 88.111c-.936.54-2.453.54-3.389 0-.936-.54-.936-1.417 0-1.957s2.453-.54 3.39 0c.936.54.936 1.417 0 1.957M171.463 63.437c-.936.54-2.453.54-3.389 0-.936-.54-.936-1.417 0-1.957s2.453-.54 3.39 0c.936.54.936 1.417 0 1.957M132.608 55.077c-.936.54-2.453.54-3.39 0-.935-.54-.935-1.417 0-1.957.937-.54 2.454-.54 3.39 0 .937.54.937 1.417 0 1.957M135.154 84.171c-.936.54-2.453.54-3.39 0-.934-.54-.934-1.417 0-1.957.937-.54 2.454-.54 3.39 0 .937.54.937 1.417 0 1.957M79.702 48.264c-.936.54-2.453.54-3.39 0-.935-.54-.935-1.417 0-1.957.937-.54 2.454-.54 3.39 0 .937.54.937 1.417 0 1.957"/>
        <path fill="#974500" d="M66.064 80.303c-.936.54-2.453.54-3.389 0-.937-.54-.937-1.418 0-1.957.936-.54 2.453-.54 3.389 0 .936.54.936 1.416 0 1.957M48.369 73.126c-.936.54-2.453.54-3.39 0-.934-.54-.934-1.418 0-1.957.937-.54 2.454-.54 3.39 0 .937.54.937 1.416 0 1.957M51.761 46.582c-.936.54-2.453.54-3.389 0-.937-.54-.937-1.418 0-1.957.936-.54 2.453-.54 3.39 0 .935.54.935 1.416 0 1.957M22.972 68.01c-.717.414-1.879.414-2.597 0-.717-.414-.717-1.085 0-1.5.718-.413 1.88-.413 2.597 0 .718.415.718 1.086 0 1.5M75.57 95.233c-.935.539-2.452.539-3.388 0-.936-.541-.936-1.418 0-1.957.936-.541 2.453-.541 3.389 0 .937.539.937 1.416 0 1.957M142.65 72.623c-.936.539-2.453.539-3.39 0-.936-.541-.936-1.418 0-1.957.937-.541 2.454-.541 3.39 0 .936.539.936 1.416 0 1.957M92.533 15.962c-1.227.706-3.215.706-4.441 0-1.23-.709-1.23-1.858 0-2.565 1.226-.709 3.214-.709 4.44 0 1.228.707 1.228 1.856 0 2.565M88.335 53.694c-.936.539-2.453.539-3.389 0-.936-.541-.936-1.418 0-1.957.936-.541 2.453-.541 3.39 0 .936.539.936 1.416 0 1.957M119.067 30.11c-.936.538-2.453.538-3.39 0-.935-.542-.935-1.419 0-1.958.937-.54 2.454-.54 3.39 0 .937.54.937 1.416 0 1.957M129.5 39.794c-.935.539-2.453.539-3.388 0-.936-.541-.936-1.418 0-1.957.936-.541 2.453-.541 3.388 0 .938.539.938 1.416 0 1.957M71.01 43.791c-1.642.945-4.302.945-5.942 0-1.64-.949-1.64-2.486 0-3.43 1.64-.949 4.3-.949 5.941 0 1.641.944 1.641 2.481 0 3.43M53.826 83.553c-1.641.945-4.301.945-5.941 0-1.641-.949-1.641-2.486 0-3.43 1.64-.949 4.3-.949 5.94 0 1.642.944 1.642 2.481 0 3.43M93.307 93.938c-2.124 1.225-5.57 1.225-7.695 0-2.128-1.23-2.128-3.222 0-4.445 2.124-1.229 5.571-1.229 7.695 0 2.128 1.223 2.128 3.215 0 4.445M146.813 54.784c-2.124 1.225-5.571 1.225-7.695 0-2.128-1.23-2.128-3.222 0-4.445 2.124-1.229 5.571-1.229 7.695 0 2.128 1.223 2.128 3.215 0 4.445M135.925 66.671c-2.125 1.225-5.57 1.225-7.695 0-2.129-1.23-2.129-3.222 0-4.445 2.124-1.229 5.57-1.229 7.695 0 2.128 1.223 2.128 3.215 0 4.445M110.037 76.336c-1.566.903-4.11.903-5.676 0-1.57-.908-1.57-2.376 0-3.279 1.567-.906 4.11-.906 5.676 0 1.57.903 1.57 2.371 0 3.28M103.275 23.699c-1.926 1.11-5.05 1.11-6.975 0-1.93-1.115-1.93-2.92 0-4.028 1.926-1.114 5.049-1.114 6.975 0 1.928 1.108 1.928 2.913 0 4.028M104.229 52.193c-2.124 1.225-5.571 1.225-7.695 0-2.128-1.23-2.128-3.222 0-4.445 2.124-1.23 5.571-1.23 7.695 0 2.128 1.223 2.128 3.215 0 4.445"/>
        <path fill="#B75500" d="M58.19 31.665c-.935.54-2.452.54-3.388 0-.937-.54-.937-1.417 0-1.957.936-.54 2.453-.54 3.389 0 .936.54.936 1.417 0 1.957M13.492 64.556c-.936.54-2.453.54-3.39 0-.936-.54-.936-1.417 0-1.957.937-.54 2.454-.54 3.39 0 .936.54.936 1.417 0 1.957M57.519 68.239c-.936.54-2.453.54-3.389 0-.937-.54-.937-1.417 0-1.957.936-.54 2.453-.54 3.389 0 .936.54.936 1.417 0 1.957M76.57 84.171c-.935.54-2.452.54-3.388 0-.936-.54-.936-1.417 0-1.957s2.453-.54 3.389 0c.937.54.937 1.417 0 1.957M59.763 57.409c-1.602.924-4.198.924-5.799 0-1.603-.924-1.603-2.425 0-3.35 1.601-.923 4.197-.923 5.8 0 1.602.925 1.602 2.426 0 3.35"/>
        <path fill="#974500" d="M74.786 73.318c-1.601.925-4.198.925-5.8 0-1.601-.924-1.601-2.425 0-3.35 1.602-.922 4.199-.922 5.8 0 1.603.925 1.603 2.426 0 3.35M46.72 62.978c-1.6.925-4.197.925-5.799 0-1.602-.924-1.602-2.425 0-3.349 1.602-.923 4.198-.923 5.8 0 1.603.924 1.603 2.425 0 3.35M102.16 67.682c-3.094 1.787-8.111 1.787-11.205 0-3.098-1.785-3.098-4.686 0-6.47 3.094-1.786 8.11-1.786 11.205 0 3.098 1.784 3.098 4.685 0 6.47M110.503 35.305c-3.094 1.787-8.11 1.787-11.205 0-3.098-1.785-3.098-4.686 0-6.471 3.094-1.785 8.111-1.785 11.205 0 3.098 1.785 3.098 4.686 0 6.47M121.6 48.838c-3.095 1.787-8.112 1.787-11.206 0-3.098-1.785-3.098-4.686 0-6.471 3.094-1.785 8.111-1.785 11.205 0 3.098 1.785 3.098 4.686 0 6.47M160.312 67.682c-3.094 1.787-8.111 1.787-11.205 0-3.098-1.785-3.098-4.686 0-6.47 3.094-1.786 8.111-1.786 11.205 0 3.098 1.784 3.098 4.685 0 6.47"/>
        <path fill="#B75500" d="M65.537 90.1c-1.601.924-4.197.924-5.8 0-1.601-.924-1.601-2.426 0-3.35 1.603-.923 4.199-.923 5.8 0 1.604.924 1.604 2.426 0 3.35M108.114 96.912c-1.601.924-4.198.924-5.8 0-1.601-.924-1.601-2.425 0-3.35 1.602-.922 4.199-.922 5.8 0 1.603.925 1.603 2.427 0 3.35M151.308 77.148c-1.6.924-4.197.924-5.799 0-1.6-.924-1.6-2.426 0-3.35 1.602-.923 4.2-.923 5.8 0 1.603.924 1.603 2.426 0 3.35M160.457 56.138c-1.95 1.125-5.113 1.125-7.064 0-1.952-1.125-1.952-2.955 0-4.08 1.95-1.125 5.114-1.125 7.064 0 1.95 1.125 1.95 2.955 0 4.08M138.534 46.798c-1.95 1.125-5.113 1.125-7.063 0-1.952-1.125-1.952-2.955 0-4.08 1.95-1.125 5.114-1.125 7.063 0 1.952 1.125 1.952 2.955 0 4.08M119.435 38.874c-1.63.941-4.276.941-5.908 0-1.63-.94-1.63-2.47 0-3.412 1.632-.94 4.277-.94 5.908 0 1.631.941 1.631 2.471 0 3.412M44.464 48.557c-1.6.924-4.197.924-5.799 0-1.6-.924-1.6-2.425 0-3.35 1.602-.922 4.2-.922 5.8 0 1.603.925 1.603 2.426 0 3.35M125.79 89.762c-2.603 1.503-6.823 1.503-9.425 0-2.603-1.503-2.603-3.94 0-5.442 2.603-1.503 6.823-1.503 9.425 0 2.604 1.502 2.604 3.94 0 5.442M30.457 61.101c-2.602 1.503-6.823 1.503-9.425 0-2.604-1.503-2.604-3.94 0-5.442 2.602-1.503 6.823-1.503 9.425 0 2.605 1.502 2.605 3.939 0 5.442M81.832 62.304c-2.602 1.503-6.822 1.503-9.424 0-2.606-1.503-2.606-3.94 0-5.442 2.602-1.503 6.822-1.503 9.424 0 2.605 1.502 2.605 3.94 0 5.442M91.353 79.821c-2.602 1.503-6.822 1.503-9.424 0-2.605-1.503-2.605-3.94 0-5.442 2.602-1.503 6.822-1.503 9.424 0 2.605 1.502 2.605 3.94 0 5.442M121.194 62.104c-2.603 1.503-6.823 1.503-9.425 0-2.604-1.503-2.604-3.94 0-5.442 2.602-1.503 6.822-1.503 9.425 0 2.604 1.502 2.604 3.939 0 5.442M89.63 25.515c-2.602 1.503-6.822 1.503-9.424 0-2.605-1.503-2.605-3.94 0-5.442 2.602-1.503 6.822-1.503 9.424 0 2.605 1.503 2.605 3.94 0 5.442"/>
        <path fill="#411F0F" d="M114.926 29.301c-2.04-2.54-11.7-1.47-14.28.02-4.38 2.55-8.27 8.74-8.91 13.33-.81-4.51 3.7-12.7 8.91-15.73 3.18-1.84 17.14-3.03 14.28 2.38"/>
        <path fill="#00AAA0" d="M114.926 29.301c-.13.26-.3.54-.52.83-4.74 6.35-2.92 19.04-4.66 24.15-1.73 5.11-5.57.76-7.43-1.16-1.86-1.92-5.88-5.02-9.49-8.33-.58-.53-.94-1.27-1.09-2.14.64-4.59 4.53-10.78 8.91-13.33 2.58-1.49 12.24-2.56 14.28-.02"/>
        <path fill="#00D3C2" d="M98.568 33.647c2.747-1.903 7.995-5.152 7.995-5.152s-4.882.896-7.995 5.152M104.981 33.647c2.747-1.903 7.995-5.152 7.995-5.152s-4.881.896-7.995 5.152M94.285 40.67c2.748-1.902 7.996-5.151 7.996-5.151s-4.883.896-7.996 5.152M102.565 40.67c2.747-1.902 7.995-5.151 7.995-5.151s-4.881.896-7.995 5.152M98.041 47.334c2.748-1.903 7.996-5.152 7.996-5.152s-4.882.896-7.996 5.152M102.039 50.247c2.748-1.903 7.996-5.152 7.996-5.152s-4.882.896-7.996 5.152M104.981 54.503c1.484-1.028 4.319-2.784 4.319-2.784s-2.636.485-4.319 2.784"/>
        <path fill="#411F0F" d="M56.336 63.851c-.77-3.62-4.8-9.57-10.67-16.33-6.2-7.14-6.63-3.36-9.34-.49-.05.05-.09.1-.13.14-.75-1.42-1.06-2.58.13-3.84 2.71-2.86 3.14-6.65 9.34.49 6.2 7.15 10.34 13.37 10.77 16.92.11.89.08 1.96-.1 3.11"/>
        <path fill="#00AAA0" d="M56.336 63.851c-.5 3.43-2.229 7.51-5.12 9.27-3.85 2.35-6.76 9.13-17.28 6.5-1.13-.28-1.86-.75-2.3-1.35 1.63-4.07 6.971-9.27 8.88-11.14 1.68-1.66 1.03-2.42.091-3.8 2.83-2.86-1.57-3.04-1.75-8.87-.112-3.3-1.73-5.5-2.66-7.29.038-.04.08-.09.128-.14 2.711-2.87 3.141-6.65 9.34.49 5.871 6.76 9.9 12.71 10.671 16.33"/>
        <path fill="#00D3C2" d="M37.033 48.42c1.847-1.279 5.373-3.462 5.373-3.462s-3.28.603-5.373 3.462M38.869 49.7c1.846-1.28 5.372-3.463 5.372-3.463s-3.28.603-5.372 3.462M39.15 54.289c1.846-1.279 5.372-3.462 5.372-3.462s-3.28.603-5.372 3.462M43.33 55.716c1.847-1.279 5.373-3.462 5.373-3.462s-3.28.603-5.373 3.462M41.134 59.833c1.847-1.28 5.373-3.462 5.373-3.462s-3.28.603-5.373 3.462M45.117 59.843c2.154-1.493 6.27-4.042 6.27-4.042s-3.828.704-6.27 4.042M42.406 64.778c2.155-1.493 6.272-4.042 6.272-4.042s-3.83.704-6.272 4.042M47.923 64.778c2.154-1.493 6.271-4.042 6.271-4.042s-3.829.704-6.27 4.042M46.269 71.012c2.866-1.986 8.342-5.375 8.342-5.375s-5.093.935-8.342 5.375M37.933 72.762c2.865-1.986 8.342-5.375 8.342-5.375s-5.094.935-8.342 5.375M36.964 79.137c2.865-1.986 8.342-5.375 8.342-5.375s-5.094.935-8.342 5.375"/>
        <path fill="#411F0F" d="M41.554 61.53v.09c.002-.054 0-.09 0-.09M41.554 61.62c-.008.224-.106.879-.947 1.71-.02.032-.06.072-.09.102-2.59 2.54-11.5 11.189-8.88 14.84 1.63-4.07 6.97-9.27 8.88-11.14.73-.723 1.004-1.272 1.02-1.78l.017-3.732z"/>
        <path fill="#000" d="M23.315 58.044c-2.095-1.605-4.24-3.727-4.278-4.516 1.873 1.479 3.713 2.36 5.162 3.109-.53-1.753-.281-3.674.146-4.814.599 2.13 2.516 4.198 4.029 5.772.138.013.272.034.434.053.486-1.72 1.394-3.552 2.269-4.106-.408 1.643-.16 2.852.009 3.865 1-.77 2.208-1.458 3.092-1.874-1.061.954-1.684 2.017-2.125 2.979 3.267 1.065 2.703 1.783 7.484 3.395-4.438-.016-5.84 0-7.803-1.107 1.229 1.006 2.159 2.346 4.87 4.018-1.067-.212-3.11-1.148-5.025-2.204-.165 1.099-.74 2.405-.376 4.336-.74-.49-1.424-2.016-1.821-3.531-.688 1.045-1.676 2.282-2.121 4.15-.451-.517-.545-1.81-.413-3.173-1.168 1.329-2.35 2.859-3.093 4.44-.502-.947-.736-3.105.385-5.084-1.086.566-2.368 1.232-3.668 2.254.03-.604 1.534-2.118 3.114-3.392-3.54.748-7.976 1.645-11.233 3.07 1.719-2.085 5.906-4.194 9.803-5.245-3.627-.238-7.861-.8-8.688-1.311 2.618.192 4.842.134 6.745.075-4.251-1.207-8.653-2.754-9.662-3.593 5.517 1.509 9.577 1.82 12.764 2.434"/>
        <path fill="#411F0F" d="M25.044 54.184c0-3.632 1.121-6.576 2.506-6.576 1.385 0 2.507 2.944 2.507 6.576 0 3.739-.269 5.614-.77 6.314-.007.006-.012.009-.016.015-.082.143-.214.277-.41.391-.674.389-1.77.389-2.444-.001-.119-.069-.209-.146-.287-.228-.002-.002-.008-.002-.012-.004-.49-.51-1.074-1.971-1.074-6.487"/>
        <path fill="#0A0" d="M27.79 49.057c-4.692-1.891-4.233-5.895-9.2-11.867 3.1 1.122 13.903 13.748 9.2 11.867"/>
        <path fill="#008300" d="M20.882 39.234c-.547-.547-1.13-1.102-1.752-1.665.627.552 1.208 1.109 1.752 1.665M27.505 48.656c-.402-.161-1.99-4.688-6.623-9.422 5.3 5.297 7.04 9.596 6.623 9.422"/>
        <path fill="#0A0" d="M42.546 48.755c-7.74.891-10.15 4.106-14.906 2.245-4.736-1.872 11.851-3.567 14.906-2.245"/>
        <path fill="#008300" d="M28.132 50.918c-.416-.168 3.77-2.055 11.221-2.256-6.58.259-10.813 2.413-11.22 2.256M41.877 48.651c-.88-.022-1.717-.01-2.524.01.807-.032 1.646-.039 2.524-.01"/>
        <path fill="#009700" d="M39.398 41.95c-5.28 3.317-5.91 6.477-9.977 6.75-4.043.26 7.315-6.662 9.977-6.75"/>
        <path fill="#008300" d="M37.45 42.781c.458-.229.93-.458 1.429-.67-.5.218-.971.446-1.43.67M37.45 42.781c-4.91 2.484-7.351 5.665-7.7 5.688-.362.02 2.13-2.93 7.7-5.688"/>
        <path fill="#009700" d="M41.302 52.689c-7.222-.653-10.1 1.83-14.002-.79-3.909-2.63 11.523-1.013 14.002.79"/>
        <path fill="#008300" d="M38.902 52.081c.59.114 1.19.235 1.81.396-.623-.147-1.226-.278-1.81-.395M38.902 52.081c-6.271-1.178-10.801.053-11.14-.172-.356-.24 4.057-1.218 11.14.172"/>
        <path fill="#0A0" d="M36.956 58.102c-5.666-4.535-9.439-4.045-11.253-8.38-1.816-4.355 10.174 5.497 11.253 8.38"/>
        <path fill="#008300" d="M36.595 57.592c-.475-.51-.944-.979-1.41-1.434.472.453.941.92 1.41 1.434M35.185 56.159c-4.555-4.36-8.947-5.81-9.105-6.178-.168-.39 4.007 1.196 9.105 6.178"/>
        <path fill="#009700" d="M26.25 48.745c-4.951-.328-5.736-4.194-12.172-8.228 3.229.094 17.104 8.563 12.172 8.228"/>
        <path fill="#008300" d="M25.841 48.47c-.416-.024-3.3-3.786-9.094-6.79 6.582 3.316 9.533 6.81 9.094 6.79M16.748 41.68c-.654-.324-1.326-.653-2.054-.977.728.314 1.4.642 2.054.977"/>
        <path fill="#0A0" d="M28.966 51.286c2.348 1.852-5.31 1.357-10.818 4.382 2.13-2.252 7.966-6.623 10.818-4.382"/>
        <path fill="#008300" d="M28.646 51.38c.106.206-3.359-.062-7.822 2.482 4.527-2.687 7.687-2.674 7.822-2.482M20.824 53.863c-.848.506-1.74 1.094-2.676 1.806.92-.728 1.814-1.31 2.676-1.806"/>
        <path fill="#009700" d="M28.722 51.27c-4.05 2.858-7.08.361-14.629 1.285 2.566-1.956 18.658-4.16 14.63-1.285"/>
        <path fill="#008300" d="M28.238 51.286c-.334.254-4.7-.783-10.806.38 6.896-1.429 11.157-.61 10.806-.38M17.432 51.666c-.872.18-1.782.39-2.738.65.948-.273 1.86-.482 2.738-.65"/>
        <path fill="#009700" d="M26.942 48.775c-2.981-2.66-.48-6.807-1.526-13.816 2.05 1.614 4.519 16.464 1.526 13.816"/>
        <path fill="#008300" d="M26.886 48.311c-.234-.224.786-5.018-.499-10.516 1.558 6.145.771 10.744.5 10.516M26.387 37.795c-.196-.765-.423-1.551-.689-2.36.278.793.504 1.579.69 2.36"/>
        <path fill="#0A0" d="M36.384 37.18c-4.832 5.401-5.93 14.931-8.827 13.631-3.228-2.637 2.817-11.206 8.827-13.632"/>
        <path fill="#008300" d="M36.384 37.18c-5.845 3.135-8.178 13.315-8.584 13.206-.377-.108 3.152-10.983 8.584-13.207"/>
        <path fill="#0A0" d="M27.828 50.353c1.209 4.564-7.732-3.222-17.22-4.519 4.654-.86 15.765-.979 17.22 4.52"/>
        <path fill="#008300" d="M27.347 50.19c-.018.355-3.848-3.062-11.248-4.093 7.598.895 11.27 3.737 11.248 4.093M16.1 46.097c-1.644-.193-3.469-.298-5.49-.263 2.012-.077 3.841.037 5.49.263"/>
        <path fill="#0A0" d="M45.128 45.25c-10.77 2.468-20.836 10.132-16.89 4.578 3.917-5.546 13.727-5.39 16.89-4.578"/>
        <path fill="#008300" d="M44.366 45.334c-12.521 1.508-16.304 5.416-15.938 4.87.386-.533 4.198-3.947 15.938-4.87"/>
        <path fill="#000" d="M25.748 71.186c.948-.727 1.921-1.689 1.938-2.047-.848.671-1.681 1.069-2.338 1.409.24-.794.128-1.665-.067-2.181-.271.965-1.139 1.902-1.826 2.616-.063.005-.123.015-.195.023-.223-.778-.634-1.61-1.03-1.861.186.745.072 1.293-.003 1.752-.454-.349-1.002-.661-1.402-.85.482.433.762.915.963 1.351-1.48.483-1.226.808-3.393 1.539 2.012-.008 2.649 0 3.538-.503-.556.457-.979 1.064-2.207 1.822.483-.095 1.409-.52 2.277-.999.075.498.335 1.09.17 1.966.336-.222.645-.915.825-1.601.313.474.761 1.034.961 1.881.206-.234.247-.82.186-1.439.532.602 1.067 1.296 1.404 2.013.227-.429.334-1.408-.174-2.305.491.257 1.073.559 1.662 1.022-.014-.273-.695-.96-1.41-1.537 1.603.339 3.613.745 5.09 1.392-.78-.946-2.678-1.901-4.444-2.378 1.645-.107 3.563-.362 3.938-.594-1.186.088-2.194.061-3.057.034 1.927-.547 3.922-1.248 4.378-1.628-2.5.683-4.34.824-5.784 1.103"/>
        <path fill="#0A0" d="M23.293 70.564c2.598-1.676 1.858-4.026 4.15-8.184-1.733 1.032-6.756 9.857-4.15 8.184"/>
        <path fill="#008300" d="M26.302 63.871c.266-.392.551-.791.86-1.202-.313.405-.597.806-.86 1.203M23.418 70.291c.223-.144.652-3.044 2.884-6.42-2.567 3.791-3.114 6.572-2.884 6.42"/>
        <path fill="#0A0" d="M16.457 69.955c3.508.403 4.601 1.861 6.755 1.018 2.146-.849-5.37-1.617-6.755-1.018"/>
        <path fill="#008300" d="M22.99 70.935c.189-.076-1.707-.931-5.086-1.022 2.984.117 4.9 1.093 5.086 1.022M16.761 69.908c.398-.01.777-.005 1.143.004-.366-.014-.746-.018-1.143-.004"/>
        <path fill="#009700" d="M17.884 66.87c2.393 1.503 2.68 2.936 4.521 3.06 1.833.117-3.314-3.019-4.52-3.06"/>
        <path fill="#008300" d="M18.767 67.248c-.207-.105-.42-.208-.647-.305.226.1.44.203.647.305M18.767 67.248c2.226 1.124 3.332 2.567 3.49 2.578.164.008-.965-1.328-3.49-2.578"/>
        <path fill="#009700" d="M17.021 71.738c3.273-.296 4.578.829 6.347-.358 1.771-1.192-5.222-.46-6.347.358"/>
        <path fill="#008300" d="M18.109 71.462c-.268.052-.54.107-.82.18.283-.068.556-.127.82-.18M18.109 71.462c2.844-.533 4.896.024 5.049-.077.162-.11-1.84-.552-5.05.077"/>
        <path fill="#0A0" d="M18.992 74.191c2.567-2.057 4.277-1.834 5.1-3.798.822-1.974-4.612 2.491-5.1 3.798"/>
        <path fill="#008300" d="M19.156 73.96c.215-.231.428-.444.639-.65-.215.205-.428.418-.64.65M19.794 73.31c2.064-1.975 4.055-2.633 4.126-2.8.077-.177-1.816.541-4.126 2.8"/>
        <path fill="#009700" d="M23.843 69.95c2.244-.148 2.6-1.9 5.518-3.73-1.463.044-7.752 3.882-5.518 3.73"/>
        <path fill="#008300" d="M24.029 69.826c.188-.01 1.496-1.716 4.12-3.078-2.982 1.504-4.32 3.086-4.12 3.078M28.15 66.748c.297-.146.602-.295.932-.443-.33.142-.635.292-.932.443"/>
        <path fill="#0A0" d="M22.613 71.102c-1.064.839 2.406.615 4.902 1.986-.964-1.02-3.61-3.002-4.902-1.986"/>
        <path fill="#008300" d="M22.757 71.144c-.048.093 1.523-.028 3.545 1.125-2.052-1.218-3.484-1.212-3.545-1.125M26.302 72.27c.385.229.79.496 1.213.819-.418-.33-.82-.594-1.213-.82"/>
        <path fill="#009700" d="M22.722 71.095c1.837 1.295 3.21.164 6.631.583-1.163-.887-8.457-1.886-6.63-.583"/>
        <path fill="#008300" d="M22.943 71.102c.15.115 2.129-.354 4.896.172-3.125-.648-5.055-.277-4.896-.172M27.84 71.274c.395.082.808.177 1.241.295-.43-.124-.844-.218-1.242-.295"/>
        <path fill="#009700" d="M23.53 69.963c1.352-1.205.218-3.084.692-6.26-.93.73-2.048 7.461-.692 6.26"/>
        <path fill="#008300" d="M23.555 69.754c.106-.102-.356-2.274.226-4.767-.707 2.786-.35 4.87-.226 4.767"/>
        <path fill="#008300" d="M23.78 64.987c.09-.346.193-.702.313-1.069-.125.36-.228.715-.312 1.07"/>
        <path fill="#0A0" d="M18.184 63.2c2.72 3.042 3.337 8.405 4.968 7.674 1.816-1.485-1.584-6.308-4.968-7.673"/>
        <path fill="#008300" d="M18.184 63.2c3.29 1.766 4.603 7.496 4.831 7.435.213-.061-1.773-6.182-4.83-7.434"/>
        <path fill="#0A0" d="M23.128 70.679c-.548 2.069 3.504-1.46 7.803-2.047-2.108-.391-7.143-.444-7.803 2.047"/>
        <path fill="#008300" d="M23.346 70.605c.01.16 1.743-1.387 5.098-1.854-3.443.405-5.107 1.693-5.098 1.854M28.444 68.75c.745-.088 1.57-.136 2.487-.119-.911-.036-1.74.016-2.487.12"/>
        <path fill="#0A0" d="M15.288 68.367c4.882 1.119 9.442 4.592 7.655 2.075-1.775-2.514-6.221-2.443-7.655-2.075"/>
        <path fill="#008300" d="M15.632 68.404c5.676.684 7.39 2.455 7.225 2.207-.176-.242-1.903-1.789-7.225-2.207"/>
        <path fill="#000" d="M101.437 24.324c-1.851-2.05-2.707-2.458-3.696-3.3 3.744.2 6.93-.835 6.93-.835-1.155-.553-4.166-2.425-6.249-2.394.649-1.552.693-1.627 1.318-2.713-1.903.015-3.592.218-5.349 1.146.632-1.196 1.359-2.68 2.965-3.767-2.276.155-6.28.995-7.997 2.512-1.101-1.084-2.211-2.357-2.702-3.697-.773.763-1.589 2.353-1.033 3.825-1.097-.692-2.068-1.53-2.545-2.62-.042.04-.072.084-.124.124 0 .004-.003.006-.01.01-1.824 1.6-1.463 3.883-.066 5.583-1.522.67-2.889 1.875-3.095 3.15 0 .062-.021.113-.027.163 1.063-.047 2.137 0 3.092.039-1.024 1.414-1.467 3.202-.814 4.397-.465.265-1.078.568-2.259.967 2.552-.01 3.358 0 4.487-.638-.706.579-1.242 1.349-2.801 2.312.615-.121 1.789-.66 2.891-1.268.096.63.426 1.383.217 2.494.424-.281.817-1.16 1.045-2.031.396.6.967 1.312 1.22 2.387.26-.298.314-1.041.238-1.825.673.764 1.352 1.644 1.779 2.554.288-.545.425-1.787-.221-2.925.624.325 1.363.709 2.11 1.296-.018-.346-.882-1.217-1.79-1.95 2.035.43 4.586.946 6.459 1.766-.989-1.2-3.397-2.412-5.639-3.017.879-.058 1.812-.15 2.643-.257 2.01.962 4.283 1.73 6.174 1.722-.739-2.01-1.481-2.63-2.551-3.992.102-.053.182-.102.255-.15 1.899.62 3.882.98 5.145.932"/>
        <path fill="#411F0F" d="M83.412 14.868c0 4.067 3.297 7.364 7.363 7.364 4.067 0 7.364-3.297 7.364-7.364s-3.297-7.364-7.364-7.364c-4.066 0-7.363 3.297-7.363 7.364"/>
        <path fill="#000" d="M85.447 23.915c.006-.003.006-.006.01-.009-.002.003-.004.006-.01.009"/>
        <path fill="#000" d="M85.457 23.895v.012c-.004.003-.004.006-.01.009 0-.006 0-.009.01-.021"/>
        <path fill="#FF9F03" d="M87.25 9.626c0 1.946 1.58 3.525 3.525 3.525 1.947 0 3.524-1.579 3.524-3.525s-1.577-3.525-3.525-3.525c-1.945 0-3.523 1.58-3.523 3.525"/>
        <path fill="#009700" d="M89.56 5.735c-2.377 4.019-4.863.547-9.976 1.877 1.48-2.75 12.35-5.898 9.976-1.877"/>
        <path fill="#008300" d="M89.236 5.782c-.207.345-3.543-1.161-7.753.69 4.743-2.21 7.956-1.045 7.753-.69M81.483 6.473c-.487.228-.993.492-1.512.796.515-.318 1.019-.578 1.512-.796"/>
        <path fill="#009700" d="M88.246 0c4.2.152 8.082 4.958 3.334 5.346-4.753.382-3.06-2.4-3.334-5.346"/>
        <path fill="#008300" d="M89.496.561c-.305-.19-.646-.375-1.03-.549.397.166.735.351 1.03.55M91.486 5.166c-.416.028.672-2.824-1.99-4.605 3.127 1.945 2.397 4.566 1.99 4.605"/>
        <path fill="#009700" d="M102.979 5.043c-6.072 1.114-11.284 6.816-9.465 2.366 1.842-4.449 7.557-3.372 9.465-2.366"/>
        <path fill="#008300" d="M102.543 5.043c-7.157.123-9.049 3.137-8.873 2.7.177-.42 2.114-3.026 8.873-2.7"/>
        <path fill="#009700" d="M91.54 9.17c3.725 1.993 1.43 5.904.06 7.112-2.006-2.83-3.793-9.1-.06-7.111"/>
        <path fill="#008300" d="M91.189 9.23c.352.187 1.264 2.8.506 6.753.048-4.949-.873-6.956-.506-6.753"/>
        <path fill="#009700" d="M92.186 8.32c5.089-.043 4.774 5.324 3.97 7.368-2.114-4.877-9.039-7.325-3.97-7.367"/>
        <path fill="#008300" d="M96.085 15.31c-1.188-6.2-4.73-6.732-4.232-6.732.484-.01 3.588.724 4.232 6.732"/>
        <path fill="#009700" d="M92.11 8.19c.222 4.186-3.384 2.832-6.558 6.374-.257-2.808 6.336-10.583 6.559-6.373"/>
        <path fill="#008300" d="M86.383 12.803c-.246.402-.485.835-.716 1.305.222-.476.461-.909.716-1.305M91.888 8.375c.021.37-3.258.915-5.505 4.428 2.47-4.054 5.482-4.793 5.505-4.428"/>
        <path fill="#0A0" d="M90.067 6.553c-5.063 2.914-4.157-2.614-9.12-4.51C84.3-.044 95.11 3.64 90.068 6.553"/>
        <path fill="#008300" d="M83.24 2.009c-.533-.064-1.105-.104-1.718-.108.618-.011 1.189.029 1.718.108M89.771 6.394c-.432.24-1.779-3.678-6.531-4.385 5.45.659 6.981 4.121 6.531 4.385"/>
        <path fill="#0A0" d="M101.257 2.43c-5.9 1.314-6.755 7.606-10.542 5.117-4.286-3.635 5.681-8.21 10.542-5.117"/>
        <path fill="#008300" d="M101.098 2.332c-7.319-.864-9.587 5.333-10.097 5.043-.488-.288 3.247-6.34 10.097-5.043"/>
        <path fill="#0A0" d="M90.796 6.849c6.057 2.347-5.893 2.534-9.762 7.468-.023-3.44 2.455-10.304 9.762-7.468"/>
        <path fill="#008300" d="M82.552 11.275c-.589.848-1.113 1.85-1.518 3.042.354-1.213.885-2.212 1.518-3.042M90.473 7.032c.452.26-4.898.281-7.92 4.243 2.91-4.182 7.465-4.505 7.92-4.243"/>
        <path fill="#0A0" d="M92.487 7.3c5.48-3.171 8.425 2.837 8.796 5.554C96.02 8.85 86.992 10.46 92.487 7.3"/>
        <path fill="#008300" d="M92.26 7.784c.538-.311 4.343-1.415 8.728 4.702-5.09-5.991-9.26-4.391-8.728-4.702"/>
        <path fill="#0A0" d="M85.988 23.902c3.297-2.127 2.36-5.11 5.268-10.386-2.198 1.309-8.574 12.509-5.268 10.386"/>
        <path fill="#008300" d="M89.81 15.41c.335-.498.698-1.007 1.09-1.527-.399.513-.758 1.023-1.09 1.526M86.147 23.556c.283-.182.828-3.863 3.662-8.147-3.259 4.811-3.954 8.34-3.662 8.147"/>
        <path fill="#0A0" d="M77.316 23.13c4.45.511 5.837 2.361 8.572 1.29 2.725-1.077-6.816-2.05-8.572-1.29"/>
        <path fill="#008300" d="M85.605 24.373c.24-.097-2.167-1.182-6.453-1.298 3.786.15 6.219 1.388 6.453 1.298M77.7 23.07c.507-.013.988-.007 1.452.005-.464-.018-.947-.023-1.451-.005"/>
        <path fill="#009700" d="M79.126 19.214c3.035 1.908 3.398 3.726 5.739 3.883 2.325.15-4.207-3.832-5.739-3.883"/>
        <path fill="#008300" d="M80.246 19.693c-.262-.13-.533-.263-.821-.386.288.126.559.257.82.386M80.246 19.693c2.824 1.428 4.229 3.26 4.43 3.271.207.011-1.225-1.686-4.43-3.27"/>
        <path fill="#009700" d="M78.03 25.392c4.155-.375 5.81 1.052 8.055-.454 2.248-1.514-6.627-.583-8.054.454"/>
        <path fill="#008300" d="M79.412 25.041c-.34.066-.686.136-1.041.23.357-.087.705-.163 1.04-.23M79.412 25.041c3.607-.676 6.213.031 6.406-.097.205-.14-2.334-.702-6.406.097"/>
        <path fill="#0A0" d="M80.53 28.505c3.26-2.61 5.43-2.328 6.473-4.82 1.044-2.505-5.851 3.162-6.472 4.82"/>
        <path fill="#008300" d="M80.739 28.211c.272-.293.543-.563.812-.824-.273.26-.543.53-.812.824"/>
        <path fill="#008300" d="M81.55 27.388c2.62-2.507 5.145-3.341 5.236-3.554.097-.223-2.305.687-5.236 3.554"/>
        <path fill="#009700" d="M86.689 23.123c2.846-.189 3.299-2.413 7-4.733-1.855.055-9.837 4.924-7 4.733"/>
        <path fill="#008300" d="M86.923 22.965c.24-.013 1.898-2.177 5.23-3.905-3.787 1.907-5.484 3.916-5.23 3.905M92.154 19.06c.375-.186.762-.375 1.182-.563-.42.18-.807.37-1.182.563"/>
        <path fill="#0A0" d="M85.126 24.585c-1.35 1.065 3.055.78 6.221 2.52-1.224-1.294-4.58-3.81-6.22-2.52"/>
        <path fill="#008300" d="M85.31 24.639c-.06.118 1.933-.035 4.5 1.428-2.605-1.546-4.423-1.538-4.5-1.428M89.81 26.066c.486.291 1 .63 1.537 1.04-.529-.419-1.04-.755-1.538-1.04"/>
        <path fill="#009700" d="M85.265 24.576c2.332 1.644 4.072.208 8.416.739-1.477-1.125-10.732-2.393-8.416-.74"/>
        <path fill="#008300" d="M85.544 24.585c.192.146 2.703-.45 6.215.218-3.965-.822-6.416-.351-6.215-.218M91.76 24.803c.501.104 1.024.225 1.575.375-.546-.157-1.07-.277-1.576-.375"/>
        <path fill="#009700" d="M86.29 23.14c1.715-1.53.275-3.914.878-7.946-1.18.928-2.599 9.47-.878 7.946"/>
        <path fill="#008300" d="M86.322 22.874c.136-.13-.451-2.886.287-6.05-.896 3.536-.443 6.18-.287 6.05M86.609 16.825c.113-.439.244-.89.396-1.356-.16.455-.29.906-.396 1.356"/>
        <path fill="#0A0" d="M79.506 14.557c3.452 3.86 4.235 10.667 6.305 9.739 2.305-1.884-2.01-8.006-6.305-9.739"/>
        <path fill="#008300" d="M79.506 14.557c4.175 2.24 5.841 9.513 6.131 9.434.27-.078-2.25-7.845-6.13-9.434"/>
        <path fill="#0A0" d="M85.78 24.047c-.694 2.626 4.448-1.852 9.903-2.598-2.673-.496-9.064-.563-9.902 2.598"/>
        <path fill="#008300" d="M86.057 23.954c.011.205 2.213-1.76 6.47-2.354-4.369.515-6.482 2.149-6.47 2.354M92.527 21.6c.945-.11 1.994-.172 3.156-.15-1.156-.046-2.21.02-3.156.15"/>
        <path fill="#0A0" d="M75.83 21.114c6.195 1.419 11.984 5.827 9.715 2.633-2.252-3.19-7.895-3.1-9.714-2.633"/>
        <path fill="#008300" d="M76.268 21.161c7.202.868 9.378 3.115 9.17 2.801-.225-.307-2.417-2.27-9.17-2.8"/>
        <path fill="#000" d="M45.483 84.58c.786-.602 1.593-1.4 1.606-1.697-.703.556-1.394.888-1.938 1.169.198-.659.105-1.38-.056-1.808-.224.8-.943 1.576-1.512 2.168-.052.004-.103.012-.163.02-.183-.645-.524-1.335-.852-1.543.153.618.06 1.072-.004 1.453-.375-.29-.83-.549-1.161-.706.399.36.633.758.798 1.12-1.227.4-1.015.67-2.81 1.275 1.667-.007 2.194 0 2.93-.416-.461.378-.811.88-1.83 1.51.402-.08 1.169-.431 1.889-.829.062.412.278.903.14 1.63.278-.184.535-.758.685-1.326.257.392.63.856.796 1.558.17-.195.204-.68.155-1.192.439.499.883 1.074 1.162 1.668.187-.356.276-1.168-.145-1.91.408.212.889.462 1.377.846-.011-.226-.576-.795-1.17-1.273 1.33.28 2.997.617 4.219 1.153-.644-.785-2.22-1.576-3.681-1.97 1.362-.09 2.953-.3 3.263-.493-.983.073-1.818.05-2.533.029 1.597-.455 3.25-1.035 3.628-1.35-2.071.567-3.597.684-4.793.915"/>
        <path fill="#0A0" d="M43.447 84.065c2.153-1.39 1.543-3.336 3.439-6.782-1.434.855-5.597 8.168-3.44 6.782"/>
        <path fill="#008300" d="M45.943 78.52c.219-.325.455-.657.71-.996-.26.334-.493.666-.71.995M43.551 83.84c.185-.12.54-2.523 2.392-5.32-2.129 3.14-2.583 5.445-2.392 5.32"/>
        <path fill="#0A0" d="M37.785 83.56c2.906.334 3.812 1.543 5.598.843 1.778-.703-4.452-1.34-5.598-.843"/>
        <path fill="#008300" d="M43.197 84.373c.156-.064-1.414-.772-4.214-.848 2.473.097 4.062.906 4.214.847M38.037 83.521c.33-.008.645-.004.946.004-.301-.012-.618-.016-.946-.004"/>
        <path fill="#009700" d="M38.966 81.004c1.982 1.246 2.22 2.433 3.747 2.536 1.52.097-2.747-2.502-3.747-2.536"/>
        <path fill="#008300" d="M39.699 81.317c-.172-.086-.35-.171-.537-.252.187.082.365.168.537.252M39.699 81.317c1.844.933 2.76 2.128 2.892 2.136.135.007-.8-1.101-2.892-2.136"/>
        <path fill="#009700" d="M38.252 85.037c2.712-.245 3.792.688 5.258-.296 1.468-.987-4.326-.38-5.258.296"/>
        <path fill="#008300" d="M39.153 84.809c-.222.043-.447.088-.68.149.234-.056.46-.105.68-.149M39.153 84.809c2.356-.441 4.057.02 4.184-.063.133-.092-1.525-.458-4.184.063"/>
        <path fill="#0A0" d="M39.884 87.07c2.127-1.703 3.545-1.52 4.225-3.146.682-1.636-3.82 2.064-4.225 3.147"/>
        <path fill="#008300" d="M40.019 86.879c.179-.192.355-.368.53-.538-.177.169-.354.346-.53.538M40.55 86.34c1.71-1.636 3.36-2.181 3.418-2.32.063-.145-1.506.449-3.419 2.32"/>
        <path fill="#009700" d="M43.905 83.557c1.858-.124 2.153-1.575 4.57-3.091-1.212.036-6.423 3.216-4.57 3.09"/>
        <path fill="#008300" d="M44.058 83.453c.156-.008 1.24-1.422 3.414-2.55-2.47 1.246-3.58 2.557-3.414 2.55M47.472 80.903c.246-.121.498-.245.772-.367-.274.118-.526.242-.772.367"/>
        <path fill="#0A0" d="M42.884 84.51c-.88.697 1.994.51 4.062 1.647-.799-.846-2.992-2.488-4.062-1.646"/>
        <path fill="#008300" d="M43.004 84.546c-.04.077 1.263-.023 2.938.932-1.7-1.01-2.887-1.004-2.938-.932M45.943 85.478c.318.19.652.412 1.004.679-.346-.273-.68-.492-1.004-.679"/>
        <path fill="#009700" d="M42.975 84.505c1.522 1.073 2.66.135 5.495.482-.965-.734-7.008-1.562-5.495-.482"/>
        <path fill="#008300" d="M43.158 84.51c.125.097 1.766-.292 4.059.144-2.59-.537-4.19-.23-4.06-.143M47.216 84.653c.327.068.67.147 1.028.244-.356-.102-.698-.18-1.028-.244"/>
        <path fill="#009700" d="M43.644 83.567c1.121-.999.181-2.556.574-5.188-.771.606-1.697 6.183-.574 5.188"/>
        <path fill="#008300" d="M43.666 83.394c.088-.085-.295-1.885.187-3.95-.586 2.308-.29 4.035-.188 3.95M43.853 79.444c.074-.287.158-.582.258-.886-.104.298-.189.593-.258.886"/>
        <path fill="#0A0" d="M39.214 77.963c2.254 2.52 2.766 6.964 4.117 6.358 1.506-1.23-1.312-5.227-4.117-6.358"/>
        <path fill="#008300" d="M39.214 77.963c2.727 1.463 3.814 6.211 4.004 6.16.176-.05-1.47-5.122-4.004-6.16"/>
        <path fill="#0A0" d="M43.312 84.16c-.454 1.714 2.903-1.209 6.466-1.697-1.746-.324-5.919-.367-6.466 1.697"/>
        <path fill="#008300" d="M43.492 84.099c.008.133 1.445-1.149 4.225-1.537-2.853.336-4.232 1.403-4.225 1.537"/>
        <path fill="#008300" d="M47.716 82.562c.617-.073 1.303-.113 2.062-.099-.755-.029-1.443.014-2.062.1"/>
        <path fill="#0A0" d="M36.815 82.244c4.045.927 7.825 3.805 6.343 1.72-1.471-2.084-5.155-2.025-6.343-1.72"/>
        <path fill="#008300" d="M37.101 82.275c4.702.567 6.123 2.034 5.986 1.83-.146-.202-1.577-1.483-5.986-1.83"/>
        <path fill="#000" d="M117.248 59.444c.786-.603 1.592-1.4 1.605-1.697-.702.556-1.393.887-1.937 1.168.199-.658.105-1.38-.055-1.807-.224.799-.945 1.576-1.513 2.168-.052.004-.102.012-.163.019-.183-.645-.523-1.334-.851-1.542.152.617.059 1.07-.004 1.452-.376-.29-.83-.548-1.162-.705.398.359.633.758.799 1.12-1.228.4-1.016.669-2.811 1.275 1.666-.007 2.194 0 2.93-.417-.461.378-.811.88-1.83 1.51.402-.08 1.17-.431 1.888-.828.063.412.278.903.142 1.629.277-.184.534-.758.683-1.326.258.392.63.856.797 1.558.17-.194.205-.68.155-1.192.438.499.883 1.074 1.16 1.668.19-.356.278-1.167-.143-1.91.408.212.89.463 1.377.846-.01-.226-.576-.795-1.17-1.273 1.33.28 2.997.617 4.219 1.153-.645-.784-2.218-1.575-3.681-1.97 1.362-.09 2.952-.3 3.262-.492-.982.072-1.818.05-2.533.028 1.598-.454 3.25-1.035 3.629-1.35-2.071.567-3.596.684-4.793.915"/>
        <path fill="#0A0" d="M115.212 58.928c2.152-1.389 1.541-3.336 3.44-6.782-1.436.855-5.599 8.168-3.44 6.782"/>
        <path fill="#008300" d="M117.707 53.383c.22-.325.457-.657.713-.996-.26.334-.496.667-.713.996M115.316 58.703c.185-.12.54-2.522 2.39-5.32-2.126 3.14-2.581 5.446-2.39 5.32"/>
        <path fill="#0A0" d="M109.548 58.424c2.907.334 3.813 1.542 5.598.843 1.78-.703-4.45-1.34-5.598-.843"/>
        <path fill="#008300" d="M114.961 59.236c.157-.063-1.415-.771-4.214-.847 2.473.097 4.061.906 4.214.847M109.8 58.385c.33-.008.645-.004.947.004-.302-.012-.617-.016-.947-.004"/>
        <path fill="#009700" d="M110.731 55.867c1.982 1.246 2.22 2.433 3.747 2.536 1.519.097-2.747-2.502-3.747-2.536"/>
        <path fill="#008300" d="M111.462 56.18c-.17-.086-.349-.17-.536-.252.187.082.365.168.536.252M111.462 56.18c1.844.933 2.762 2.128 2.893 2.136.134.007-.8-1.1-2.893-2.136"/>
        <path fill="#009700" d="M110.016 59.9c2.712-.244 3.793.688 5.26-.295 1.467-.988-4.328-.381-5.26.296"/>
        <path fill="#008300" d="M110.918 59.672c-.223.043-.448.088-.68.15.234-.057.46-.106.68-.15M110.918 59.672c2.354-.44 4.056.02 4.183-.063.133-.092-1.523-.458-4.183.063"/>
        <path fill="#0A0" d="M111.648 61.934c2.129-1.704 3.545-1.52 4.227-3.147.68-1.636-3.821 2.064-4.227 3.147"/>
        <path fill="#008300" d="M111.785 61.742c.178-.192.354-.368.529-.538-.177.17-.353.346-.53.538M112.314 61.204c1.711-1.637 3.359-2.182 3.419-2.32.063-.146-1.505.448-3.419 2.32"/>
        <path fill="#009700" d="M115.67 58.42c1.858-.124 2.153-1.575 4.57-3.091-1.212.036-6.424 3.216-4.57 3.09"/>
        <path fill="#008300" d="M115.823 58.316c.156-.008 1.239-1.422 3.415-2.55-2.473 1.246-3.58 2.557-3.415 2.55M119.238 55.766c.245-.121.498-.245.77-.367-.272.118-.525.242-.77.367"/>
        <path fill="#0A0" d="M114.649 59.374c-.882.696 1.995.51 4.062 1.646-.8-.846-2.991-2.488-4.062-1.646"/>
        <path fill="#008300" d="M114.769 59.41c-.039.076 1.262-.024 2.938.931-1.701-1.009-2.887-1.004-2.938-.932M117.707 60.341c.318.19.654.412 1.005.68-.347-.274-.681-.493-1.005-.68"/>
        <path fill="#009700" d="M114.74 59.368c1.522 1.073 2.659.135 5.495.482-.964-.734-7.008-1.562-5.495-.482"/>
        <path fill="#008300" d="M114.922 59.374c.126.096 1.765-.293 4.058.143-2.589-.537-4.19-.23-4.058-.143M118.98 59.517c.328.067.67.146 1.029.243-.356-.102-.699-.18-1.029-.243"/>
        <path fill="#009700" d="M115.41 58.43c1.119-.998.18-2.555.572-5.187-.77.606-1.696 6.183-.572 5.188"/>
        <path fill="#008300" d="M115.43 58.257c.09-.084-.295-1.884.187-3.95-.585 2.309-.29 4.036-.187 3.95"/>
        <path fill="#008300" d="M115.618 54.307c.073-.287.159-.582.259-.886-.106.298-.19.593-.26.886"/>
        <path fill="#0A0" d="M110.98 52.827c2.254 2.52 2.766 6.964 4.116 6.358 1.505-1.23-1.313-5.227-4.116-6.358"/>
        <path fill="#008300" d="M110.98 52.827c2.726 1.463 3.814 6.21 4.003 6.16.177-.051-1.47-5.122-4.003-6.16"/>
        <path fill="#0A0" d="M115.076 59.023c-.453 1.714 2.904-1.209 6.467-1.697-1.746-.324-5.92-.367-6.467 1.697"/>
        <path fill="#008300" d="M115.257 58.962c.007.133 1.444-1.149 4.224-1.537-2.853.336-4.232 1.403-4.224 1.537M119.481 57.426c.618-.073 1.303-.113 2.062-.1-.756-.028-1.443.015-2.062.1"/>
        <path fill="#0A0" d="M108.58 57.107c4.045.927 7.824 3.805 6.343 1.72-1.472-2.084-5.156-2.025-6.343-1.72"/>
        <path fill="#008300" d="M108.865 57.139c4.703.567 6.123 2.034 5.986 1.829-.144-.201-1.576-1.482-5.986-1.83"/>
        <path fill="#000" d="M91.002 109.996c.536-.411 1.086-.955 1.095-1.157-.479.379-.95.605-1.32.796.134-.449.071-.94-.039-1.232-.153.545-.643 1.075-1.032 1.478-.035.003-.069.009-.11.013-.125-.44-.357-.909-.58-1.051.103.421.04.73-.003.99-.256-.198-.567-.374-.793-.481.272.245.431.517.545.764-.836.273-.693.456-1.916.869 1.136-.004 1.496 0 1.998-.284-.315.258-.553.601-1.248 1.029.273-.053.797-.294 1.287-.564.043.281.19.616.097 1.11.19-.125.364-.516.465-.904.176.268.43.584.543 1.063.116-.132.14-.464.106-.813.3.34.602.732.793 1.137.13-.242.188-.795-.099-1.302.278.145.607.316.94.577-.009-.154-.394-.542-.798-.868.906.192 2.043.421 2.876.786-.44-.534-1.513-1.074-2.51-1.343.93-.061 2.013-.205 2.224-.336-.67.05-1.239.035-1.727.019 1.09-.309 2.217-.705 2.475-.919-1.413.386-2.453.465-3.269.623"/>
        <path fill="#0A0" d="M89.615 109.644c1.468-.947 1.05-2.275 2.346-4.624-.98.584-3.818 5.57-2.346 4.624"/>
        <path fill="#008300" d="M91.316 105.863c.149-.22.31-.448.485-.679-.176.228-.337.455-.485.68M89.685 109.49c.127-.081.37-1.72 1.631-3.626-1.45 2.142-1.76 3.713-1.63 3.627"/>
        <path fill="#0A0" d="M85.753 109.3c1.982.229 2.6 1.052 3.816.576 1.213-.48-3.034-.914-3.816-.575"/>
        <path fill="#008300" d="M89.444 109.854c.106-.043-.964-.526-2.873-.578 1.686.067 2.769.619 2.873.578M85.925 109.274c.225-.006.44-.003.646.002-.207-.008-.42-.01-.646-.002"/>
        <path fill="#009700" d="M86.56 107.558c1.352.85 1.513 1.658 2.555 1.728 1.035.067-1.873-1.706-2.555-1.728"/>
        <path fill="#008300" d="M87.058 107.77c-.116-.058-.238-.116-.365-.171.127.056.25.114.365.172M87.058 107.77c1.258.637 1.883 1.452 1.973 1.458.091.004-.546-.751-1.973-1.457"/>
        <path fill="#009700" d="M86.072 110.308c1.85-.168 2.586.467 3.586-.203 1-.672-2.95-.26-3.586.203"/>
        <path fill="#008300" d="M86.687 110.152c-.151.03-.305.06-.464.102.159-.04.315-.072.464-.102M86.687 110.152c1.605-.301 2.766.014 2.852-.043.091-.062-1.04-.312-2.852.043"/>
        <path fill="#0A0" d="M87.185 111.694c1.451-1.162 2.417-1.036 2.881-2.146.465-1.115-2.605 1.408-2.88 2.146"/>
        <path fill="#008300" d="M87.278 111.563c.12-.131.24-.25.36-.367-.121.116-.24.236-.36.367M87.638 111.196c1.167-1.116 2.291-1.488 2.332-1.582.043-.1-1.027.306-2.332 1.582"/>
        <path fill="#009700" d="M89.927 109.298c1.268-.084 1.468-1.074 3.116-2.107-.827.024-4.38 2.192-3.116 2.107"/>
        <path fill="#008300" d="M90.03 109.228c.108-.006.847-.97 2.329-1.74-1.684.85-2.44 1.743-2.328 1.74M92.359 107.488c.168-.083.34-.167.527-.25-.187.081-.36.165-.527.25"/>
        <path fill="#0A0" d="M89.231 109.948c-.601.475 1.36.348 2.771 1.123-.546-.577-2.042-1.697-2.771-1.123"/>
        <path fill="#008300" d="M89.313 109.972c-.027.053.86-.016 2.003.636-1.16-.688-1.969-.685-2.003-.636M91.316 110.608c.217.13.445.28.686.463-.237-.186-.465-.336-.686-.463"/>
        <path fill="#009700" d="M89.293 109.944c1.038.732 1.813.092 3.746.33-.657-.502-4.778-1.066-3.746-.33"/>
        <path fill="#008300" d="M89.418 109.948c.085.065 1.203-.2 2.766.097-1.764-.366-2.856-.156-2.766-.097M92.184 110.045c.224.046.457.101.702.167-.244-.07-.476-.124-.702-.167"/>
        <path fill="#009700" d="M89.75 109.305c.763-.68.123-1.743.39-3.538-.525.414-1.156 4.216-.39 3.538"/>
        <path fill="#008300" d="M89.763 109.186c.061-.057-.2-1.285.13-2.693-.4 1.574-.199 2.752-.13 2.693M89.892 106.494c.05-.195.107-.396.176-.604-.072.203-.129.404-.176.604"/>
        <path fill="#0A0" d="M86.729 105.484c1.536 1.718 1.886 4.75 2.807 4.335 1.026-.839-.896-3.564-2.807-4.335"/>
        <path fill="#008300" d="M86.729 105.484c1.858.998 2.601 4.235 2.729 4.2.121-.034-1.001-3.492-2.729-4.2"/>
        <path fill="#0A0" d="M89.522 109.71c-.31 1.168 1.979-.826 4.409-1.158-1.19-.22-4.035-.25-4.409 1.157"/>
        <path fill="#008300" d="M89.646 109.668c.004.09.984-.784 2.879-1.048-1.944.229-2.885.957-2.879 1.048M92.525 108.62c.422-.05.889-.077 1.406-.068-.515-.019-.983.01-1.406.068"/>
        <path fill="#0A0" d="M85.093 108.403c2.758.632 5.334 2.595 4.324 1.172-1.004-1.42-3.514-1.38-4.324-1.172"/>
        <path fill="#008300" d="M85.288 108.424c3.206.387 4.175 1.387 4.08 1.247-.098-.137-1.073-1.01-4.08-1.247"/>
        <path fill="#000" d="M155.41 48.494c.536-.41 1.086-.955 1.096-1.157-.48.38-.951.605-1.323.796.136-.449.073-.94-.037-1.232-.153.545-.644 1.075-1.031 1.478-.035.003-.07.01-.111.013-.125-.44-.358-.909-.58-1.05.103.42.04.73-.004.99-.256-.199-.565-.375-.791-.482.27.245.43.517.544.764-.837.273-.693.456-1.916.87 1.135-.005 1.495 0 1.998-.285-.316.258-.554.601-1.247 1.03.273-.054.796-.295 1.287-.565.042.281.189.616.095 1.11.19-.125.365-.516.466-.904.177.268.43.584.543 1.063.116-.132.14-.464.107-.813.299.34.6.732.79 1.137.13-.242.19-.795-.097-1.302.277.145.607.316.94.577-.008-.154-.394-.542-.797-.868.905.192 2.04.421 2.875.786-.44-.534-1.512-1.074-2.51-1.343.929-.06 2.013-.205 2.224-.336-.67.05-1.24.035-1.726.02 1.088-.31 2.215-.706 2.473-.92-1.413.386-2.452.465-3.268.623"/>
        <path fill="#0A0" d="M154.022 48.142c1.468-.947 1.052-2.275 2.345-4.623-.979.583-3.817 5.569-2.345 4.623"/>
        <path fill="#008300" d="M155.723 44.361c.15-.22.312-.448.485-.679-.177.228-.338.455-.485.68M154.093 47.989c.125-.082.368-1.72 1.63-3.627-1.45 2.142-1.76 3.713-1.63 3.627"/>
        <path fill="#0A0" d="M150.16 47.799c1.982.228 2.6 1.05 3.818.575 1.212-.48-3.035-.914-3.817-.575"/>
        <path fill="#008300" d="M153.851 48.352c.107-.043-.965-.526-2.873-.578 1.686.067 2.77.619 2.873.578M150.333 47.772c.226-.006.439-.003.645.002-.207-.008-.42-.01-.645-.002"/>
        <path fill="#009700" d="M150.966 46.056c1.352.85 1.514 1.659 2.555 1.729 1.036.066-1.873-1.706-2.555-1.73"/>
        <path fill="#008300" d="M151.466 46.269c-.117-.059-.238-.117-.366-.172.128.056.25.114.366.172M151.466 46.269c1.256.636 1.882 1.451 1.971 1.457.092.004-.545-.751-1.97-1.457"/>
        <path fill="#009700" d="M150.48 48.806c1.849-.167 2.586.468 3.585-.202 1.001-.673-2.95-.26-3.585.202"/>
        <path fill="#008300" d="M151.093 48.65c-.15.03-.305.06-.463.102.16-.04.315-.072.463-.102M151.093 48.65c1.607-.301 2.767.014 2.854-.043.09-.062-1.04-.312-2.854.043"/>
        <path fill="#0A0" d="M151.592 50.192c1.45-1.162 2.417-1.036 2.882-2.146.465-1.115-2.606 1.408-2.882 2.146"/>
        <path fill="#008300" d="M151.685 50.061c.121-.131.242-.25.361-.367-.121.116-.242.236-.361.367M152.046 49.694c1.166-1.116 2.291-1.488 2.33-1.582.044-.1-1.025.306-2.33 1.582"/>
        <path fill="#009700" d="M154.333 47.796c1.268-.084 1.47-1.074 3.118-2.107-.826.024-4.38 2.192-3.118 2.107"/>
        <path fill="#008300" d="M154.439 47.725c.105-.006.844-.97 2.328-1.739-1.685.85-2.441 1.744-2.328 1.74M156.767 45.986c.167-.083.34-.167.525-.25-.186.081-.358.165-.525.25"/>
        <path fill="#0A0" d="M153.638 48.446c-.602.475 1.36.348 2.77 1.123-.545-.577-2.04-1.697-2.77-1.123"/>
        <path fill="#008300" d="M153.72 48.47c-.027.053.86-.016 2.003.636-1.159-.688-1.969-.685-2.003-.636M155.723 49.106c.218.13.445.28.685.463-.236-.186-.463-.336-.685-.463"/>
        <path fill="#009700" d="M153.7 48.442c1.038.732 1.813.092 3.747.33-.658-.502-4.778-1.066-3.746-.33"/>
        <path fill="#008300" d="M153.825 48.446c.085.065 1.203-.2 2.767.097-1.766-.366-2.857-.156-2.767-.097M156.591 48.543c.224.046.457.101.701.167-.242-.07-.476-.124-.7-.167"/>
        <path fill="#009700" d="M154.156 47.803c.765-.68.123-1.743.392-3.538-.526.414-1.158 4.216-.392 3.538"/>
        <path fill="#008300" d="M154.171 47.684c.06-.056-.2-1.284.127-2.692-.399 1.574-.197 2.752-.127 2.693M154.298 44.992c.051-.195.108-.396.176-.604-.07.203-.129.404-.176.604"/>
        <path fill="#0A0" d="M151.136 43.982c1.537 1.718 1.886 4.75 2.807 4.335 1.026-.839-.895-3.564-2.807-4.335"/>
        <path fill="#008300" d="M151.136 43.982c1.86.998 2.601 4.235 2.73 4.2.12-.034-1.002-3.492-2.73-4.2"/>
        <path fill="#0A0" d="M153.93 48.207c-.31 1.17 1.98-.825 4.408-1.157-1.19-.22-4.036-.25-4.409 1.157"/>
        <path fill="#008300" d="M154.052 48.166c.006.09.985-.784 2.881-1.048-1.945.229-2.886.957-2.88 1.048M156.933 47.118c.421-.05.888-.077 1.405-.068-.514-.019-.983.01-1.405.068"/>
        <path fill="#0A0" d="M149.5 46.9c2.757.633 5.335 2.596 4.325 1.173-1.004-1.42-3.514-1.38-4.325-1.172"/>
        <path fill="#008300" d="M149.695 46.922c3.206.387 4.175 1.387 4.082 1.247-.1-.137-1.076-1.01-4.082-1.247"/>
        <path fill="#000" d="M104.08 79.543c.76-.583 1.54-1.353 1.553-1.64-.68.537-1.348.857-1.873 1.129.192-.636.1-1.334-.053-1.748-.217.774-.913 1.525-1.463 2.096-.05.005-.1.012-.157.019-.177-.624-.506-1.29-.823-1.491.148.597.057 1.036-.004 1.404-.364-.28-.801-.53-1.123-.681.385.347.612.732.772 1.082-1.186.387-.981.646-2.717 1.233 1.61-.007 2.12 0 2.833-.403-.447.365-.785.85-1.77 1.459.389-.076 1.13-.417 1.826-.8.06.399.269.873.138 1.574.267-.177.515-.733.659-1.281.25.378.61.827.77 1.506.164-.188.198-.658.15-1.153.425.483.853 1.039 1.123 1.612.182-.343.268-1.127-.14-1.846.395.206.86.448 1.332.819-.012-.22-.557-.77-1.131-1.231 1.285.272 2.896.596 4.077 1.114-.623-.757-2.143-1.522-3.558-1.903 1.317-.087 2.854-.291 3.154-.476-.95.069-1.757.048-2.448.026 1.543-.438 3.14-1 3.507-1.303-2.002.547-3.476.659-4.634.883"/>
        <path fill="#0A0" d="M102.113 79.045c2.08-1.343 1.49-3.226 3.324-6.556-1.387.827-5.41 7.896-3.324 6.556"/>
        <path fill="#008300" d="M104.525 73.684c.21-.313.44-.635.687-.963-.25.323-.478.646-.687.963M102.213 78.827c.18-.116.522-2.438 2.312-5.143-2.057 3.037-2.497 5.265-2.312 5.143"/>
        <path fill="#0A0" d="M96.638 78.557c2.811.323 3.686 1.491 5.412.815 1.72-.68-4.303-1.295-5.412-.815"/>
        <path fill="#008300" d="M101.87 79.342c.153-.061-1.366-.746-4.072-.82 2.39.095 3.926.877 4.073.82M96.882 78.519c.32-.008.623-.004.915.004-.292-.012-.597-.015-.915-.004"/>
        <path fill="#009700" d="M97.782 76.086c1.916 1.205 2.146 2.352 3.622 2.45 1.468.095-2.656-2.417-3.622-2.45"/>
        <path fill="#008300" d="M98.49 76.389c-.166-.083-.338-.166-.52-.244.182.079.354.162.52.244M98.49 76.389c1.78.9 2.668 2.057 2.795 2.065.13.006-.774-1.065-2.795-2.065"/>
        <path fill="#009700" d="M97.091 79.985c2.621-.237 3.666.664 5.082-.287 1.42-.954-4.182-.368-5.082.287"/>
        <path fill="#008300" d="M97.961 79.764c-.214.042-.432.085-.657.145.226-.056.446-.103.657-.145M97.961 79.764c2.278-.427 3.922.02 4.044-.062.13-.088-1.473-.442-4.044.062"/>
        <path fill="#0A0" d="M98.668 81.95c2.057-1.647 3.427-1.469 4.085-3.042.659-1.58-3.692 1.995-4.085 3.042"/>
        <path fill="#008300" d="M98.8 81.765c.172-.186.342-.355.512-.52-.172.164-.342.334-.512.52M99.312 81.245c1.653-1.583 3.248-2.11 3.305-2.243.06-.141-1.455.433-3.305 2.243"/>
        <path fill="#009700" d="M102.555 78.553c1.798-.119 2.081-1.523 4.42-2.988-1.173.035-6.21 3.11-4.42 2.988"/>
        <path fill="#008300" d="M102.704 78.454c.15-.008 1.197-1.375 3.3-2.466-2.39 1.204-3.46 2.472-3.3 2.466M106.003 75.988c.238-.117.481-.236.746-.354-.265.114-.508.233-.746.354"/>
        <path fill="#0A0" d="M101.569 79.475c-.853.673 1.928.493 3.927 1.592-.774-.818-2.893-2.405-3.927-1.592"/>
        <path fill="#008300" d="M101.685 79.51c-.039.074 1.22-.023 2.84.9-1.645-.975-2.79-.97-2.84-.9M104.525 80.41c.308.185.63.399.97.657-.333-.264-.657-.475-.97-.656"/>
        <path fill="#009700" d="M101.657 79.47c1.472 1.038 2.57.13 5.312.467-.933-.711-6.775-1.511-5.312-.467"/>
        <path fill="#008300" d="M101.834 79.475c.12.093 1.704-.283 3.921.138-2.501-.518-4.048-.221-3.921-.138M105.755 79.613c.317.066.648.143.994.236-.344-.098-.675-.174-.994-.236"/>
        <path fill="#009700" d="M102.303 78.563c1.083-.965.175-2.47.555-5.015-.745.586-1.64 5.976-.555 5.015"/>
        <path fill="#008300" d="M102.324 78.395c.086-.08-.285-1.82.182-3.818-.567 2.232-.281 3.901-.182 3.818M102.505 74.578c.07-.277.152-.562.25-.856-.102.287-.184.573-.25.856"/>
        <path fill="#0A0" d="M98.022 73.147c2.179 2.436 2.673 6.732 3.979 6.146 1.456-1.19-1.269-5.052-3.979-6.146"/>
        <path fill="#008300" d="M98.022 73.147c2.636 1.414 3.687 6.003 3.87 5.954.17-.05-1.421-4.951-3.87-5.954"/>
        <path fill="#0A0" d="M101.982 79.137c-.438 1.657 2.807-1.17 6.25-1.641-1.688-.313-5.721-.355-6.25 1.64"/>
        <path fill="#008300" d="M102.157 79.078c.007.128 1.396-1.111 4.083-1.486-2.758.324-4.091 1.356-4.083 1.486M106.24 77.592c.598-.07 1.259-.109 1.992-.096-.73-.028-1.394.014-1.992.096"/>
        <path fill="#0A0" d="M95.703 77.284c3.909.896 7.562 3.68 6.13 1.662-1.422-2.014-4.982-1.957-6.13-1.662"/>
        <path fill="#008300" d="M95.978 77.315c4.545.548 5.919 1.966 5.787 1.767-.141-.193-1.525-1.432-5.787-1.767"/>
        <path fill="#525259" d="M90.044 46.865c.724.314 1.07.882 1.01 1.601-.246-.238-.634-.717-1.345-.943 0 0-.196-.559.335-.658"/>
        <path fill="#525259" d="M89.697 47.486c.539.575.63 1.234.29 1.872-.13-.316-.295-.911-.858-1.4 0 0 .044-.592.568-.472M89.055 47.86c.196.763-.04 1.386-.644 1.78.038-.338.178-.94-.082-1.64 0 0 .325-.497.726-.14"/>
        <path fill="#A09762" d="M90.096 37.453s.858 2.104-.213 2.947c-.759.6-2.24 2.132-2.24 2.132s.864 2.848 2.274 4.159c.598.522-.1.889-.1.889-.083.501-.67.442-.67.442s-.47.326-.858-.011c-.202-.568-.387-1.245-.462-1.942-.2-.743-3.636-4.666-3.222-5.747 1.066-2.785.273-5.41.273-5.41l5.218 2.541z"/>
        <path fill="#000" d="M50.123 35.089c-3.723 1.662-1.344 9.079 5.314 16.567 6.659 7.488 15.075 12.21 18.797 10.55 3.722-1.662 1.344-9.08-5.315-16.568-6.66-7.488-15.074-12.211-18.796-10.55"/>
        <path fill="#A09762" d="M65.499 32.469c-6.705-.412-9.06-3.377-10.7-3.46-1.642-.082-1.606 1.463-2.033 2.616-.256.69-.505 2.96.27 4.604.195.412.816.58.816 1.452.086.83-.791.814-.791.814s-.072.617-.922.412c-.968-.018-1.283-.4-1.283-.4s-1.462-.154-.76-2.061c.299-3.096-.752-6.28.243-7.036 1.82-1.39 1.964-4.89 2.532-4.951.57-.061 2.325 1.342 2.325 1.342s2.589-.01 3.255-.45c.663-.44 1.877-.028 1.877-.028l6.31 5.847s-.319.95-1.14 1.299"/>
        <path fill="#B9B073" d="M19.699 5.62c3.56-2.777 14.277-.606 21.616.304 7.224.896 12.855 2.602 14.015 3.524 16.265-2.916 27.96 14.878 32 16.864 1.658.648 8.719-.711 14.178 4.54 4.5.63 5.394 4.677 5.394 4.677s6.902 5.428 6.488 10.193c.833 2.472-4.974 4.788-6.486 3.571 0 0-4.203.569-5.82-.466 0 0-4.108.112-7.74-1.787-5.014-.59-7.227-5.019-7.227-5.019s-.388-.021-1.51-.793c-.963.958-5.244 1.761-5.244 1.761l-1.863-.06s-2.952-.482-5.905-2.622c-2.843.292-4.037-.47-4.037-.47l-5.585-3.027s-1.604-2.038-4.887-4.489c-2.957-2.209-4.581-6.106-4.581-6.106s-3.265-2.234-5.12-3.429c-10.855-1.938-21.04-11.634-24.352-11.062-.316.083-.521.361-.55 1.86.342 8.329 12.99 14.407 16.71 24.579.36.871-.327 1.219-.76.438C31.635 28.118 9.806 15.144 19.699 5.62"/>
        <path fill="#A09762" d="M77.5 42.93L79.5 39.4l-.363-2.514s-1.35 2.879-2.092 3.682c-.908.985.453 2.362.453 2.362M83.51 39.823c.605 1.1.052 2.01.052 2.01l-.436.169-1.037-1.635s.99-.822 1.42-.544"/>
        <path fill="#8B813B" d="M21.127 13.138c-.976-.76-1.44-2.015-1.938-2.153-.5-.138-1.087.632-1.68.505.57.454 1.08-.048 1.61.217s1.04 1.157 2.008 1.431M22.353 16.027c-2.134-1.215-2.313-2.176-3.255-2.482-1.399-.456-1.049 1.175-1.049 1.175s.338-.288.959-.146c.619.143 1.318 1.277 3.345 1.453M52.437 14.709c-1.229 2.918-2.432 3.293-2.68 4.545-.37 1.86 1.815 4.774 1.815 4.774s-.697-2.554-.697-4.233c0-1.42 1.647-2.465 1.562-5.086"/>
        <path fill="#A09762" d="M61.973 36.81c.384-.849-6.353-12.758-6.707-12.353-1.177 5.16 4.94 9.735 6.707 12.353"/>
        <path fill="#8B813B" d="M57.82 9.157c-2.393 3.08.305 6.581.305 6.581s-1.625.268-2.686-1.153c-1.06-1.42-1.57 2.563-1.57 2.563s-1.158-2.46.139-3.527c-.866-1.63-2.7.325-2.7.325s-1.625-4.222 1.425-5.64c1.655.45 2.597 1.142 2.597 1.142s1.554-.262 2.49-.29M60.412 17.282c-1.215-1.657-1.42-2.882-.145-4.798 1.298-1.73 2.122-2.347.374-3.285 4.837.258 7.91 2.184 7.91 2.184-3.587-.093-5.276 2.667-4.926 4.706.208 1.203 2.307 2.84 2.122 4.695-.904-2.577-4.2-1.954-5.335-3.502"/>
        <path fill="#8B813B" d="M71.244 12.804c-11.84 2.254.82 14.635.05 18.474-1.005 5-.773 7.472-.4 8.265 1.319-4.756 2.636-5.507 2.636-8.702 0-4.668-8.401-11.91 2.937-14.354-.835-.81-3.645-2.807-5.223-3.683"/>
        <path fill="#8B813B" d="M78.771 18.466c-2.779.61-4.377 1.618-4.54 3.8-.166 2.183.144 2.605.36 4.366.214 1.76 2.1 2.003 2.008 4.647-.093 2.644-1.247 3.176-1.794 4.743-.958 2.757 1.917 6.24 1.917 6.24s-1.791-2.846 1.266-5.547c1.303-1.151-.965-2.154-.701-2.978.457-1.42 1.285-2.168 1.118-3.941-.169-1.774-1.605-2.252-1.464-5.34.141-3.087 3.876-4.08 3.876-4.08l-2.046-1.91z"/>
        <path fill="#8B813B" d="M82.052 21.579s-.613 1.488-2.056 3.848c-1.606 2.626.185 3.336-.122 5.159-.31 1.822-.35 2.302-.187 4.324.165 2.023 1.945 1.805 1.945 1.805s-1.627-2.705-1.226-3.596c.826-1.841-.749-3.738.92-6.672.9-1.587 3.533-2.112 3.533-2.112l-2.807-2.756z"/>
        <path fill="#8B813B" d="M86.607 26.281c-4.942 3.471-3.203 9.994-3.203 9.994s-1.903-4.474-1.512-5.842c1.082-3.802 4.715-4.152 4.715-4.152"/>
        <path fill="#8B813B" d="M86.88 41.675s-1.24-1.838-1.553-5.869c-.283-3.677 1.552-7.238 1.552-7.238s-2.157 1.675-2.728 6.274c-.572 4.6 2.728 6.833 2.728 6.833M93.59 32.47c-2.475 3.769-3.147 1.762-4.063 5.05-.913 3.29 1.651 7.739 2.608 8.85-2.315-1.42-5.378-7.628-5.004-9.976.377-2.347 3.274-2.014 2.878-4.216-.206-1.156-2.888-.495-2.888-.495s.932-2.383 2.761-1.931c.776.192 1.605-2.38 4.244-2.693 2.984.5 5.107 2.013 5.107 2.013s-4.132-.432-5.644 3.399"/>
        <path fill="#8B813B" d="M100.42 35.055c-.696 1.256-.377 2.296-.377 2.296s.735 1.052.774 2.302c.04 1.25-.685 2.055-.774 2.209.634-2.055-.714-3.822-1.044-3.743-.329.082 0 1.81 0 1.81s-.87-.895-1.23-1.821c-1.06 1.189.33 2.178.761 2.889.432.709.727 1.76.371 3.15-.355 1.39-2.224 1.437-2.39 3.707-1.147-1.961.35-2.595.32-4.911-.014-1.11-2.75-1.607-2.996-4.82-.137-1.798 1.203-3.66 1.203-3.66s-.867 2.2-.482 3.555c.385 1.354 2.244 3.703 2.544 3.284.298-.42-1.72-3.035-1.412-5.58.17-1.396 1.083-1.973 1.083-1.973s1.635-2.545 3.525-2.616c.582-.383 1.211-.28 1.211-.28 3.016.31 4.326 2.494 4.326 2.494s-1.33-.62-2.586.415c-1.545-.128-2.49.688-2.827 1.293"/>
        <path fill="#8B813B" d="M101.65 37.373c-.546.828-.236 1.572-.236 1.572s.685 1.72.267 2.493c-.947 1.751.166 2.986-1.215 4.079-.348.122 1.455-.202 2.02-.865.562-.665.269-2.43.659-1.864 1.503 1.411-.208 2.832 1.9 5.112-.371-2.116.587-3.187.455-3.846-.132-.659-.975-1.651-.963-2.224.01-.573-.147-.946.512-1.637.732-.772 2.843-.611 2.843-.611s1.344-.918 2.856-.204c-.957-1.503-3.846-3.849-3.846-3.849s-.952-.175-1.992.756c0 0-2.348-.294-3.26 1.088"/>
        <path fill="#8B813B" d="M112.602 42.224c-.57-.58-1.964-.179-2.836.44-2.073-.115-3.17 1.54-3.234 2.471-.095 1.359-.153 1.746.03 3.66.983-.695.275-1.018 1.082-2.301.76-1.128 1.504-2.284 3.088-2.225 1.73-.895 2.37-.231 2.658 1.453 0 0 .246-1.596-.788-3.498M50.76 7.72c-1.407 1.273-2.572 4.632-3.23 5.475-1.113 1.425-.402 8.649-.402 8.649s-4.9-5.508-4.592-9.874c.31-4.366 3.09-5.39 3.09-5.39s1.627.314 1.846.36c-2.228 1.004-3.174 2.438-3.452 5.638-.319 3.675 2.43 7.32 2.43 7.32s-.812-4.777-.64-7.094c.388-5.136 2.925-5.588 2.925-5.588.46.115 1.524.366 2.024.504M40.828 6.57s-1.071 2.684-.7 5.153c.37 2.47 2.082 6.651 2.082 6.651s-3.487-4.427-3.57-7.002c-.078-2.574 2.188-4.803 2.188-4.803M37.183 5.72s-1.437 2.204-.835 3.819c.603 1.616 2.436 4.455 2.292 5.767-.254 2.368-2.292 2.708-2.292 2.708s.94.02.94-2.327c0-1.297-2.42-3.82-2.143-6.832.227-2.465 2.038-3.135 2.038-3.135M33.755 5.873s-.965 1.67-.527 4.887c.437 3.215 1.236 5.154 1.236 5.154s-3.303-2.864-3.117-5.731c.187-2.868 2.408-4.31 2.408-4.31M31.928 4.665s-2.229.93-2.105 4.189c0 0-1.592-2.888-.322-4.432.214-.03 2.427.244 2.427.244M28.535 13.432S25.523 10.925 28 4.317c0 0-3.301-.334-5.67.233-2.183 1.37.659 2.78.659 2.78s1.58 1.388-.294 3.332c0 0 1.16.077 1.639-.772.477-.85-.14-1.653.955-2.812-.374 4.946 3.246 6.354 3.246 6.354M19.699 5.62c-.076 2.833 2.504 5.881 2.504 5.881s-2.15-.701-2.858-2.415c-.711-1.714.354-3.466.354-3.466M25.892 22.359c-.549.59-.965.659-1.13.937-.253.413.306.824.306.824s-.06-.32.14-.505c.153-.141.53-.237.684-1.256M29.095 25.951c-.467.502-.82.561-.965.797-.215.351.263.702.263.702s-.053-.272.12-.43c.13-.12.451-.202.582-1.069M22.798 17.972c-1.04-.123-1.423-.865-1.885-.865-.679.103-.816 1.065-.816 1.065s.671-.365 1.166-.334c.188.012.855.525 1.535.134M23.724 19.213c-1.28.613-2.76.172-2.84.222.444.672 1.22 1.502 1.22 1.502s-.085-.52.4-.658c.485-.14 1.046.22 1.22-1.066"/>
        <path fill="#A09762" d="M69 40.276c-.618.524-2.73-15.819-2.73-15.819s6.584 9.788 2.73 15.82"/>
        <path fill="#525259" d="M75.103 58.41c.96.452 1.431 1.24 1.32 2.207-.32-.33-.849-1.002-1.799-1.335 0 0-.239-.762.479-.873"/>
        <path fill="#B9B073" d="M65.918 22.925c1.353 6.61 4.157 9.46 3.51 14.992-.677 5.818-2.587 4.226-2.451 9.813.067 2.73 3.094 5.18 3.343 6.832 1.354 1.775 4.653 2.898 4.784 3.847-.39.132-.299.72-.299.72s.37.097.434.604c.553.791-.198.774-.615.911-.692.23-1.688.103-1.688.103s-1.062.073-1.218-.677c-.63-.593-2.287-1.64-2.95-2.023-1.731-.943-1.064-2.394-1.236-3.382-.171-.989-1.51-3.19-1.992-4.18-.48-.99-1.568-1.319-1.959-2.7-.363-1.273.5-1.787.213-3.19-.188-2.086-2.247-4.86-1.82-7.785-1.074-2.422-5.448-6.03-6.563-11.038-1.543-6.925 9.641-8.27 10.507-2.847"/>
        <path fill="#8B813B" d="M66.431 46.45c-1.896-1.562-1.906-2.54-2.78-3.003-.042-.023-.08-.042-.12-.06.217.873.296 1.397.296 1.397.478.476 1.124 1.274 2.604 1.666"/>
        <path fill="#525259" d="M80.777 48.829c.605.506.777 1.149.514 1.822-.168-.298-.402-.866-1.02-1.286 0 0-.028-.593.506-.536"/>
        <path fill="#525259" d="M80.27 49.326c.354.705.255 1.363-.254 1.877-.035-.34-.024-.957-.425-1.586 0 0 .211-.555.679-.291M79.548 49.502c-.029.786-.432 1.316-1.125 1.522.133-.314.44-.85.391-1.594 0 0 .451-.386.734.072"/>
        <path fill="#B9B073" d="M83.51 39.823s.222 2.259-1.043 2.764c-.9.359-2.757 1.405-2.757 1.405s.02 2.977.997 4.634c.425.673-.35.823-.35.823-.222.458-.766.235-.766.235s-.545.178-.82-.256c-.033-.602-.016-1.302.11-1.992.017-.771-2.157-5.508-1.453-6.426 1.814-2.367 1.802-5.111 1.802-5.111l4.28 3.924z"/>
        <path fill="#655E2A" d="M97.736 36.1c0 .401.239.865.534 1.036.297.171.535-.017.535-.418 0-.402-.238-.866-.535-1.037-.295-.17-.534.018-.534.42"/>
        <path fill="#FFF" d="M97.736 36.208c0 .342.202.736.455.88.25.145.455-.014.455-.355 0-.34-.204-.735-.455-.88-.253-.145-.455.014-.455.355"/>
        <path fill="#C81238" d="M106.904 49.293s-5.037-1.13-9.757-6.86c-.733-.372-.966-.31-4.087-2.596 3.385 2.81 3.174 2.417 3.928 2.852 4.304 5.854 9.916 6.604 9.916 6.604"/>
        <path fill="#8B813B" d="M68.864 40.735c.185-.665-2.088-.677-3.611-1.953-1.525-1.277-1.28-3.028-1.895-3.707-.62-.68.976-3.069-.083-4.386-1.058-1.318-3.788.556-3.788.556 1.83-.577 2.636.37 2.718 1.298.08.926-1.65 1.214-.64 1.935 1.009.721 1.75 4.675 3.028 5.848 1.276 1.174 3.523 2.144 3.523 2.144s.564-1.07.748-1.735"/>
        <path fill="#8B813B" d="M68.874 32.202s-1.52.257-2.654-.35c-1.135-.607-1.957-3.84-1.605-5.38.157-.698 1.104-1.46.656-2.518-.447-1.055-1.425-1.146-2.246-1.859-.822-.716-.828-1.98-1.907-2.748-1.077-.767-3.672.057-3.672.057s1.75-.288 3.066.788c.486.396.59.954.298 1.691-.29.735-2.128 1.27-3.794.203-.85-.545-.557-1.715-2.186-2.827 1.072 1.853 1.285 4.912 2.58 5.195 1.293.283 3.434.664 5.064-.04.38.446 1.01 1.492-.515 2.576-1.527 1.084-4.04-.817-4.04-.817s1.579 2.126 2.706 2.54c1.124.411 2.053-.104 2.874.596.825.7 1.854 2.656 1.422 3.975-.431 1.317 1.765.15 2.506.35.74.2 1.758.925 2.091 2.264.099-1.79-.644-3.696-.644-3.696"/>
        <path fill="#525259" d="M75.077 59.63c.962.583 1.457 1.382 1.347 2.35-.321-.33-.85-1-1.8-1.336 0 0-.263-.904.453-1.014M73.165 59.777c.961.453 1.406 1.231 1.293 2.197-.317-.33-.82-.99-1.769-1.324 0 0-.24-.762.477-.873"/>
        <path fill="#8B813B" d="M53.318 18.964c-.232 1.48-.8 2.018-.773 2.624.087 2.08 1.59 3.137 1.59 3.137s-.686-2.617-.567-3.112c.09-.378.57-.915-.25-2.65"/>
        <path fill="#525259" d="M51.28 37.582c.8.696 1.017 1.565.647 2.467-.218-.406-.523-1.178-1.344-1.758 0 0-.023-.797.698-.709"/>
        <path fill="#525259" d="M52.816 38.008c.779.722.967 1.598.568 2.486-.205-.413-.485-1.195-1.287-1.8 0 0 .004-.797.719-.686M53.728 37.335c.768.733.944 1.612.531 2.494-.196-.415-.465-1.2-1.26-1.817 0 0 .016-.799.729-.677"/>
        <path fill="#FFF" d="M101.959 47.969L102.52 47.259 101.621 46.651zM102.857 48.629L103.459 47.826 102.521 47.259z"/>
        <path fill="#FFF" d="M103.67 48.95L104.415 48.333 103.458 47.825zM104.615 49.448L105.329 48.749 104.416 48.333zM105.527 49.911L106.276 49.109 105.329 48.75zM106.315 50.021L106.904 49.293 106.276 49.108zM101.035 47.309L101.621 46.651 100.75 45.992zM100.137 46.536L100.749 45.992 99.879 45.265zM99.141 45.653L99.879 45.265 99.04 44.487zM98.3 44.9L99.04 44.487 98.245 43.683z"/>
        <path fill="#FFF" d="M97.482 44.127L98.246 43.683 97.552 42.911z"/>
        <path fill="#0E0E0F" d="M98.03 36.473c0 .266.055.482.12.482.067 0 .12-.216.12-.482s-.053-.482-.12-.482c-.065 0-.12.216-.12.482"/>
        <path fill="#000" d="M114.564 78.811c-1.624.885.246 3.67 4.178 6.222 3.93 2.55 8.433 3.901 10.056 3.016 1.625-.885-.246-3.67-4.177-6.222-3.931-2.55-8.434-3.9-10.057-3.016"/>
        <path fill="#AD8162" d="M129.716 80.739c.467 1.336 1.842 3.145 1.874 3.429l.001.012c.057.199.428.83.361 1.386-.006.05-.007.1-.006.153.004.039.006.08.006.125.041.44.235.895.041 1.155 0 0-.086.13-.242.134-.445.009-.936-.254-.91-1.15.013-.408.24-.592.24-.592s-.21-.552-.117-1.091c-.045-.047-1.437-1.642-1.853-2.891-.075-.316.491-.944.605-.67M120.91 74.048s-.282.433-.43.588c-.146.157-1.693-1.341-2.845.326-.603.87-2.075-.276-2.553 1.884-.078.356-.393.34-.358.816.038.474 1.192.364 1.278-.03.086-.388.356-.303.699-.56.375-.278.602-.714 1.3-.594.95.164 1.792.61 1.792.61l1.596-.015s.71.482 2.884-.22c.147-.58-3.362-2.805-3.362-2.805"/>
        <path fill="#AD8162" d="M118.053 80.44s.316-.209.333-.422c-.008-.702-.895-.47-2.096-1.256-.212-.14-.363-.782-.289-1.13-.133-.456-.813.671-.813.671l2.353 2.296.512-.16z"/>
        <path fill="#525259" d="M118.3 79.934s.21.23-.006.63c-.099-.173-.443-.243-.443-.243s.011-.455.45-.387"/>
        <path fill="#AD8162" d="M115.604 77.79c.013.055.014.421.036.483.235.634 1.459 1.178 1.916 1.664.469.5.873.734.586 1.019-.448.447-.746-.013-.746-.013s-.644.806-1.513-.797c-.633-1.171-1.056-1.32-1.159-2.484l.88.128z"/>
        <path fill="#525259" d="M117.312 80.767s.172.231-.064.581c-.076-.169-.386-.264-.386-.264s.051-.42.45-.317M118.11 80.645s.212.264-.05.684c-.095-.196-.463-.296-.463-.296s.04-.493.514-.388"/>
        <path fill="#000" d="M117.855 80.237s.085-.42-1.176-.916c.994.534 1.176.916 1.176.916M117.312 80.767s.165-.608-1.131-1.146c.961.552 1.131 1.146 1.131 1.146"/>
        <path fill="#6B360B" d="M128.783 81.811c4.78.363 1.734-3.364 4.99-4.418.753-.14 1.492.531 1.492.531v-1.22l-2.564-2.53-1.283-.695v.457s.65.447.6.914c-.047.468-.635 1.868-1.63 1.44-3.39-1.343-3.371-8.54-11.361-8.654-3.322-.802-9.296-5.289-16.815-5.176 6.774.548 13.493 5.448 17.807 7.33 2.289 1 3.57 2.556 4.258 3.328.688.772 2.003 2.417 2.684 3.077 1.064 1.03 1.822 5.616 1.822 5.616"/>
        <path fill="#E0A781" d="M102.211 62.46c-.196.208 7.984 1.663 14.17 8.936 1.915 2.253.335 1.894 3.746 5.271.565.56 1.845 1.352 2.525 2.155 2.27 1.926 3.806 2.611 3.806 2.611s2.152-.178 2.686-.023c0 0 1.855-1.385-.746-4.134-1.538-1.624-3.872-4.83-6.284-6.583-2.738-1.992-5.56-2.399-6.576-3.093-8.515-5.528-13.327-5.14-13.327-5.14"/>
        <path fill="#6B360B" d="M129.144 81.41c2.895.84 2.523-3.238 3.886-3.492.751-.139 1.532.416 1.532.416l-.043-1.104-2.563-2.53-1.283-.696v.458s.651.446.602.914c-.049.467-1.159 1.902-2.233 1.555-2.295-.744-4.595-7.405-11.287-8.859-3.322-.802-8.18-5.706-15.544-5.612 9.759 1.408 11.405 6.144 15.621 8.163 2.253 1.08 3.644.948 4.865 2.965.534.885.408 1.74.997 2.476.589.737.835-.51 1.515.15 1.064 1.03-.132 1.646.601 2.191.541.402.828-.825 1.547-.367 2.664 1.695 1.787 3.372 1.787 3.372"/>
        <path fill="#FF8500" d="M135.04 78.72c-.446-.174-.868-.95-.868-.95l.655.083.242-.174c-.071-.202-.108-.364-.108-.364l.792.389s.18.423.114.64v.003c-.06.352-.394.442-.683.407-.03-.002-.058-.006-.087-.014l-.002-.001c-.004 0-.006-.001-.007-.002l-.046-.015-.002-.002"/>
        <path fill="#D36000" d="M134.171 77.77l.656.083.241-.175c-.07-.202-.108-.364-.108-.364l.793.39s.42.746-.666.7c-.466-.02-.916-.634-.916-.634"/>
        <path fill="#FF8500" d="M127.884 73.795s.504-.723 1.568-1c.044-.012 0 0 0 0 .522-.13 1.354-.06 2.635.68 1.535.885 4.037 3.577 4.074 4.094V77.605c0 .007 0 .015-.002.022-.03.327-.633.576-.959.576-.334.001-1.029-.433-1.029-.433s.145-.557-.102-.782c-3.919-3.905-5.629-2.626-5.629-2.626s-.257.278-.475.066c-.303-.295-.08-.633-.08-.633"/>
        <path fill="#2C2C30" d="M129.377 72.816c-.33.577 0 .988 0 .988s-.56-.398-.308-.882c.104-.054.274-.096.308-.106M130.734 72.871c-.684.075-.445 1.14-.445 1.14s-.59-.966.058-1.228c.072-.002.346.076.387.088M132.55 73.775c-.68-.013-.896.92-.896.92s-.063-.933.621-1.107c.045.01.238.16.275.187M131.756 73.293c-.68-.013-.8.97-.8.97s-.246-.973.438-1.145c.158.04.325.149.362.175M134.298 75.27c-.465.074-.998.707-.998.707s.174-.694.755-.94l.243.233M133.46 74.496c-.465.076-1.03.75-1.03.75s.175-.736.756-.981c.034.032.217.177.274.231"/>
        <path fill="#AD8162" d="M126.462 81.412c-.359-.158.248-1.415.248-1.415s.11 1.572-.248 1.415"/>
        <path fill="#E0A781" d="M129.176 80.465c.425 1.516-1.194 1.616-1.194 1.616s-.616.368-.738.99c-.342 1.716-1.446 1.97-1.104 3.699.051.256 1.006 1.063.63 1.167-.189-.11-.986-.21-1.186-.512-.246-.78-.032-.934-.032-1.717-.002-.486-.123-1.105.331-1.806.155-.242.024-.885.085-1.02.981-2.176.332-3.146 1.31-3.513.32-.12 1.68.65 1.898 1.096"/>
        <path fill="#411F0F" d="M132.572 76.054c0 .137.108.309.24.386.133.077.24.028.24-.11 0-.135-.107-.308-.24-.385-.132-.077-.24-.027-.24.109"/>
        <path fill="#F5F5F5" d="M132.576 76.089c0 .105.082.237.185.296.1.059.184.02.184-.084 0-.105-.084-.237-.184-.295-.103-.06-.185-.021-.185.083"/>
        <path fill="#2C2C30" d="M132.726 76.213c0 .082.02.149.043.149.023 0 .044-.067.044-.15 0-.082-.02-.148-.044-.148-.023 0-.043.066-.043.149"/>
        <path fill="#AD8162" d="M120.182 76.66s-1.237-4.89-1.487-4.668c-.775 1.695 1.487 4.669 1.487 4.669M122.654 78.822s.85-1.399.225-3.417c-.961-.38-.537 3.342-.225 3.417"/>
        <path fill="#E0A781" d="M119.119 82.56s.378-.04.49-.221c.315-.628-.638-.84-1.304-2.111-.21-.398-.336-.698-.301-.879.092-.467-.451 0-.451 0l1.039 3.119.527.092z"/>
        <path fill="#525259" d="M119.554 82.255s.094.287-.246.581c-.078-.279-.31-.406-.31-.406s.178-.389.556-.175"/>
        <path fill="#E0A781" d="M122.925 75.109c-.262 1.219.111 4.25-.736 4.42-1.455.293-4.018-1.667-4.22 0-.083.67.757 1.716.938 2.357.188.66.44 1.053.055 1.174-.603.192-.658-.353-.658-.353s-.94.422-.979-1.401c-.027-1.333-.617-2.107-.609-2.763.004-.304.45-.356 1.186-.638.9-.344 1.21-1.625 2.225-1.237.378.227-1.325-2.324-1.473-5.158.166-.104 4.06 3.05 4.271 3.599"/>
        <path fill="#525259" d="M118.31 82.512s0 .267-.379.451c.02-.184-.168-.403-.168-.403s.254-.337.547-.048M119.062 82.8s.041.271-.361.535c-.067-.339-.255-.428-.255-.428s.246-.387.616-.107"/>
        <path fill="#AD8162" d="M119.035 82.29s.27-.334-.624-1.354c.64.931.624 1.353.624 1.353M118.31 82.512s.426-.465-.479-1.537c.6.93.48 1.537.48 1.537"/>
        <path fill="#E0A781" d="M125.7 87.168c.052-.029.114-.047.185-.059l-.164-.407.49-1.312s-.051.59.14 1.07c.192.482.778.815.77 1.21 0 0 .02.18-.12.248-.24.122-.713.077-1.073-.13-.358-.208-.46-.486-.227-.62"/>
        <path fill="#411F0F" d="M112.826 87.941c0 .87-.04 1.67-.1 2.4-1.35-5-15.38 1.87-16.93-6.32-1.64-8.6-16.05-13.13-26.17-12.45-10.12.69-6.36 7.57-16.2 10.74-1.05.34-1.77.78-2.21 1.29-1.08-1.94-.66-3.62 2.21-4.54 9.84-3.17 6.08-10.05 16.2-10.74 10.12-.69 24.53 3.84 26.17 12.45 1.63 8.6 17.03.59 17.03 7.17"/>
        <path fill="#00AAA0" d="M112.726 90.341c-1.02 10.8-9.24 7.81-18.15 12.46-11.77 6.15-15.01-6.82-22.39-7.57-6.86-.7-18.36-6.93-20.97-11.63.44-.51 1.16-.95 2.21-1.29 9.84-3.17 6.08-10.05 16.2-10.74 10.12-.68 24.53 3.85 26.17 12.45 1.55 8.19 15.58 1.32 16.93 6.32"/>
        <path fill="#00D3C2" d="M56.864 86.5c4.378-3.032 12.74-8.21 12.74-8.21s-7.778 1.428-12.74 8.21M69.007 83.167c4.378-3.032 12.741-8.21 12.741-8.21s-7.78 1.428-12.74 8.21M65.109 89.75c3.134-2.17 9.12-5.878 9.12-5.878s-5.568 1.023-9.12 5.877M77.943 84.748c3.133-2.17 9.12-5.877 9.12-5.877s-5.57 1.023-9.12 5.877M76.776 90.071c3.134-2.17 9.12-5.877 9.12-5.877s-5.568 1.023-9.12 5.877M84.899 89.75c3.134-2.17 9.12-5.878 9.12-5.878s-5.568 1.023-9.12 5.877M79.455 97.795c3.135-2.17 9.12-5.877 9.12-5.877s-5.567 1.023-9.12 5.877M87.617 97.192c3.133-2.17 9.12-5.877 9.12-5.877s-5.57 1.023-9.12 5.877M100.654 97.192c3.134-2.17 9.12-5.877 9.12-5.877s-5.568 1.023-9.12 5.877M87.617 101.928c3.133-2.17 9.12-5.877 9.12-5.877s-5.57 1.023-9.12 5.877"/>
        <path fill="#411F0F" d="M169.766 63.351c-.18-.73-.569-1.39-1.29-1.94-2.35-1.81-1.84-3.95-8.18-4.85-6.349-.9-9.15-1.94-12.72-4.63-3.56-2.7-9.08-8.39-11.789-10.69-2.71-2.31-9.89-7.18-13.33-6.56-1.23.22-2.42 1.18-2.91 2.56-.882-2.77.95-4.98 2.91-5.33 3.44-.62 10.62 4.25 13.33 6.56 2.708 2.31 8.23 8 11.79 10.69 3.57 2.69 6.37 3.73 12.72 4.63 6.34.9 5.83 3.04 8.18 4.85 1.57 1.22 1.57 2.93 1.29 4.71M120.236 41.461c-1.8 1.19-5.87 1.5-3.48 3.76.13.13.25.26.34.4 1.47-.736 3.939-1.21 3.929-2.569h.002v-2.669c-.018.183-.133.608-.791 1.078"/>
        <path fill="#00AAA0" d="M169.766 63.351c-.149.87-.36 1.77-.489 2.63-.41 2.6-4.1 2.19-8.98 2.15-4.89-.05-4.97 3.38-8.06 5.03-2.9 1.55-6.79-1.88-11.85-.69-2.86.67-13.88-5.64-15.73-8.33-.22-.31-.35-.65-.45-1.01-.19-.8-.11-1.69-.01-2.59v-.01c.2-2.1.468-4.21-2.57-5.26-2.74-.94-3.76-2.18-4.07-3.5-.2-.82-.13-1.68-.03-2.52.138-1.32.33-2.6-.43-3.63 1.478-.739 3.967-1.214 3.931-2.59l.001-2.776c-.01-.316-.153-.679-.473-1.104-.49-.65-.82-1.3-1.01-1.91.491-1.38 1.68-2.34 2.91-2.56 3.44-.62 10.62 4.25 13.331 6.56 2.708 2.3 8.23 7.99 11.79 10.69 3.57 2.69 6.37 3.73 12.72 4.63 6.34.9 5.83 3.04 8.18 4.85.72.55 1.11 1.21 1.29 1.94"/>
        <path fill="#00D3C2" d="M122.124 43.855c2.748-1.903 7.995-5.152 7.995-5.152s-4.882.896-7.995 5.152M118.386 50.357c2.748-1.903 7.996-5.152 7.996-5.152s-4.882.896-7.996 5.152M126.915 48.236c2.748-1.903 7.996-5.152 7.996-5.152s-4.881.896-7.996 5.152M122.918 54.57c2.747-1.903 7.995-5.152 7.995-5.152s-4.882.896-7.996 5.152M131.267 52.545c2.747-1.903 7.995-5.152 7.995-5.152s-4.882.896-7.995 5.152M125.193 60.855c2.748-1.903 7.996-5.152 7.996-5.152s-4.883.896-7.996 5.152M135.417 57.424c3.148-2.18 9.16-5.902 9.16-5.902s-5.594 1.027-9.16 5.902M131.583 65.41c3.147-2.18 9.159-5.902 9.159-5.902s-5.593 1.027-9.16 5.902M142.965 61.605c3.147-2.18 9.16-5.902 9.16-5.902s-5.593 1.027-9.16 5.902M140.34 70.35c3.147-2.18 9.16-5.902 9.16-5.902s-5.593 1.027-9.16 5.902M151.718 65.775c3.148-2.18 9.16-5.902 9.16-5.902s-5.593 1.027-9.16 5.902M159.074 66.45c2.136-1.479 6.215-4.005 6.215-4.005s-3.795.697-6.215 4.005"/>
        <path fill="#000" d="M68.019 100.962c1.348.78 3.535.78 4.883 0 1.348-.778 1.349-2.04 0-2.819-1.348-.779-3.535-.779-4.883 0-1.35.778-1.35 2.041 0 2.82"/>
        <path fill="#525259" d="M77.013 96.287c-.008.216-.122.402-.312.459 0 0 .216-.156.11-.459 0 0 .124-.125.202 0"/>
        <path fill="#525259" d="M77.2 96.303c-.008.216-.116.41-.306.465 0 0 .216-.155.109-.458 0 0 .12-.133.198-.007"/>
        <path fill="#525259" d="M77.359 96.21c.064.208.025.425-.137.54 0 0 .154-.217-.047-.468 0 0 .069-.164.184-.072"/>
        <path fill="#525259" d="M77.507 96.138c.11.186.107.377-.02.528 0 0 .095-.247-.158-.445 0 0 .045-.146.178-.083"/>
        <path fill="#D36000" d="M75.585 93.398l.021 1.622s.76.466 1.196.48c.33.017.705.638.705.638s.012.135-.134.119c-.044.112-.173.053-.173.053s-.096.119-.19.013c-.095.078-.199-.036-.199-.036s-.198-.446-.186-.581c-.1-.068-1.212-.135-1.402-.378-.19-.244-.458-1.985-.458-1.985s-.162-.64.29-.493c.45.146.53.548.53.548"/>
        <path fill="#000" d="M77.011 96.313s.016-.104-.096-.369c.187.214.096.37.096.37M77.197 96.3s.003-.105-.142-.355c.212.188.142.354.142.354M77.362 96.25s-.011-.106-.187-.334c.235.16.187.333.187.333"/>
        <path fill="#D36000" d="M71.066 92.817s.414.587.266 1.1c-.29.991-2.557-.483-2.598-.403-.033.158 1.482 2.094 1.498 2.454.156.272-.582-.063-.582-.063s-1.754-2.595-1.808-2.772c-.053-.176.056-.403.056-.403s1.21.191 1.31-.177c.058-.219.178-1.213.178-1.213l1.68 1.477z"/>
        <path fill="#BDBFC1" d="M76.986 90.305c-1.164.155-.548 2.003-1.096 2.551-.14.14-.151 2.11-1.414 1.393-1.652-.937-.176-2.248-.176-2.248l.983.055.579-1.718s1.44-.458 1.124-.033"/>
        <path fill="#BDBFC1" d="M75.49 94.092c-.41.571-1.031.694-1.441.692-.176 0-.35-.755-.35-.755l1.135-.676s.752.53.656.74"/>
        <path fill="#FF8500" d="M81.49 93.121s-1.443-1.31-2.628-2.678c0 0-.042-.341-.226-.525-2.392-1.718-3.033 3.175-4.896 2.495-.64-.233-.8-.129-1.508-.477-.71-.347-.795-.738-1.317-1.05-.523-.313-.79-.167-.79-.167l-3.393-1.307s-6.654-5.444-6.695-8.864c.3.912.766 1.285.766 1.285 1.572 2.784 3.064 4.47 6.697 6.758 2.94-.621 6.344 2.354 6.344 2.354s.55.1.955.505c.943-.123.379-3.824 3.656-2.07.16.086.705.013 1.129.383.424.37.825 1.438 1.068 1.647.914.739.838 1.712.838 1.712"/>
        <path fill="#FF8500" d="M76.63 88.947c-.659.152-1.049.57-1.049.57l.076.363 1.09-.514s.072-.462-.117-.42"/>
        <path fill="#BDBFC1" d="M81.068 93.113s-.175.083-.49-.171c-.25-.203-.985-1.002-1.207-1.13-.223-.128-.787-.306-1.305-1.018-2.088-1.75-2.158 1.665-3.073 2.58-.14.139-.163 1.962-1.426 1.247-1.653-.937-3.017-1.231-3.017-1.231s-.78.308-1.205.096c-.442.042-.8.015-1.271-.285-.948-.601-1.13-1.596-1.371-2.024-.703-1.285-5.524-5.902-6.947-10.063.01-.418.414.437.414.437s1.378 2.814 4.052 5.562c.84.864 3.258 2.748 3.258 2.748l1.48.425 4.444 2.233.982.055.58-1.72.969-1.134.849-.131 1.644.575 1.212 1.198 1.024 1.056.404.695z"/>
        <path fill="#FF8500" d="M69.228 91.236s.297 2.368-.03 3.203c-.376.958-.978 1.524-.978 1.524.118 1.356 1.242 3.029 1.272 3.176.332.482.006.97-.379.747-.308-.195-.475-1.086-.475-1.086s-1.232-2.695-1.306-3.257c-.074-.561.745-1.84.767-2.184-.271-.335-.74-1.314-1.225-3.242-.039-.155.143-.62.988-.342 1.247.41 1.366 1.46 1.366 1.46"/>
        <path fill="#525259" d="M75.123 96.862c.012.216-.086.411-.27.483 0 0 .2-.158.067-.45 0 0 .115-.15.203-.033"/>
        <path fill="#525259" d="M74.913 96.89c.01.216-.085.412-.27.484 0 0 .2-.157.068-.45 0 0 .113-.152.202-.034M74.72 96.908c-.148.156-.356.22-.537.137 0 0 .253.035.374-.262 0 0 .188-.02.163.125M75.279 96.764c.078.202.047.417-.105.543 0 0 .14-.212-.077-.448 0 0 .06-.18.182-.095"/>
        <path fill="#FF8500" d="M74.312 93.96l-.639 1.062s.541.607 1.024.912c.42.203.586.814.586.814s.056.152-.156.14c-.029.147-.204.033-.204.033s-.139.148-.223 0c-.182.058-.176-.06-.154-.124.068-.191-.119-.48-.015-.638-.1-.107-1.298-.912-1.412-1.2-.114-.287.298-1.592.298-1.592s.127-.611.601-.245c.55.423.294.839.294.839"/>
        <path fill="#FF8500" d="M81.232 93.27s-1.37-.948-2.64-2.706c0 0-.353-.126-.538-.31-2.392-1.718-3.012 1.812-3.506 2.77-.113.222-.45 1.292-.45 1.292s-.653-1.07-1.255-1.385c-.601-.316-.8-.13-1.507-.476-.71-.348-.795-.74-1.318-1.051-.522-.312-.79-.168-.79-.168l-2.353-1.12S61.628 86 59.644 80.813c-.768-2.44-.092-3.864-.092-3.864s-.412 1.9 1.25 4.886c1.207 2.165 2.838 4.93 6.139 7.125 3.774.422 6.006 2.503 6.006 2.503s.553.1.955.505c.943-.122.916-4.156 4.193-2.405.16.087.41.043.834.413.424.369 1.043 1.503 1.285 1.713.916.739 1.018 1.582 1.018 1.582"/>
        <path fill="#D36000" d="M78.816 90.342c0 .1.078.223.175.28.095.054.174.02.174-.079 0-.098-.08-.223-.174-.279-.097-.056-.175-.02-.175.078"/>
        <path fill="#FFF" d="M78.816 90.365c0 .085.068.194.15.243.086.048.155.018.155-.068 0-.086-.07-.195-.154-.243-.083-.048-.151-.018-.151.068"/>
        <path fill="#0E0E0F" d="M78.931 90.443c0 .065.014.119.03.119.017 0 .03-.054.03-.12 0-.064-.013-.118-.03-.118-.016 0-.03.054-.03.119"/>
        <path fill="#FF8500" d="M81.49 93.121c0 .229-.205.208-.258.148-.034-.035-.518-.64-.518-.64l.253-.306s.523.665.523.799"/>
        <path fill="#D36000" d="M75.127 96.888s-.032-.14-.125-.412c.146.228.125.412.125.412M74.923 96.921s.023-.102-.07-.374c.172.225.07.374.07.374M74.7 96.922s.057-.09-.011-.375c.145.228.01.375.01.375"/>
        <path fill="#525259" d="M70.537 100.007c.207.097.307.265.283.473-.068-.071-.181-.215-.385-.286 0 0-.051-.164.102-.187"/>
        <path fill="#FF8500" d="M69.492 99.139c.306.445 1.018.665 1.045.868-.082.028-.063.153-.063.153s.079.022.092.13c.119.17-.041.166-.131.196-.148.049-.361.022-.361.022s-.228.015-.262-.146c-.134-.126-.488-.351-.631-.432-.37-.202-.238-.551-.275-.763l.586-.028z"/>
        <path fill="#525259" d="M70.533 100.267c.205.126.31.297.287.504-.068-.07-.182-.215-.385-.285 0 0-.056-.195.098-.219M70.123 100.3c.206.097.3.263.277.47-.068-.071-.175-.212-.38-.283 0 0-.05-.164.103-.187M71.13 96.987c.19.127.264.31.207.51-.057-.08-.146-.24-.336-.342 0 0-.025-.169.13-.168"/>
        <path fill="#D36000" d="M70.232 95.968c.234.487.902.813.898 1.02-.086.014-.086.141-.086.141s.076.032.073.142c.09.186-.07.157-.16.173-.155.025-.362-.034-.362-.034s-.226-.02-.234-.184c-.114-.146-.43-.422-.558-.525-.335-.255-.092-.596-.253-.94l.682.207z"/>
        <path fill="#525259" d="M71.085 97.244c.184.155.263.34.207.541-.057-.08-.146-.239-.336-.34 0 0-.026-.2.13-.2M70.676 97.213c.188.126.257.306.201.507-.056-.081-.14-.237-.33-.34 0 0-.026-.167.13-.167"/>
    </g>
</svg>
