<svg xmlns="http://www.w3.org/2000/svg" xmlns:xlink="http://www.w3.org/1999/xlink" width="182" height="164" viewBox="0 0 182 164">
    <defs>
        <path id="prefix__a" d="M0.001 0.096L181.363 0.096 181.363 104 0.001 104z"/>
        <path id="prefix__c" d="M0.682 0.305L50.363 0.305 50.363 23.626 0.682 23.626z"/>
        <path id="prefix__e" d="M0 0.929L181.363 0.929 181.363 105.639 0 105.639z"/>
        <path id="prefix__g" d="M0.512 0.93L118.363 0.93 118.363 73.242 0.512 73.242z"/>
        <path id="prefix__i" d="M0.513 0.668L118.363 0.668 118.363 72.982 0.513 72.982z"/>
    </defs>
    <g fill="none" fill-rule="evenodd">
        <g transform="translate(0 59.999)">
            <mask id="prefix__b" fill="#fff">
                <use xlink:href="#prefix__a"/>
            </mask>
            <path fill="#6B360B" d="M146.132 30.157L96.44 1.466c-3.168-1.829-8.351-1.829-11.518 0l-49.69 28.69-35.232.148v21.392h.003c.022 1.188.81 2.372 2.374 3.272l82.545 47.66c3.167 1.828 8.352 1.828 11.518 0l82.545-47.66c1.564-.9 2.349-2.084 2.372-3.273l.005-21.54h-35.231z" mask="url(#prefix__b)"/>
        </g>
        <g transform="translate(131 89.999)">
            <mask id="prefix__d" fill="#fff">
                <use xlink:href="#prefix__c"/>
            </mask>
            <path fill="#008300" d="M0.682 0.447L50.364 0.305 49.196 7.393 48.182 5.946 48.182 7.393 46.594 6.526 45.578 10.141 44.135 7.973 42.832 11.009 40.808 9.499 39.796 14.767 37.772 13.057 37.05 15.848 35.315 14.478 34.736 18.867 31.845 15.057 31.121 19.402 29.242 17.403 28.518 19.402 26.927 18.867 26.619 22.049 24.932 19.188 24.494 23.376 22.682 21.501 21.369 23.626 19.178 20.243z" mask="url(#prefix__d)"/>
        </g>
        <g transform="translate(0 36.999)">
            <mask id="prefix__f" fill="#fff">
                <use xlink:href="#prefix__e"/>
            </mask>
            <path fill="#A84E00" d="M96.44 104.268c-3.166 1.828-8.35 1.828-11.518 0L2.377 56.61c-3.17-1.83-3.17-4.822 0-6.651L84.922 2.3C88.09.47 93.272.47 96.44 2.3l82.546 47.658c3.17 1.829 3.17 4.822 0 6.65L96.44 104.269z" mask="url(#prefix__f)"/>
        </g>
        <path fill="#CD6100" d="M58.442 68.288c-1.752 1.012-4.593 1.012-6.346 0-1.752-1.012-1.752-2.652 0-3.664 1.753-1.012 4.595-1.01 6.346 0 1.753 1.012 1.753 2.652 0 3.664M36.021 102.429c-1.752 1.013-4.593 1.012-6.346 0-1.752-1.012-1.752-2.651 0-3.663 1.753-1.013 4.595-1.012 6.346 0 1.753 1.012 1.753 2.651 0 3.663M83.744 132.266c-1.752 1.013-4.593 1.012-6.346 0-1.752-1.012-1.752-2.651 0-3.663 1.753-1.013 4.595-1.012 6.346 0 1.753 1.012 1.753 2.65 0 3.663M94.272 134.003c-.937.54-2.454.54-3.39 0-.936-.54-.936-1.417 0-1.957s2.453-.54 3.39 0c.936.54.936 1.417 0 1.957M100.382 116.874c-.936.54-2.453.54-3.39 0-.935-.54-.935-1.417 0-1.957.937-.54 2.454-.54 3.39 0 .937.54.937 1.417 0 1.957M135.365 113.026c-.936.54-2.453.54-3.389 0-.936-.54-.936-1.417 0-1.957s2.453-.54 3.39 0c.936.54.936 1.417 0 1.957M81.42 77.118c-.936.54-2.453.54-3.39 0-.935-.54-.935-1.417 0-1.957.937-.54 2.454-.54 3.39 0 .937.54.937 1.417 0 1.957"/>
        <path fill="#8A3F00" d="M67.782 109.157c-.936.54-2.453.54-3.39 0-.935-.54-.935-1.417 0-1.956.937-.541 2.454-.541 3.39 0 .937.539.937 1.416 0 1.957M53.479 75.437c-.936.539-2.453.539-3.389 0-.936-.541-.936-1.418 0-1.957.936-.541 2.453-.541 3.389 0 .937.539.937 1.416 0 1.957M24.69 96.865c-.717.413-1.879.413-2.597 0-.717-.414-.717-1.087 0-1.5.718-.414 1.88-.414 2.597 0 .718.413.718 1.086 0 1.5M77.289 124.087c-.936.54-2.453.54-3.389 0-.936-.54-.936-1.418 0-1.957.936-.54 2.453-.54 3.389 0 .937.54.937 1.416 0 1.957M72.727 72.646c-1.64.945-4.3.945-5.94 0-1.642-.95-1.642-2.486 0-3.431 1.64-.948 4.3-.948 5.94 0 1.642.945 1.642 2.482 0 3.43M90.611 121.11c-2.125 1.226-5.57 1.226-7.695 0-2.129-1.23-2.129-3.221 0-4.444 2.124-1.23 5.57-1.23 7.695 0 2.128 1.223 2.128 3.215 0 4.445"/>
        <path fill="#CD6100" d="M59.909 60.52c-.936.54-2.453.54-3.39 0-.935-.54-.935-1.418 0-1.958.937-.54 2.454-.54 3.39 0 .937.54.937 1.417 0 1.957M15.21 93.41c-.937.54-2.454.54-3.39 0-.936-.54-.936-1.417 0-1.958.937-.54 2.454-.54 3.39 0 .936.541.936 1.418 0 1.957M78.289 113.026c-.936.54-2.453.54-3.389 0-.936-.54-.936-1.417 0-1.957s2.453-.54 3.389 0c.937.54.937 1.417 0 1.957M59.019 85.791c-1.601.924-4.198.924-5.799 0-1.603-.924-1.603-2.425 0-3.349 1.601-.924 4.198-.924 5.799 0 1.603.924 1.603 2.425 0 3.35"/>
        <path fill="#8A3F00" d="M76.504 102.172c-1.601.925-4.198.925-5.8 0-1.602-.924-1.602-2.425 0-3.349 1.602-.923 4.199-.923 5.8 0 1.603.924 1.603 2.425 0 3.35M44.337 93.246c-1.6.925-4.198.925-5.799 0-1.603-.924-1.603-2.425 0-3.349 1.601-.923 4.198-.923 5.8 0 1.602.924 1.602 2.425 0 3.35"/>
        <path fill="#CD6100" d="M67.255 118.954c-1.6.924-4.198.924-5.799 0-1.603-.924-1.603-2.426 0-3.35 1.601-.923 4.198-.923 5.8 0 1.602.924 1.602 2.426 0 3.35M106.097 127.15c-1.601.925-4.198.925-5.8 0-1.601-.923-1.601-2.425 0-3.35 1.602-.922 4.199-.922 5.8 0 1.603.925 1.603 2.427 0 3.35M46.183 77.412c-1.6.924-4.198.924-5.8 0-1.6-.924-1.6-2.426 0-3.35 1.602-.923 4.2-.923 5.8 0 1.603.924 1.603 2.426 0 3.35M127.509 118.617c-2.603 1.502-6.823 1.502-9.425 0-2.604-1.504-2.604-3.94 0-5.443 2.602-1.503 6.822-1.503 9.425 0 2.604 1.502 2.604 3.94 0 5.442M32.176 89.955c-2.603 1.503-6.823 1.503-9.425 0-2.604-1.503-2.604-3.94 0-5.442 2.602-1.503 6.822-1.503 9.425 0 2.604 1.502 2.604 3.94 0 5.442M83.55 91.159c-2.603 1.502-6.823 1.502-9.425 0-2.604-1.504-2.604-3.94 0-5.443 2.602-1.502 6.822-1.502 9.425 0 2.604 1.503 2.604 3.94 0 5.443"/>
        <g transform="translate(63 36.999)">
            <mask id="prefix__h" fill="#fff">
                <use xlink:href="#prefix__g"/>
            </mask>
            <path fill="#008300" d="M118.363 49h-4.037L33.44 2.301c-3.168-1.829-8.35-1.829-11.517 0l-21.41 8.1v4.261C4.055 18.25-3.57 24.714 14.43 29.628S29.514 53.75 44.014 65.75c14.5 12 29.334.333 43.163 7.492l17.171-8.277 11.638-8.356c1.425.12 2.424-2.205 2.366-3.453h.011V49z" mask="url(#prefix__h)"/>
        </g>
        <g transform="translate(63 32.999)">
            <mask id="prefix__j" fill="#fff">
                <use xlink:href="#prefix__i"/>
            </mask>
            <path fill="#00C03F" d="M87.178 72.982c-13.83-7.16-28.663 4.508-43.163-7.492-14.5-12-11.583-31.21-29.583-36.122-18-4.914-10.375-11.378-13.92-14.966L21.923 2.04c3.168-1.83 8.35-1.83 11.519 0l82.546 47.657c3.169 1.829 3.169 4.822 0 6.65l-28.81 16.634z" mask="url(#prefix__j)"/>
        </g>
        <path fill="#000" d="M151.35 75.48c2.083.113 3.855-.464 3.855-.464-.643-.308-2.316-1.348-3.475-1.331.36-.864.385-.906.732-1.51-.888.008-1.695.104-2.508.436l-.281-.145c.318-.59.718-1.244 1.463-1.75-.941.066-2.413.342-3.5.825-.642-.243-1.281-.413-1.87-.462-.084-.114-.16-.23-.233-.347.479-1.143.562-1.291 1.1-2.225-1.78.015-3.363.204-5.006 1.073.59-1.12 1.27-2.508 2.775-3.527-2.131.145-5.88.93-7.488 2.352-1.03-1.015-2.07-2.207-2.53-3.462-.722.715-1.487 2.204-.965 3.582-1.028-.648-1.937-1.432-2.383-2.453-.041.038-.068.078-.116.117l-.01.009c-1.708 1.498-1.37 3.635-.061 5.225-1.426.629-2.706 1.757-2.898 2.952 0 .056-.02.104-.025.15.995-.043 2 0 2.894.037-1.15 1.587-1.538 3.688-.287 4.718.803-1.06 2.093-1.691 3.34-2.21.953 1.38 2.426 2.715 3.815 3.095-.581-1.131-.45-2.061-.218-2.867 2.222 1.387 5.532 2.877 8.085 2.867-.448-1.216-.896-1.884-1.426-2.55.246-.128.499-.246.75-.351.567.82 1.443 1.613 2.267 1.838-.344-.672-.267-1.224-.128-1.703 1.319.824 3.286 1.709 4.804 1.703-.444-1.204-.885-1.504-1.557-2.397 1.137.403 2.376.64 3.14.61-1.03-1.14-1.505-1.365-2.054-1.834"/>
        <path fill="#6B360B" d="M131.67 67.905c0 4.167 3.38 7.547 7.547 7.547 4.168 0 7.547-3.38 7.547-7.547 0-4.168-3.38-7.547-7.547-7.547s-7.546 3.379-7.546 7.547"/>
        <path fill="#000" d="M133.756 77.177l.012-.01c-.003.004-.005.005-.012.01"/>
        <path fill="#000" d="M133.768 77.155v.012c-.005.003-.007.007-.012.009 0-.006 0-.008.012-.021"/>
        <path fill="#FF9F03" d="M135.605 62.532c0 1.996 1.617 3.612 3.612 3.612 1.994 0 3.612-1.617 3.612-3.612 0-1.994-1.618-3.611-3.613-3.611-1.995 0-3.612 1.617-3.612 3.611"/>
        <path fill="#009700" d="M137.972 58.544c-2.436 4.118-4.984.561-10.224 1.923 1.516-2.817 12.656-6.045 10.224-1.923"/>
        <path fill="#008300" d="M137.64 58.592c-.213.354-3.63-1.189-7.946.708 4.86-2.266 8.155-1.072 7.946-.708M129.693 59.3c-.499.234-1.017.504-1.55.815.53-.325 1.045-.59 1.55-.815"/>
        <path fill="#009700" d="M136.624 52.667c4.307.156 8.283 5.082 3.418 5.48-4.871.39-3.135-2.46-3.418-5.48"/>
        <path fill="#008300" d="M137.905 53.242c-.312-.194-.66-.384-1.054-.562.407.17.751.359 1.054.562M139.946 57.961c-.427.03.688-2.894-2.04-4.719 3.205 1.994 2.457 4.68 2.04 4.72"/>
        <path fill="#009700" d="M151.725 57.836c-6.224 1.14-11.564 6.985-9.7 2.424 1.888-4.56 7.745-3.456 9.7-2.424"/>
        <path fill="#008300" d="M151.277 57.836c-7.335.125-9.272 3.215-9.094 2.766.183-.43 2.168-3.1 9.094-2.766"/>
        <path fill="#009700" d="M140.003 62.066c3.815 2.04 1.464 6.05.06 7.288-2.057-2.9-3.888-9.326-.06-7.288"/>
        <path fill="#008300" d="M139.64 62.127c.363.19 1.297 2.869.52 6.92.049-5.071-.894-7.128-.52-6.92"/>
        <path fill="#009700" d="M140.664 61.195c5.215-.045 4.893 5.456 4.066 7.549-2.166-4.998-9.262-7.506-4.066-7.55"/>
        <path fill="#008300" d="M144.66 68.358c-1.22-6.354-4.849-6.9-4.338-6.9.495-.01 3.678.742 4.337 6.9"/>
        <path fill="#009700" d="M140.585 61.061c.228 4.29-3.467 2.901-6.721 6.531-.263-2.877 6.493-10.846 6.72-6.53"/>
        <path fill="#008300" d="M134.716 65.788c-.252.412-.497.857-.734 1.337.227-.487.473-.931.734-1.337M140.357 61.25c.023.38-3.339.937-5.642 4.538 2.531-4.155 5.62-4.913 5.642-4.538"/>
        <path fill="#0A0" d="M138.49 59.383c-5.188 2.986-4.26-2.679-9.346-4.622 3.436-2.139 14.515 1.637 9.346 4.622"/>
        <path fill="#008300" d="M131.495 54.725c-.549-.065-1.134-.106-1.76-.11.632-.012 1.216.03 1.76.11M138.19 59.219c-.446.246-1.826-3.769-6.695-4.494 5.585.675 7.155 4.225 6.694 4.494"/>
        <path fill="#0A0" d="M149.96 55.158c-6.048 1.346-6.922 7.794-10.805 5.243-4.393-3.725 5.823-8.414 10.806-5.243"/>
        <path fill="#008300" d="M149.796 55.056c-7.502-.886-9.824 5.466-10.347 5.168-.501-.295 3.327-6.497 10.347-5.168"/>
        <path fill="#0A0" d="M139.24 59.686c6.205 2.405-6.04 2.597-10.006 7.654-.023-3.526 2.515-10.56 10.005-7.654"/>
        <path fill="#008300" d="M130.79 64.222c-.604.87-1.142 1.896-1.556 3.118.362-1.244.908-2.268 1.556-3.118M138.907 59.874c.463.266-5.019.288-8.117 4.349 2.982-4.287 7.651-4.618 8.117-4.35"/>
        <path fill="#0A0" d="M140.97 60.15c5.619-3.252 8.635 2.905 9.016 5.69-5.392-4.103-14.647-2.453-9.015-5.69"/>
        <path fill="#008300" d="M140.74 60.644c.55-.318 4.45-1.45 8.942 4.818-5.214-6.14-9.488-4.5-8.943-4.818"/>
        <path fill="#6B360B" d="M145.346 71.16c-.736 1.633-.01 3.554 1.624 4.29 1.633.736 3.554.009 4.289-1.624.736-1.634.01-3.554-1.624-4.29-1.633-.736-3.553-.01-4.29 1.624"/>
        <path fill="#000" d="M144.525 75.161c.003 0 .004 0 .005-.002 0 .002-.002.002-.005.002"/>
        <path fill="#000" d="M144.533 75.154c0 .002-.002.005-.003.005l-.005.002.008-.007"/>
        <path fill="#FF9F03" d="M147.835 69.75c-.352.78-.004 1.7.778 2.054.783.352 1.7.004 2.054-.778.353-.781.004-1.701-.778-2.053-.782-.352-1.701-.004-2.054.777"/>
        <path fill="#009700" d="M149.467 68.605c-1.681 1.184-2.051-.66-4.345-1.052 1.092-.836 6.027-.134 4.345 1.052"/>
        <path fill="#008300" d="M149.33 68.566c-.147.1-1.213-1.107-3.239-1.126 2.304-.03 3.384 1.02 3.238 1.126M146.09 67.44c-.236.003-.487.018-.75.045.264-.034.514-.047.75-.045"/>
        <path fill="#009700" d="M149.977 66.065c1.66.82 2.35 3.454.373 2.75-1.978-.707-.794-1.518-.373-2.75"/>
        <path fill="#008300" d="M150.378 66.516c-.087-.131-.191-.267-.313-.406.128.138.23.273.313.406M150.345 68.726c-.174-.064.779-1.013.033-2.21.904 1.348.136 2.268-.033 2.21"/>
        <path fill="#009700" d="M154.981 70.757c-2.64-.652-5.766.695-4.229-.763 1.545-1.453 3.645.013 4.23.763"/>
        <path fill="#008300" d="M154.806 70.677c-2.896-1.246-4.2-.378-4.051-.522.147-.136 1.397-.832 4.05.522"/>
        <path fill="#009700" d="M149.642 70.344c1.134 1.474-.495 2.629-1.264 2.866-.294-1.5.123-4.341 1.264-2.866"/>
        <path fill="#008300" d="M149.49 70.304c.106.139 0 1.353-1.02 2.803.915-1.978.908-2.951 1.02-2.803"/>
        <path fill="#009700" d="M150.054 70.119c2.052.904.954 3 .26 3.676.035-2.34-2.303-4.576-.26-3.676"/>
        <path fill="#008300" d="M150.355 73.631c.645-2.705-.681-3.56-.48-3.469.195.083 1.309.94.48 3.47"/>
        <path fill="#009700" d="M150.047 70.053c-.668 1.721-1.87.524-3.787 1.372.405-1.174 4.46-3.103 3.787-1.372"/>
        <path fill="#008300" d="M146.913 70.868c-.172.117-.347.248-.524.395.174-.15.35-.282.524-.395M149.925 70.087c-.058.153-1.474-.222-3.012.782 1.725-1.181 3.069-.932 3.012-.782"/>
        <path fill="#0A0" d="M149.522 69.026c-2.56.253-1.196-1.802-2.845-3.461 1.724-.232 5.398 3.204 2.845 3.46"/>
        <path fill="#008300" d="M147.605 65.965c-.204-.123-.426-.242-.671-.354.25.107.472.227.67.354M149.434 68.908c-.218.018-.05-1.799-1.83-2.943 2.07 1.251 2.059 2.919 1.83 2.943"/>
        <path fill="#0A0" d="M154.763 69.396c-2.607-.541-4.088 1.832-5.16.146-1.063-2.235 3.768-2.27 5.16-.146"/>
        <path fill="#008300" d="M154.717 69.327c-2.782-1.672-4.815.406-4.967.198-.143-.204 2.45-1.958 4.967-.198"/>
        <path fill="#0A0" d="M149.763 69.277c2.007 2.038-2.825-.05-5.272 1.231.615-1.385 2.85-3.693 5.272-1.23"/>
        <path fill="#008300" d="M145.651 69.562c-.39.233-.782.541-1.16.946.36-.423.756-.728 1.16-.946M149.6 69.291c.135.187-2.018-.773-3.948.271 1.925-1.153 3.812-.458 3.948-.27"/>
        <path fill="#0A0" d="M150.36 69.764c2.774-.282 2.868 2.663 2.526 3.822-1.388-2.56-5.305-3.548-2.527-3.822"/>
        <path fill="#008300" d="M150.182 69.917c.272-.027 1.999.218 2.653 3.468-.96-3.327-2.924-3.44-2.653-3.468"/>
        <path fill="#000" d="M100.382 37.19l-.013-.012c.002.005.006.007.013.013"/>
        <path fill="#000" d="M100.367 37.16c0 .01 0 .013.002.018.006.004.008.007.013.012 0-.008 0-.012-.015-.03"/>
        <path fill="#000" d="M103.97 47.125v-.02c-.232-1.448-1.786-2.816-3.515-3.578 1.587-1.93 1.996-4.521-.073-6.336-.007-.006-.011-.008-.013-.013-.057-.046-.091-.095-.14-.141-.54 1.238-1.646 2.19-2.89 2.975.633-1.67-.296-3.477-1.173-4.343-.556 1.522-1.817 2.966-3.066 4.197-1.951-1.721-6.497-2.675-9.081-2.852 1.824 1.236 2.65 2.919 3.367 4.278-1.993-1.055-3.915-1.283-6.072-1.302.709 1.234.758 1.318 1.494 3.079-2.365-.034-5.783 2.09-7.094 2.719 0 0 3.618 1.176 7.869.949-1.124.956-2.097 1.419-4.198 3.746 1.562.06 4.095-.425 6.413-1.25-1.372 1.824-2.273 2.438-3.178 4.895 3.097.012 7.11-1.795 9.805-3.476.284.977.44 2.104-.261 3.476 1.679-.46 3.468-2.078 4.623-3.753 1.512.629 3.078 1.396 4.052 2.68 1.517-1.25 1.045-3.796-.35-5.722 1.085-.043 2.304-.096 3.51-.043-.006-.057-.03-.115-.03-.184v.019z"/>
        <path fill="#009700" d="M93.988 8.92c3.696 6.247 7.562.85 15.513 2.916-2.3-4.274-19.203-9.172-15.513-2.917"/>
        <path fill="#008300" d="M94.49 8.992c.322.535 5.51-1.806 12.06 1.074-7.376-3.439-12.375-1.627-12.06-1.074M106.549 10.066c.759.354 1.542.764 2.35 1.237-.798-.494-1.584-.899-2.35-1.237"/>
        <path fill="#009700" d="M96.031 0c-6.535.237-12.567 7.712-5.185 8.313C98.24 8.907 95.601 4.58 96.031 0"/>
        <path fill="#008300" d="M94.086.872c.476-.295 1.006-.582 1.602-.853-.614.259-1.142.546-1.602.853M90.992 8.034c.65.045-1.044-4.391 3.094-7.162-4.862 3.026-3.727 7.102-3.094 7.162"/>
        <path fill="#009700" d="M73.118 7.843c9.446 1.732 17.548 10.6 14.72 3.68-2.864-6.92-11.753-5.245-14.72-3.68"/>
        <path fill="#008300" d="M73.798 7.843c11.129.19 14.07 4.879 13.797 4.197-.275-.652-3.287-4.704-13.797-4.197"/>
        <path fill="#6B360B" d="M91.554 19.536c-.647 0-1.172.525-1.172 1.185v23.94c0 .661.525 1.184 1.172 1.184.66 0 1.201-.523 1.201-1.184v-23.94c0-.66-.54-1.185-1.2-1.185"/>
        <path fill="#FF9F03" d="M91.554 8.199c-2.142 0-3.886 3.012-3.886 6.708 0 3.713 1.744 6.718 3.886 6.718 2.177 0 3.9-3.005 3.9-6.718 0-3.696-1.723-6.708-3.9-6.708"/>
        <path fill="#009700" d="M90.907 14.261c-5.79 3.098-2.223 9.181-.09 11.059 3.118-4.4 5.895-14.15.09-11.059"/>
        <path fill="#008300" d="M91.455 14.354c-.548.292-1.966 4.354-.789 10.503-.072-7.697 1.36-10.817.79-10.503"/>
        <path fill="#009700" d="M89.903 12.94c-7.915-.07-7.424 8.278-6.172 11.456 3.286-7.585 14.056-11.39 6.172-11.457"/>
        <path fill="#008300" d="M83.84 23.81c1.846-9.644 7.354-10.472 6.581-10.472-.752-.015-5.582 1.127-6.582 10.471"/>
        <path fill="#009700" d="M90.022 12.737c-.345 6.508 5.263 4.404 10.201 9.912.397-4.367-9.857-16.459-10.201-9.912"/>
        <path fill="#008300" d="M98.928 19.91c.38.626.756 1.3 1.114 2.03-.343-.742-.718-1.414-1.114-2.03M90.366 13.024c-.034.575 5.07 1.423 8.562 6.886-3.842-6.304-8.526-7.455-8.562-6.886"/>
        <path fill="#0A0" d="M93.2 10.192c7.872 4.53 6.466-4.067 14.18-7.015-5.212-3.246-22.023 2.484-14.18 7.015"/>
        <path fill="#008300" d="M103.815 3.124c.832-.101 1.721-.161 2.673-.168-.963-.018-1.85.045-2.673.168M93.66 9.942c.673.374 2.768-5.719 10.155-6.818-8.473 1.024-10.857 6.41-10.156 6.818"/>
        <path fill="#0A0" d="M75.794 3.78c9.18 2.042 10.506 11.827 16.397 7.957 6.665-5.654-8.835-12.769-16.397-7.958"/>
        <path fill="#008300" d="M76.043 3.626c11.383-1.345 14.91 8.294 15.703 7.842.758-.448-5.05-9.858-15.703-7.842"/>
        <path fill="#0A0" d="M92.065 10.652c-9.418 3.649 9.165 3.94 15.182 11.614.034-5.351-3.819-16.026-15.182-11.614"/>
        <path fill="#008300" d="M104.885 17.534c.917 1.318 1.729 2.877 2.362 4.731-.551-1.888-1.38-3.44-2.362-4.73M92.566 10.935c-.699.403 7.62.437 12.318 6.6-4.525-6.504-11.61-7.008-12.318-6.6"/>
        <path fill="#0A0" d="M89.435 11.353c-8.524-4.933-13.101 4.412-13.68 8.636 8.184-6.225 22.223-3.722 13.68-8.636"/>
        <path fill="#008300" d="M89.788 12.104c-.836-.483-6.753-2.2-13.572 7.313 7.915-9.317 14.4-6.83 13.572-7.313"/>
        <path fill="#000" d="M160.772 84.175c1.944-1.49 3.936-3.46 3.97-4.193-1.737 1.373-3.445 2.191-4.791 2.887.49-1.628.262-3.41-.136-4.47-.556 1.98-2.335 3.898-3.74 5.36-.129.012-.254.031-.404.048-.452-1.596-1.294-3.298-2.106-3.812.38 1.526.147 2.648-.008 3.59-.93-.716-2.051-1.355-2.871-1.742.986.887 1.564 1.874 1.972 2.767-3.032.99-2.51 1.655-6.948 3.152 4.12-.015 5.422 0 7.244-1.028-1.142.934-2.004 2.178-4.522 3.731.992-.197 2.89-1.065 4.668-2.046.151 1.02.686 2.232.347 4.025.686-.454 1.322-1.873 1.69-3.279.64.971 1.558 2.12 1.97 3.854.42-.48.507-1.68.383-2.947 1.085 1.234 2.181 2.656 2.873 4.124.465-.88.683-2.885-.358-4.722 1.007.526 2.2 1.144 3.406 2.094-.029-.56-1.424-1.967-2.89-3.149 3.285.694 7.404 1.527 10.429 2.851-1.597-1.938-5.486-3.895-9.102-4.872 3.366-.22 7.297-.742 8.066-1.216-2.43.178-4.496.124-6.263.07 3.946-1.12 8.034-2.557 8.971-3.337-5.122 1.401-8.893 1.69-11.85 2.26"/>
        <path fill="#0A0" d="M155.74 82.902c5.322-3.436 3.81-8.25 8.501-16.767-3.547 2.114-13.84 20.194-8.502 16.767"/>
        <path fill="#008300" d="M161.907 69.19c.541-.802 1.128-1.622 1.76-2.461-.64.826-1.223 1.65-1.76 2.462M155.994 82.342c.458-.293 1.34-6.235 5.913-13.151-5.26 7.766-6.384 13.464-5.913 13.151"/>
        <path fill="#0A0" d="M141.738 81.654c7.187.827 9.424 3.813 13.84 2.084 4.396-1.738-11.004-3.311-13.84-2.084"/>
        <path fill="#008300" d="M155.121 83.662c.386-.157-3.499-1.908-10.418-2.095 6.11.24 10.04 2.24 10.418 2.095M142.36 81.557c.817-.02 1.593-.01 2.343.01-.75-.03-1.53-.037-2.344-.01"/>
        <path fill="#009700" d="M144.662 75.335c4.9 3.08 5.486 6.014 9.262 6.268 3.755.24-6.79-6.186-9.262-6.268"/>
        <path fill="#008300" d="M146.47 76.107c-.424-.212-.863-.425-1.325-.623.462.204.9.415 1.326.623M146.47 76.107c4.56 2.306 6.825 5.26 7.149 5.281.336.018-1.978-2.722-7.148-5.28"/>
        <path fill="#009700" d="M142.893 85.306c6.706-.607 9.377 1.698 13.001-.733 3.629-2.443-10.698-.94-13 .733"/>
        <path fill="#008300" d="M145.122 84.742c-.548.106-1.106.218-1.68.368.577-.138 1.138-.259 1.68-.368M145.122 84.742c5.822-1.094 10.028.049 10.343-.16.332-.223-3.767-1.131-10.343.16"/>
        <path fill="#0A0" d="M146.929 90.331c5.26-4.21 8.764-3.756 10.447-7.78 1.687-4.044-9.444 5.105-10.447 7.78"/>
        <path fill="#008300" d="M147.264 89.859c.44-.475.877-.91 1.31-1.331-.44.419-.874.853-1.31 1.33M148.574 88.528c4.23-4.047 8.307-5.393 8.453-5.736.155-.363-3.72 1.11-8.453 5.736"/>
        <path fill="#009700" d="M156.87 81.645c4.596-.306 5.325-3.895 11.301-7.641-2.998.089-15.88 7.95-11.3 7.64"/>
        <path fill="#008300" d="M157.249 81.388c.386-.021 3.064-3.514 8.442-6.304-6.111 3.08-8.851 6.322-8.442 6.304M165.691 75.084c.607-.3 1.23-.606 1.906-.907-.676.292-1.299.596-1.906.907"/>
        <path fill="#0A0" d="M154.347 84.004c-2.18 1.719 4.932 1.26 10.045 4.069-1.98-2.091-7.397-6.15-10.045-4.07"/>
        <path fill="#008300" d="M154.643 84.091c-.097.19 3.12-.057 7.264 2.305-4.204-2.496-7.138-2.483-7.264-2.305M161.907 86.396c.787.47 1.615 1.016 2.484 1.677-.855-.676-1.683-1.217-2.484-1.677"/>
        <path fill="#009700" d="M154.572 83.989c3.763 2.652 6.575.334 13.585 1.192-2.384-1.816-17.325-3.862-13.585-1.192"/>
        <path fill="#008300" d="M155.022 84.004c.311.236 4.364-.727 10.033.353-6.4-1.327-10.357-.568-10.033-.353M165.056 84.356c.81.167 1.654.363 2.542.604-.88-.254-1.727-.447-2.542-.604"/>
        <path fill="#009700" d="M156.226 81.672c2.768-2.47.445-6.32 1.417-12.828-1.904 1.499-4.196 15.287-1.417 12.828"/>
        <path fill="#008300" d="M156.28 81.242c.217-.209-.732-4.66.462-9.764-1.447 5.706-.717 9.975-.463 9.764M156.742 71.477c.182-.71.392-1.44.64-2.19-.259.734-.469 1.465-.64 2.19"/>
        <path fill="#0A0" d="M145.274 67.817c5.572 6.23 6.84 17.218 10.18 15.718 3.72-3.04-3.248-12.92-10.18-15.718"/>
        <path fill="#008300" d="M145.274 67.817c6.74 3.615 9.43 15.354 9.897 15.228.437-.124-3.633-12.663-9.897-15.228"/>
        <path fill="#0A0" d="M155.403 83.138c-1.122 4.237 7.18-2.993 15.987-4.196-4.319-.8-14.635-.908-15.987 4.196"/>
        <path fill="#008300" d="M155.85 82.987c.018.33 3.573-2.843 10.444-3.8-7.053.83-10.463 3.468-10.443 3.8M166.294 79.186c1.525-.18 3.22-.277 5.097-.244-1.868-.073-3.568.034-5.097.244"/>
        <path fill="#0A0" d="M139.34 78.4c10.003 2.291 19.347 9.407 15.683 4.25-3.637-5.149-12.745-5.005-15.682-4.25"/>
        <path fill="#008300" d="M140.05 78.477c11.624 1.4 15.136 5.028 14.798 4.522-.36-.495-3.898-3.665-14.798-4.522"/>
        <path fill="#000" d="M112.804 52.118c.952-.729 1.927-1.694 1.944-2.053-.85.673-1.686 1.073-2.345 1.413.24-.796.128-1.669-.067-2.187-.272.968-1.143 1.908-1.831 2.623-.063.006-.125.016-.198.024-.221-.78-.633-1.614-1.031-1.866.185.746.072 1.296-.004 1.756-.454-.35-1.004-.662-1.405-.852.482.434.765.917.965 1.354-1.485.485-1.228.811-3.401 1.544 2.017-.007 2.654 0 3.546-.504-.56.458-.981 1.067-2.213 1.827.485-.096 1.413-.522 2.284-1.002.075.5.336 1.093.17 1.971.337-.222.648-.917.828-1.605.314.475.763 1.037.964 1.886.205-.234.248-.822.189-1.442.53.604 1.067 1.3 1.405 2.018.228-.43.335-1.41-.175-2.31.493.257 1.076.56 1.667 1.024-.013-.275-.697-.963-1.414-1.542 1.607.34 3.624.748 5.104 1.396-.781-.948-2.684-1.907-4.456-2.385 1.649-.108 3.574-.363 3.95-.595-1.19.087-2.201.06-3.066.034 1.932-.549 3.933-1.252 4.392-1.633-2.508.685-4.354.827-5.802 1.106"/>
        <path fill="#0A0" d="M110.34 51.495c2.606-1.682 1.866-4.04 4.163-8.208-1.736 1.035-6.775 9.886-4.162 8.208"/>
        <path fill="#008300" d="M113.36 44.782c.265-.392.552-.793.86-1.204-.312.404-.597.807-.86 1.204M110.466 51.221c.224-.144.654-3.052 2.895-6.438-2.577 3.802-3.126 6.591-2.895 6.438"/>
        <path fill="#0A0" d="M103.486 50.884c3.52.405 4.613 1.867 6.775 1.02 2.153-.851-5.386-1.621-6.775-1.02"/>
        <path fill="#008300" d="M110.037 51.867c.19-.077-1.712-.934-5.1-1.025 2.992.117 4.915 1.096 5.1 1.025M103.79 50.837c.4-.01.781-.004 1.147.005-.366-.015-.748-.018-1.147-.005"/>
        <path fill="#009700" d="M104.918 47.79c2.399 1.508 2.686 2.944 4.533 3.068 1.839.12-3.324-3.027-4.533-3.068"/>
        <path fill="#008300" d="M105.803 48.169c-.208-.104-.422-.208-.648-.305.226.099.44.203.648.305M105.803 48.169c2.23 1.129 3.34 2.575 3.5 2.585.164.009-.97-1.332-3.5-2.585"/>
        <path fill="#009700" d="M104.052 52.672c3.282-.296 4.59.832 6.364-.358 1.778-1.196-5.237-.461-6.364.358"/>
        <path fill="#008300" d="M105.143 52.396c-.268.052-.541.107-.822.18.282-.067.557-.127.822-.18M105.143 52.396c2.85-.536 4.91.024 5.063-.078.163-.11-1.843-.554-5.063.078"/>
        <path fill="#0A0" d="M106.026 55.132c2.576-2.062 4.291-1.839 5.115-3.809.826-1.98-4.624 2.5-5.115 3.81"/>
        <path fill="#008300" d="M106.191 54.9c.216-.231.43-.444.641-.65-.214.205-.428.418-.64.65M106.832 54.25c2.07-1.982 4.067-2.64 4.14-2.81.075-.177-1.823.544-4.14 2.81"/>
        <path fill="#009700" d="M110.894 50.88c2.25-.15 2.606-1.907 5.532-3.741-1.468.044-7.773 3.893-5.532 3.74"/>
        <path fill="#008300" d="M111.08 50.754c.188-.01 1.5-1.72 4.133-3.086-2.992 1.507-4.334 3.094-4.134 3.086M115.213 47.668c.297-.147.603-.296.933-.444-.33.143-.636.292-.933.444"/>
        <path fill="#0A0" d="M109.66 52.034c-1.068.842 2.413.617 4.916 1.992-.969-1.024-3.62-3.01-4.917-1.992"/>
        <path fill="#008300" d="M109.804 52.077c-.048.094 1.527-.028 3.557 1.128-2.06-1.221-3.495-1.215-3.557-1.128M113.36 53.205c.385.23.79.498 1.216.821-.419-.33-.824-.595-1.216-.82"/>
        <path fill="#009700" d="M109.77 52.027c1.842 1.3 3.219.164 6.648.584-1.166-.889-8.48-1.89-6.649-.584"/>
        <path fill="#008300" d="M109.99 52.034c.151.115 2.136-.356 4.911.173-3.134-.65-5.07-.278-4.912-.173M114.901 52.207c.396.082.81.177 1.244.295-.43-.124-.845-.218-1.244-.295"/>
        <path fill="#009700" d="M110.58 50.893c1.354-1.21.216-3.094.692-6.28-.93.734-2.053 7.484-.693 6.28"/>
        <path fill="#008300" d="M110.605 50.682c.105-.103-.358-2.28.227-4.78-.708 2.793-.351 4.883-.227 4.78M110.831 45.902c.089-.348.191-.705.313-1.072-.126.36-.229.717-.313 1.072"/>
        <path fill="#0A0" d="M105.218 44.11c2.728 3.05 3.348 8.43 4.982 7.695 1.822-1.488-1.59-6.326-4.982-7.695"/>
        <path fill="#008300" d="M105.218 44.11c3.3 1.77 4.615 7.517 4.846 7.455.213-.06-1.78-6.199-4.846-7.455"/>
        <path fill="#0A0" d="M110.176 51.61c-.55 2.075 3.515-1.464 7.826-2.053-2.113-.392-7.164-.445-7.826 2.054"/>
        <path fill="#008300" d="M110.394 51.536c.008.161 1.75-1.392 5.112-1.86-3.451.406-5.12 1.698-5.112 1.86M115.507 49.675c.747-.087 1.576-.134 2.495-.118-.915-.037-1.745.015-2.495.118"/>
        <path fill="#0A0" d="M102.313 49.291c4.895 1.121 9.47 4.605 7.677 2.081-1.781-2.52-6.24-2.45-7.677-2.08"/>
        <path fill="#008300" d="M102.66 49.329c5.69.686 7.41 2.46 7.244 2.213-.176-.242-1.908-1.794-7.245-2.213"/>
        <path fill="#000" d="M97.935 57.912c1.16-.89 2.348-2.064 2.369-2.501-1.036.819-2.055 1.306-2.858 1.72.293-.97.156-2.033-.081-2.664-.332 1.179-1.394 2.324-2.232 3.196-.077.007-.152.019-.241.029-.27-.952-.771-1.967-1.257-2.274.227.91.088 1.58-.005 2.14-.552-.426-1.223-.806-1.712-1.037.588.529.933 1.117 1.177 1.65-1.81.59-1.497.988-4.145 1.88 2.458-.008 3.235 0 4.32-.613-.68.557-1.193 1.3-2.695 2.226.59-.117 1.72-.636 2.783-1.221.092.609.409 1.332.208 2.402.41-.27.788-1.117 1.009-1.956.38.579.928 1.264 1.173 2.298.25-.285.303-1.002.23-1.757.646.736 1.3 1.584 1.713 2.46.278-.525.408-1.721-.213-2.817.6.314 1.31.683 2.03 1.249-.014-.335-.848-1.173-1.721-1.88 1.958.416 4.416.912 6.219 1.702-.952-1.155-3.271-2.323-5.43-2.906 2.009-.131 4.355-.443 4.813-.726-1.45.107-2.682.074-3.735.042 2.353-.67 4.792-1.526 5.35-1.99-3.055.835-5.304 1.008-7.07 1.348"/>
        <path fill="#0A0" d="M94.934 57.152c3.175-2.049 2.272-4.92 5.07-10.002-2.114 1.26-8.255 12.046-5.07 10.002"/>
        <path fill="#008300" d="M98.612 48.972c.323-.479.673-.968 1.05-1.469-.382.493-.73.985-1.05 1.47M95.086 56.818c.272-.175.797-3.719 3.526-7.846-3.138 4.634-3.808 8.033-3.526 7.846"/>
        <path fill="#0A0" d="M86.58 56.407c4.288.494 5.622 2.276 8.257 1.244 2.623-1.037-6.565-1.976-8.257-1.244"/>
        <path fill="#008300" d="M94.564 57.605c.23-.093-2.087-1.138-6.215-1.25 3.645.144 5.989 1.337 6.215 1.25M86.95 56.35c.488-.012.952-.005 1.398.006-.446-.018-.91-.022-1.398-.006"/>
        <path fill="#009700" d="M88.325 52.638c2.924 1.837 3.273 3.587 5.524 3.739 2.24.143-4.05-3.69-5.524-3.74"/>
        <path fill="#008300" d="M89.403 53.099c-.253-.127-.514-.254-.79-.372.276.122.537.247.79.372M89.403 53.099c2.719 1.375 4.072 3.137 4.265 3.15.2.01-1.181-1.623-4.265-3.15"/>
        <path fill="#009700" d="M87.269 58.586c4-.36 5.594 1.013 7.755-.437 2.166-1.457-6.381-.562-7.755.437"/>
        <path fill="#008300" d="M88.599 58.25c-.326.063-.66.13-1.002.22.344-.082.679-.155 1.002-.22M88.599 58.25c3.474-.653 5.983.029 6.17-.095.198-.134-2.246-.675-6.17.095"/>
        <path fill="#0A0" d="M89.676 61.584c3.139-2.512 5.229-2.24 6.233-4.642 1.007-2.412-5.635 3.046-6.233 4.642"/>
        <path fill="#008300" d="M89.876 61.302c.263-.282.522-.542.781-.793-.26.25-.52.509-.78.793M90.657 60.509c2.523-2.415 4.957-3.217 5.045-3.423.092-.216-2.22.663-5.045 3.423"/>
        <path fill="#009700" d="M95.606 56.402c2.742-.182 3.178-2.323 6.743-4.558-1.789.053-9.473 4.743-6.743 4.558"/>
        <path fill="#008300" d="M95.833 56.25c.23-.014 1.828-2.098 5.037-3.762-3.646 1.837-5.281 3.771-5.037 3.761M100.87 52.488c.362-.18.734-.361 1.137-.541-.403.174-.775.355-1.137.541"/>
        <path fill="#0A0" d="M94.103 57.81c-1.301 1.025 2.94.75 5.992 2.426-1.18-1.247-4.413-3.668-5.992-2.427"/>
        <path fill="#008300" d="M94.278 57.861c-.058.114 1.861-.034 4.334 1.375-2.508-1.488-4.259-1.48-4.334-1.375M98.612 59.237c.47.28.963.606 1.482 1-.51-.403-1.004-.726-1.482-1"/>
        <path fill="#009700" d="M94.237 57.8c2.244 1.584 3.922.2 8.103.712-1.42-1.083-10.334-2.304-8.103-.712"/>
        <path fill="#008300" d="M94.505 57.81c.186.14 2.604-.435 5.985.21-3.818-.792-6.18-.339-5.985-.21M100.49 58.02c.483.1.987.216 1.517.36-.525-.152-1.03-.267-1.517-.36"/>
        <path fill="#009700" d="M95.224 56.418c1.65-1.473.264-3.77.845-7.652-1.135.893-2.503 9.12-.845 7.652"/>
        <path fill="#008300" d="M95.255 56.162c.129-.125-.436-2.78.275-5.825-.862 3.404-.426 5.95-.275 5.825M95.53 50.337c.108-.424.233-.86.382-1.307-.154.439-.279.874-.382 1.307"/>
        <path fill="#0A0" d="M88.69 48.153c3.323 3.716 4.08 10.271 6.071 9.377 2.22-1.814-1.937-7.709-6.07-9.377"/>
        <path fill="#008300" d="M88.69 48.153c4.021 2.157 5.624 9.16 5.904 9.084.26-.073-2.168-7.554-5.904-9.084"/>
        <path fill="#0A0" d="M94.732 57.293c-.669 2.527 4.282-1.785 9.537-2.503-2.576-.477-8.73-.542-9.537 2.503"/>
        <path fill="#008300" d="M94.999 57.202c.009.196 2.131-1.696 6.229-2.268-4.207.497-6.24 2.071-6.229 2.268M101.228 54.935c.91-.107 1.922-.165 3.041-.145-1.115-.043-2.127.02-3.04.145"/>
        <path fill="#0A0" d="M85.15 54.467c5.966 1.366 11.54 5.612 9.355 2.536-2.17-3.073-7.602-2.986-9.355-2.536"/>
        <path fill="#008300" d="M85.572 54.513c6.936.834 9.03 3 8.83 2.697-.216-.296-2.326-2.187-8.83-2.697"/>
        <path fill="#000" d="M102.426 66.365c-1.945-1.491-3.937-3.461-3.973-4.194 1.739 1.373 3.448 2.191 4.793 2.887-.49-1.628-.261-3.411.137-4.47.556 1.979 2.335 3.898 3.74 5.36.129.012.254.031.404.049.452-1.596 1.295-3.299 2.107-3.814-.38 1.526-.147 2.649.008 3.591.929-.716 2.052-1.355 2.872-1.742-.986.887-1.566 1.874-1.974 2.767 3.033.989 2.51 1.656 6.949 3.153-4.12-.015-5.423 0-7.245-1.029 1.142.935 2.005 2.179 4.523 3.732-.992-.196-2.888-1.065-4.667-2.046-.153 1.02-.687 2.233-.35 4.026-.685-.454-1.321-1.873-1.69-3.28-.64.971-1.557 2.12-1.97 3.855-.42-.48-.505-1.68-.383-2.948-1.085 1.235-2.182 2.656-2.872 4.124-.466-.88-.684-2.884.358-4.721-1.01.525-2.2 1.144-3.407 2.093.028-.561 1.425-1.967 2.89-3.149-3.285.694-7.405 1.527-10.43 2.851 1.597-1.937 5.487-3.895 9.104-4.872-3.368-.221-7.3-.743-8.07-1.217 2.432.179 4.499.124 6.266.07-3.948-1.121-8.036-2.557-8.973-3.337 5.123 1.401 8.894 1.69 11.853 2.261"/>
        <path fill="#6B360B" d="M104.031 62.78c0-3.373 1.042-6.105 2.328-6.105 1.285 0 2.327 2.733 2.327 6.106 0 3.471-.249 5.212-.716 5.863l-.014.013c-.076.133-.198.258-.38.364-.627.36-1.644.36-2.27-.002-.11-.064-.194-.136-.265-.212-.003-.002-.008 0-.01-.004-.457-.472-1-1.83-1-6.022"/>
        <path fill="#0A0" d="M106.582 58.019c-4.358-1.756-3.932-5.474-8.544-11.02 2.88 1.042 12.911 12.767 8.544 11.02"/>
        <path fill="#008300" d="M100.166 48.897c-.507-.508-1.048-1.023-1.626-1.546.582.512 1.121 1.03 1.626 1.546M106.318 57.647c-.376-.15-1.85-4.354-6.152-8.75 4.921 4.919 6.538 8.912 6.152 8.75"/>
        <path fill="#0A0" d="M120.284 57.74c-7.188.826-9.425 3.813-13.84 2.084-4.399-1.738 11.003-3.313 13.84-2.084"/>
        <path fill="#008300" d="M106.9 59.747c-.387-.157 3.498-1.909 10.42-2.095-6.113.241-10.042 2.241-10.42 2.095M119.663 57.642c-.817-.02-1.595-.009-2.344.01.75-.03 1.53-.037 2.344-.01"/>
        <path fill="#009700" d="M117.36 51.42c-4.902 3.08-5.487 6.014-9.264 6.268-3.755.241 6.792-6.187 9.264-6.269"/>
        <path fill="#008300" d="M115.55 52.192c.427-.212.865-.425 1.328-.623-.463.203-.901.415-1.327.623M115.55 52.192c-4.557 2.307-6.823 5.26-7.148 5.282-.336.018 1.978-2.722 7.149-5.282"/>
        <path fill="#009700" d="M119.129 61.392c-6.706-.606-9.38 1.699-13.003-.732-3.63-2.444 10.7-.942 13.003.732"/>
        <path fill="#008300" d="M116.9 60.828c.547.106 1.105.218 1.68.368-.577-.138-1.138-.26-1.68-.368M116.9 60.828c-5.823-1.094-10.03.049-10.345-.16-.332-.223 3.767-1.132 10.345.16"/>
        <path fill="#0A0" d="M115.094 66.418c-5.263-4.211-8.766-3.756-10.45-7.782-1.686-4.044 9.447 5.106 10.45 7.782"/>
        <path fill="#008300" d="M114.759 65.945c-.442-.474-.878-.909-1.311-1.33.439.42.874.853 1.31 1.33M113.448 64.614c-4.229-4.048-8.309-5.394-8.455-5.737-.156-.363 3.721 1.11 8.455 5.737"/>
        <path fill="#009700" d="M105.151 57.73c-4.598-.305-5.327-3.895-11.304-7.642 2.998.089 15.884 7.953 11.304 7.642"/>
        <path fill="#008300" d="M104.772 57.473c-.388-.02-3.065-3.515-8.445-6.305 6.112 3.08 8.853 6.323 8.445 6.305M96.327 51.169c-.606-.301-1.23-.606-1.907-.908.676.292 1.301.597 1.907.908"/>
        <path fill="#0A0" d="M107.674 60.09c2.18 1.72-4.933 1.26-10.046 4.068 1.979-2.09 7.398-6.15 10.046-4.069"/>
        <path fill="#008300" d="M107.377 60.176c.098.191-3.12-.056-7.265 2.305 4.205-2.495 7.14-2.483 7.265-2.305M100.112 62.482c-.787.47-1.615 1.016-2.484 1.677.854-.676 1.683-1.217 2.484-1.677"/>
        <path fill="#009700" d="M107.448 60.075c-3.764 2.653-6.575.334-13.586 1.192 2.384-1.816 17.327-3.863 13.586-1.193"/>
        <path fill="#008300" d="M106.997 60.09c-.31.235-4.363-.728-10.034.353 6.403-1.328 10.36-.569 10.034-.354M96.963 60.443c-.81.166-1.654.362-2.543.604.88-.254 1.729-.448 2.543-.604"/>
        <path fill="#009700" d="M105.794 57.757c-2.77-2.47-.444-6.32-1.417-12.83 1.904 1.5 4.196 15.29 1.417 12.83"/>
        <path fill="#008300" d="M105.742 57.327c-.219-.208.73-4.66-.464-9.766 1.448 5.707.717 9.976.464 9.766M105.278 47.561c-.182-.71-.393-1.44-.64-2.19.26.734.468 1.465.64 2.19"/>
        <path fill="#0A0" d="M114.563 46.99c-4.487 5.017-5.507 13.865-8.198 12.657-2.996-2.447 2.617-10.405 8.198-12.657"/>
        <path fill="#008300" d="M114.563 46.99c-5.428 2.911-7.594 12.364-7.972 12.262-.35-.099 2.928-10.198 7.972-12.263"/>
        <path fill="#0A0" d="M106.616 59.223c1.123 4.238-7.18-2.993-15.989-4.197 4.32-.8 14.638-.908 15.99 4.197"/>
        <path fill="#008300" d="M106.17 59.072c-.017.33-3.572-2.844-10.444-3.802 7.053.831 10.463 3.47 10.444 3.801M95.726 55.27c-1.526-.18-3.22-.276-5.098-.243 1.869-.072 3.567.034 5.098.244"/>
        <path fill="#0A0" d="M122.682 54.485c-10.003 2.292-19.348 9.409-15.685 4.25 3.639-5.15 12.747-5.005 15.685-4.25"/>
        <path fill="#008300" d="M121.974 54.562c-11.627 1.4-15.14 5.029-14.802 4.522.36-.494 3.9-3.665 14.802-4.522"/>
        <path fill="#000" d="M111.03 82.367c1.211-.928 2.451-2.155 2.474-2.612-1.083.856-2.147 1.364-2.986 1.798.306-1.013.163-2.124-.084-2.784-.346 1.232-1.455 2.428-2.33 3.338-.08.008-.159.02-.252.031-.28-.995-.805-2.054-1.312-2.375.236.95.092 1.65-.005 2.235-.578-.445-1.277-.842-1.788-1.084.613.553.973 1.167 1.228 1.723-1.889.617-1.563 1.032-4.328 1.964 2.567-.009 3.378 0 4.512-.64-.71.582-1.247 1.357-2.816 2.324.618-.123 1.798-.664 2.907-1.275.095.636.427 1.391.217 2.508.428-.282.823-1.167 1.053-2.043.4.605.971 1.321 1.227 2.401.261-.299.315-1.047.24-1.836.674.77 1.357 1.654 1.787 2.57.291-.549.427-1.798-.222-2.942.627.327 1.37.713 2.122 1.304-.017-.35-.888-1.225-1.8-1.962 2.046.433 4.611.951 6.495 1.776-.994-1.206-3.416-2.426-5.67-3.034 2.098-.137 4.547-.463 5.025-.758-1.513.111-2.799.077-3.9.043 2.458-.698 5.004-1.593 5.588-2.078-3.192.872-5.54 1.053-7.383 1.408"/>
        <path fill="#0A0" d="M107.895 81.574c3.316-2.14 2.374-5.139 5.297-10.444-2.21 1.316-8.621 12.579-5.296 10.444"/>
        <path fill="#008300" d="M111.737 73.033c.337-.5.702-1.011 1.096-1.534-.399.515-.76 1.028-1.096 1.534M108.055 81.225c.284-.183.832-3.884 3.683-8.192-3.278 4.838-3.978 8.387-3.683 8.192"/>
        <path fill="#0A0" d="M99.174 80.797c4.477.515 5.87 2.375 8.62 1.298 2.739-1.082-6.853-2.062-8.62-1.298"/>
        <path fill="#008300" d="M107.509 82.048c.24-.098-2.178-1.19-6.488-1.305 3.805.15 6.254 1.395 6.488 1.305M99.56 80.737c.51-.013.994-.006 1.46.006-.466-.02-.951-.023-1.46-.006"/>
        <path fill="#009700" d="M100.995 76.86c3.054 1.92 3.417 3.747 5.77 3.904 2.338.151-4.232-3.853-5.77-3.904"/>
        <path fill="#008300" d="M102.121 77.342c-.265-.132-.537-.265-.825-.388.288.126.56.258.825.388M102.121 77.342c2.84 1.437 4.251 3.276 4.453 3.29.21.01-1.232-1.696-4.453-3.29"/>
        <path fill="#009700" d="M99.893 83.072c4.177-.377 5.842 1.057 8.099-.457 2.26-1.521-6.664-.587-8.1.457"/>
        <path fill="#008300" d="M101.281 82.72c-.34.067-.688.136-1.047.23.36-.085.71-.163 1.047-.23M101.281 82.72c3.627-.681 6.248.03 6.442-.099.207-.14-2.345-.704-6.442.1"/>
        <path fill="#0A0" d="M102.405 86.202c3.278-2.624 5.46-2.34 6.51-4.847 1.051-2.519-5.885 3.18-6.51 4.847"/>
        <path fill="#008300" d="M102.615 85.907c.275-.294.546-.566.815-.828-.272.26-.544.532-.815.829M103.43 85.079c2.636-2.521 5.177-3.36 5.269-3.574.095-.225-2.32.692-5.268 3.574"/>
        <path fill="#009700" d="M108.599 80.791c2.863-.19 3.318-2.426 7.04-4.76-1.867.055-9.892 4.953-7.04 4.76"/>
        <path fill="#008300" d="M108.835 80.632c.24-.014 1.909-2.19 5.26-3.927-3.807 1.918-5.515 3.937-5.26 3.927M114.095 76.704c.378-.188.767-.377 1.187-.565-.42.181-.81.371-1.187.565"/>
        <path fill="#0A0" d="M107.028 82.26c-1.358 1.072 3.071.785 6.257 2.534-1.234-1.301-4.609-3.83-6.257-2.534"/>
        <path fill="#008300" d="M107.212 82.315c-.061.119 1.943-.036 4.525 1.436-2.62-1.555-4.447-1.547-4.525-1.436M111.737 83.75c.49.293 1.006.633 1.548 1.044-.533-.42-1.049-.757-1.548-1.044"/>
        <path fill="#009700" d="M107.169 82.251c2.344 1.653 4.096.21 8.46.743-1.482-1.13-10.79-2.406-8.46-.743"/>
        <path fill="#008300" d="M107.448 82.26c.193.146 2.72-.453 6.25.22-3.987-.826-6.452-.354-6.25-.22M113.698 82.48c.505.105 1.03.226 1.584.376-.549-.157-1.075-.278-1.584-.375"/>
        <path fill="#009700" d="M108.2 80.808c1.724-1.54.274-3.937.881-7.991-1.186.933-2.613 9.523-.882 7.99"/>
        <path fill="#008300" d="M108.231 80.54c.135-.13-.455-2.902.288-6.083-.9 3.555-.446 6.214-.288 6.083M108.52 74.457c.112-.442.243-.897.398-1.364-.162.458-.293.912-.399 1.364"/>
        <path fill="#0A0" d="M101.377 72.177c3.47 3.881 4.26 10.726 6.34 9.792 2.317-1.894-2.024-8.05-6.34-9.792"/>
        <path fill="#008300" d="M101.377 72.177c4.198 2.252 5.872 9.565 6.166 9.486.27-.077-2.265-7.888-6.166-9.486"/>
        <path fill="#0A0" d="M107.686 81.721c-.699 2.64 4.472-1.864 9.957-2.614-2.688-.498-9.115-.566-9.957 2.614"/>
        <path fill="#008300" d="M107.964 81.627c.01.205 2.226-1.771 6.505-2.368-4.393.518-6.516 2.162-6.505 2.368M114.469 79.259c.95-.112 2.006-.172 3.175-.152-1.164-.045-2.22.022-3.175.152"/>
        <path fill="#0A0" d="M97.68 78.77c6.23 1.427 12.05 5.86 9.769 2.647-2.266-3.207-7.938-3.117-9.77-2.647"/>
        <path fill="#008300" d="M98.121 78.818c7.242.873 9.43 3.132 9.22 2.816-.225-.308-2.429-2.282-9.22-2.816"/>
        <path fill="#000" d="M147.843 98.334c.949-.728 1.92-1.688 1.938-2.046-.848.67-1.681 1.068-2.338 1.408.239-.793.128-1.664-.066-2.179-.271.963-1.14 1.901-1.825 2.614-.063.005-.125.016-.197.023-.221-.778-.631-1.608-1.03-1.86.187.744.074 1.292-.003 1.751-.452-.349-1-.66-1.4-.849.48.433.763.914.963 1.35-1.48.482-1.225.808-3.391 1.538 2.01-.007 2.646 0 3.535-.5-.557.454-.977 1.061-2.206 1.82.484-.097 1.409-.52 2.277-1 .074.498.335 1.09.17 1.964.335-.22.644-.913.825-1.599.31.473.76 1.034.96 1.88.204-.234.247-.82.187-1.438.529.602 1.065 1.295 1.4 2.012.229-.429.336-1.407-.172-2.303.49.256 1.072.558 1.66 1.02-.013-.273-.694-.96-1.41-1.536 1.603.34 3.613.745 5.089 1.391-.78-.944-2.676-1.9-4.442-2.376 1.644-.107 3.562-.362 3.937-.594-1.186.087-2.193.06-3.056.034 1.926-.546 3.92-1.248 4.377-1.628-2.5.683-4.34.825-5.782 1.103"/>
        <path fill="#0A0" d="M145.388 97.713c2.597-1.677 1.859-4.025 4.148-8.18-1.73 1.03-6.752 9.852-4.148 8.18"/>
        <path fill="#008300" d="M148.397 91.023c.264-.392.55-.792.857-1.2-.31.402-.595.804-.857 1.2M145.513 97.44c.223-.144.65-3.042 2.885-6.417-2.568 3.789-3.115 6.57-2.885 6.417"/>
        <path fill="#0A0" d="M138.557 97.104c3.507.403 4.598 1.86 6.753 1.017 2.144-.848-5.37-1.616-6.753-1.017"/>
        <path fill="#008300" d="M145.085 98.083c.189-.076-1.705-.93-5.082-1.02 2.98.116 4.898 1.091 5.082 1.02M138.86 97.057c.398-.011.777-.005 1.143.005-.366-.016-.746-.02-1.144-.005"/>
        <path fill="#009700" d="M139.983 94.02c2.392 1.505 2.677 2.936 4.52 3.059 1.831.118-3.315-3.018-4.52-3.058"/>
        <path fill="#008300" d="M140.865 94.398c-.207-.104-.42-.207-.646-.304.225.099.44.202.646.304M140.865 94.398c2.225 1.125 3.33 2.566 3.488 2.576.163.009-.966-1.328-3.488-2.576"/>
        <path fill="#009700" d="M139.12 98.885c3.271-.295 4.575.829 6.343-.356 1.771-1.193-5.22-.46-6.343.356"/>
        <path fill="#008300" d="M140.208 98.61c-.268.053-.54.107-.82.18.281-.067.555-.126.82-.18M140.208 98.61c2.84-.533 4.894.024 5.046-.076.162-.11-1.838-.553-5.046.077"/>
        <path fill="#0A0" d="M141.088 101.337c2.567-2.054 4.276-1.832 5.098-3.796.824-1.973-4.61 2.491-5.098 3.796"/>
        <path fill="#008300" d="M141.252 101.107c.216-.231.428-.443.639-.648-.213.204-.426.416-.64.648M141.89 100.458c2.065-1.976 4.056-2.632 4.127-2.8.075-.177-1.815.542-4.126 2.8"/>
        <path fill="#009700" d="M145.939 97.1c2.243-.15 2.6-1.9 5.514-3.73-1.463.045-7.748 3.88-5.514 3.73"/>
        <path fill="#008300" d="M146.124 96.974c.188-.01 1.495-1.715 4.119-3.075-2.981 1.503-4.319 3.084-4.119 3.075M150.243 93.899c.297-.147.601-.296.931-.442-.33.14-.634.29-.93.442"/>
        <path fill="#0A0" d="M144.709 98.25c-1.064.84 2.405.615 4.9 1.985-.965-1.019-3.609-3-4.9-1.985"/>
        <path fill="#008300" d="M144.852 98.293c-.047.093 1.523-.028 3.546 1.124-2.053-1.218-3.483-1.21-3.546-1.124M148.397 99.417c.384.23.787.496 1.212.818-.418-.33-.82-.592-1.212-.818"/>
        <path fill="#009700" d="M144.82 98.243c1.834 1.294 3.207.163 6.626.582-1.162-.886-8.452-1.885-6.627-.582"/>
        <path fill="#008300" d="M145.038 98.25c.151.115 2.13-.354 4.895.173-3.124-.648-5.053-.278-4.895-.173M149.933 98.423c.396.081.808.176 1.24.294-.428-.124-.842-.218-1.24-.294"/>
        <path fill="#009700" d="M145.626 97.113c1.351-1.205.216-3.083.69-6.26-.928.732-2.046 7.46-.69 6.26"/>
        <path fill="#008300" d="M145.651 96.904c.105-.104-.356-2.273.226-4.766-.706 2.786-.35 4.868-.226 4.766M145.877 92.138c.089-.346.19-.702.312-1.068-.126.359-.23.714-.312 1.068"/>
        <path fill="#0A0" d="M140.282 90.353c2.72 3.039 3.337 8.4 4.966 7.669 1.815-1.483-1.585-6.305-4.966-7.67"/>
        <path fill="#008300" d="M140.282 90.353c3.288 1.764 4.6 7.492 4.83 7.43.212-.061-1.774-6.18-4.83-7.43"/>
        <path fill="#0A0" d="M145.224 97.828c-.547 2.066 3.503-1.46 7.8-2.048-2.107-.39-7.14-.443-7.8 2.048"/>
        <path fill="#008300" d="M145.441 97.754c.008.16 1.743-1.388 5.095-1.854-3.44.406-5.103 1.693-5.095 1.854M150.536 95.9c.745-.088 1.571-.135 2.487-.12-.912-.034-1.739.018-2.487.12"/>
        <path fill="#0A0" d="M137.387 95.517c4.88 1.117 9.438 4.589 7.65 2.073-1.773-2.512-6.215-2.442-7.65-2.073"/>
        <path fill="#008300" d="M137.732 95.554c5.672.684 7.385 2.453 7.221 2.206-.176-.241-1.902-1.788-7.22-2.206"/>
        <path fill="#000" d="M75.423 53.368c1.13-.867 2.288-2.012 2.31-2.438-1.011.799-2.004 1.273-2.787 1.678.285-.946.152-1.983-.078-2.598-.324 1.149-1.36 2.267-2.175 3.116-.076.006-.15.019-.235.028-.264-.928-.752-1.917-1.226-2.217.22.888.086 1.54-.005 2.087-.538-.416-1.191-.787-1.668-1.011.572.515.908 1.088 1.147 1.606-1.764.577-1.46.964-4.041 1.834 2.397-.007 3.153 0 4.212-.596-.663.542-1.163 1.265-2.628 2.169.576-.115 1.678-.62 2.713-1.191.088.594.399 1.298.203 2.34.399-.262.768-1.087.983-1.906.37.565.905 1.233 1.144 2.24.243-.277.295-.975.223-1.712.63.717 1.269 1.543 1.669 2.397.273-.511.4-1.676-.206-2.744.585.305 1.278.665 1.98 1.216-.016-.326-.828-1.144-1.681-1.831 1.91.406 4.305.888 6.064 1.658-.93-1.125-3.19-2.265-5.293-2.832 1.958-.128 4.244-.432 4.69-.708-1.412.104-2.613.072-3.64.04 2.295-.65 4.67-1.486 5.216-1.94-2.98.815-5.171.983-6.891 1.315"/>
        <path fill="#0A0" d="M72.497 52.628c3.095-1.998 2.216-4.797 4.944-9.75-2.063 1.229-8.048 11.743-4.944 9.75"/>
        <path fill="#008300" d="M76.084 44.655c.314-.467.655-.944 1.021-1.431-.371.48-.709.959-1.021 1.431M72.646 52.302c.265-.171.776-3.625 3.438-7.647-3.06 4.516-3.713 7.83-3.438 7.647"/>
        <path fill="#0A0" d="M64.356 51.902c4.179.48 5.479 2.218 8.048 1.21 2.556-1.01-6.4-1.923-8.048-1.21"/>
        <path fill="#008300" d="M72.136 53.07c.226-.092-2.032-1.11-6.057-1.218 3.554.14 5.838 1.302 6.057 1.217M64.717 51.846c.476-.012.928-.006 1.363.006-.435-.018-.888-.023-1.363-.006"/>
        <path fill="#009700" d="M66.057 48.227c2.85 1.792 3.19 3.498 5.385 3.644 2.183.141-3.95-3.596-5.385-3.644"/>
        <path fill="#008300" d="M67.107 48.677c-.247-.124-.5-.248-.77-.362.27.117.523.241.77.362M67.107 48.677c2.651 1.34 3.97 3.058 4.157 3.07.195.011-1.15-1.582-4.157-3.07"/>
        <path fill="#009700" d="M65.028 54.025c3.898-.352 5.452.988 7.559-.425 2.11-1.421-6.221-.548-7.56.425"/>
        <path fill="#008300" d="M66.324 53.697c-.319.063-.644.127-.978.214.335-.08.663-.15.978-.214M66.324 53.697c3.384-.637 5.832.028 6.013-.092.194-.131-2.19-.658-6.013.093"/>
        <path fill="#0A0" d="M67.373 56.947c3.06-2.448 5.096-2.184 6.075-4.524.983-2.352-5.492 2.968-6.075 4.523"/>
        <path fill="#008300" d="M67.568 56.672c.257-.276.51-.528.761-.773-.254.244-.508.496-.76.773M68.33 55.9c2.46-2.355 4.832-3.137 4.917-3.337.089-.21-2.164.646-4.917 3.336"/>
        <path fill="#009700" d="M73.153 51.897c2.673-.178 3.098-2.265 6.572-4.444-1.743.052-9.234 4.623-6.572 4.444"/>
        <path fill="#008300" d="M73.374 51.747c.226-.012 1.782-2.043 4.91-3.665-3.553 1.79-5.149 3.675-4.91 3.665M78.283 48.082c.354-.176.716-.353 1.11-.527-.394.168-.756.345-1.11.527"/>
        <path fill="#0A0" d="M71.688 53.268c-1.269 1 2.867.733 5.84 2.366-1.151-1.215-4.301-3.575-5.84-2.366"/>
        <path fill="#008300" d="M71.86 53.32c-.057.11 1.813-.035 4.224 1.34-2.446-1.453-4.152-1.445-4.225-1.34M76.084 54.659c.457.273.938.59 1.444.975-.498-.393-.979-.706-1.444-.975"/>
        <path fill="#009700" d="M71.82 53.26c2.187 1.542 3.823.194 7.897.693-1.384-1.055-10.072-2.246-7.897-.693"/>
        <path fill="#008300" d="M72.08 53.268c.18.138 2.538-.422 5.834.206-3.722-.771-6.022-.331-5.833-.206"/>
        <path fill="#008300" d="M77.914 53.474c.47.097.962.209 1.479.35-.512-.147-1.004-.26-1.48-.35"/>
        <path fill="#009700" d="M72.78 51.912c1.61-1.437.258-3.674.824-7.459-1.107.871-2.44 8.89-.823 7.46"/>
        <path fill="#008300" d="M72.811 51.662c.126-.122-.425-2.709.269-5.678-.841 3.318-.416 5.801-.269 5.678M73.08 45.984c.106-.413.227-.836.371-1.273-.15.428-.272.852-.37 1.273"/>
        <path fill="#0A0" d="M66.413 43.856c3.24 3.623 3.977 10.012 5.918 9.14 2.164-1.768-1.89-7.514-5.918-9.14"/>
        <path fill="#008300" d="M66.413 43.856c3.918 2.103 5.48 8.93 5.756 8.854.253-.072-2.114-7.362-5.756-8.854"/>
        <path fill="#0A0" d="M72.301 52.765c-.65 2.462 4.175-1.74 9.295-2.44-2.51-.466-8.508-.529-9.295 2.44"/>
        <path fill="#008300" d="M72.561 52.677c.009.19 2.077-1.654 6.072-2.21-4.1.483-6.081 2.018-6.072 2.21M78.633 50.467c.888-.104 1.873-.161 2.964-.142-1.087-.042-2.073.02-2.964.142"/>
        <path fill="#0A0" d="M62.962 50.01c5.815 1.332 11.248 5.469 9.119 2.471-2.115-2.993-7.41-2.91-9.12-2.471"/>
        <path fill="#008300" d="M63.374 50.055c6.759.814 8.801 2.923 8.605 2.629-.209-.288-2.266-2.131-8.605-2.63"/>
        <path fill="#000" d="M133.733 83.359l-.01-.011c.001.004.003.006.01.01"/>
        <path fill="#000" d="M133.72 83.332c0 .009 0 .012.003.016l.01.01c0-.006 0-.01-.012-.026"/>
        <path fill="#000" d="M136.77 91.765v-.017c-.198-1.226-1.512-2.383-2.976-3.028 1.344-1.633 1.69-3.826-.06-5.361l-.012-.011c-.049-.04-.077-.081-.118-.12-.458 1.048-1.393 1.853-2.446 2.517.536-1.413-.25-2.941-.992-3.674-.47 1.288-1.537 2.51-2.594 3.55-1.651-1.456-5.498-2.262-7.684-2.412 1.542 1.046 2.24 2.469 2.847 3.619-1.686-.892-3.313-1.085-5.136-1.101.6 1.044.641 1.116 1.266 2.605-2.002-.028-4.895 1.769-6.005 2.3 0 0 3.061.996 6.659.804-.952.809-1.775 1.2-3.553 3.17 1.322.05 3.466-.361 5.427-1.058-1.162 1.543-1.924 2.063-2.689 4.142 2.62.01 6.016-1.518 8.296-2.941.242.827.374 1.78-.22 2.94 1.42-.388 2.934-1.758 3.911-3.174 1.28.532 2.605 1.18 3.43 2.268 1.282-1.057.883-3.213-.297-4.842.918-.037 1.95-.082 2.97-.037-.005-.048-.025-.097-.025-.156v.017z"/>
        <path fill="#009700" d="M128.323 59.436c3.127 5.287 6.4.72 13.126 2.468-1.945-3.617-16.248-7.76-13.126-2.468"/>
        <path fill="#008300" d="M128.748 59.498c.272.453 4.662-1.528 10.203.909-6.24-2.91-10.471-1.376-10.203-.91M138.951 60.407c.643.3 1.306.647 1.988 1.047-.675-.419-1.34-.761-1.988-1.047"/>
        <path fill="#009700" d="M130.052 51.89c-5.53.2-10.633 6.524-4.387 7.033 6.255.503 4.024-3.159 4.387-7.034"/>
        <path fill="#008300" d="M128.406 52.627c.402-.25.851-.492 1.354-.721-.518.219-.964.462-1.354.72M125.788 58.687c.55.038-.885-3.716 2.618-6.06-4.114 2.56-3.153 6.01-2.618 6.06"/>
        <path fill="#009700" d="M110.663 58.525c7.993 1.466 14.85 8.971 12.456 3.114-2.423-5.855-9.945-4.438-12.456-3.114"/>
        <path fill="#008300" d="M111.238 58.525c9.418.162 11.905 4.128 11.676 3.551-.233-.55-2.782-3.98-11.676-3.55"/>
        <path fill="#6B360B" d="M126.265 68.42c-.548 0-.993.444-.993 1.002V89.68c0 .56.445 1.001.993 1.001.557 0 1.015-.442 1.015-1V69.421c0-.558-.458-1.002-1.015-1.002"/>
        <path fill="#FF9F03" d="M126.265 58.827c-1.813 0-3.29 2.548-3.29 5.675 0 3.142 1.477 5.686 3.29 5.686 1.842 0 3.298-2.544 3.298-5.686 0-3.127-1.456-5.675-3.298-5.675"/>
        <path fill="#009700" d="M125.717 63.957c-4.9 2.62-1.883 7.769-.077 9.356 2.64-3.723 4.988-11.973.077-9.356"/>
        <path fill="#008300" d="M126.18 64.035c-.463.247-1.664 3.684-.667 8.887-.062-6.513 1.149-9.153.667-8.887"/>
        <path fill="#009700" d="M124.866 62.838c-6.696-.058-6.28 7.005-5.222 9.695 2.781-6.42 11.894-9.64 5.222-9.695"/>
        <path fill="#008300" d="M119.736 72.036c1.562-8.16 6.223-8.86 5.57-8.86-.638-.013-4.724.953-5.57 8.86"/>
        <path fill="#009700" d="M124.967 62.667c-.292 5.506 4.454 3.726 8.632 8.386.336-3.695-8.341-13.927-8.632-8.386"/>
        <path fill="#008300" d="M132.503 68.737c.322.53.64 1.1.942 1.716-.29-.626-.607-1.195-.942-1.716M125.258 62.91c-.028.486 4.29 1.204 7.245 5.827-3.251-5.335-7.214-6.308-7.245-5.827"/>
        <path fill="#0A0" d="M127.655 60.513c6.662 3.833 5.472-3.442 12-5.936-4.41-2.747-18.635 2.102-12 5.936"/>
        <path fill="#008300" d="M136.639 54.532c.704-.084 1.455-.136 2.262-.142-.816-.015-1.566.039-2.262.142M128.045 60.301c.569.316 2.342-4.839 8.594-5.77-7.171.867-9.188 5.425-8.594 5.77"/>
        <path fill="#0A0" d="M112.929 55.087c7.768 1.729 8.89 10.008 13.874 6.733 5.64-4.783-7.477-10.803-13.874-6.733"/>
        <path fill="#008300" d="M113.138 54.957c9.632-1.139 12.617 7.02 13.288 6.635.643-.378-4.273-8.34-13.288-6.635"/>
        <path fill="#0A0" d="M126.697 60.902c-7.97 3.088 7.754 3.334 12.846 9.827.028-4.527-3.232-13.56-12.846-9.827"/>
        <path fill="#008300" d="M137.543 66.726c.776 1.115 1.464 2.435 2 4.003-.468-1.597-1.169-2.912-2-4.003M127.12 61.142c-.592.341 6.446.37 10.423 5.583-3.829-5.502-9.824-5.928-10.423-5.583"/>
        <path fill="#0A0" d="M124.47 61.496c-7.212-4.173-11.085 3.733-11.574 7.307 6.925-5.267 18.804-3.15 11.575-7.307"/>
        <path fill="#008300" d="M124.77 62.131c-.709-.409-5.715-1.86-11.486 6.188 6.698-7.884 12.185-5.779 11.485-6.188"/>
        <path fill="#00883A" d="M78.532 78.225c-.133 0-.203-.122-.203-.122-.166-.004-.454-.253-.45-.397-.402-.232-1.874-.336-2.135-1.106-.124-.371.306-1.387.258-1.83-.316-2.85 1.26-1.072 1.498-.235.008.282-.272.476-.272.476-.171.506-.307 1.25-.307 1.365 0 .175 1.182.598 1.533.63.39-.08 1.097.273 1.103.364 0 0-.362.447-.251.697-.206.183-.43.096-.774.158"/>
        <path fill="#00692B" d="M78.708 77.37c.528-.14.56.358.56.358s-.241-.319-.56-.359M78.37 77.59c.53-.14.547.458.547.458s-.227-.418-.547-.458"/>
        <path fill="#525259" d="M79.557 77.37c.458.346.619.816.45 1.315 0 0 .022-.676-.8-.908 0 0-.042-.43.35-.408"/>
        <path fill="#525259" d="M79.268 77.729c.36.448.468 1.013.184 1.456 0 0 .185-.65-.556-1.075 0 0-.003-.5.372-.381"/>
        <path fill="#525259" d="M79.009 78.097c.168.5.047.94-.34 1.233 0 0 .367-.502-.137-1.105 0 0 .19-.347.477-.128"/>
        <path fill="#00692B" d="M76.92 76.376c-.18.436-.818.116-.818.116s.615-.033.819-.116"/>
        <path fill="#000" d="M59.23 76.728c-1.311 1.196.664 3.867 4.41 5.96 3.748 2.095 7.849 2.82 9.16 1.623 1.31-1.198-.663-3.865-4.412-5.96-3.746-2.093-7.847-2.822-9.159-1.623"/>
        <path fill="#C81238" d="M80.912 73.567s-.215 1.29.69 2.269c1.22 1.615 2.498 2.052 2.498 3.01-.044.382-.284.406-.684.339-.527-.196-2.284-1.804-3.538-3.397-.578-.735-1.33-2.24-.136-2.535l1.17.314z"/>
        <path fill="#00883A" d="M70.957 81.192c.15.172.316.445.406.652 0 0-.34.045-.511.291-.133-.047-.562-.29-.674-.154-.647-.4-.904-.632-.956-.95-.035-.204.063-.408-.232-1.039-.262-.56-.639-1.536-.69-2.53-.06-.599.298-.878.114-3.022-.026-.29.074-.564.042-.954-.051-.308-3.109-2.73-3.551-5.933-.103-.96 3.825-1.544 4.436.548.443 1.337 1.597 5.332 1.579 5.96-.172 2.79-1.142 3.394-1.364 3.682-.161 1.06.312 2.163.643 2.764.517.257.758.685.758.685"/>
        <path fill="#00692B" d="M70.199 80.507s-.415-.294-.681.291c.364-.284.68-.29.68-.29"/>
        <path fill="#A8ABAE" d="M81.566 75.406c-1.327-.589-2.622-2.006-2.957-1.994-2.14.08-1.913 2.466-2.11 3.023-.134.388-.351 1.755-3.125 1.456-.634-.069-.08-1.972-3.77-3.654-.851-.387-1.217.07-2.838-.513-.981-.355-1.588-1.12-2.101-1.844-.514-.721-.914-.915-1.465-1.572-.551-.659-1.037-1.662-2.786-3.456C45.996 51.719 42.37 59.75 42.37 59.75s.783-1.546 2.23-2.1c.64-.724 2.656-.906 2.656-.906l2.267.296 3.635 1.828 5.732 4.89 12.21 8.941 8.512-1.174 1.177 2.605.876.924s.262.46-.1.353"/>
        <path fill="#FF4C77" d="M81.082 74.955c.605.675 2.55 3.02 2.165 3.38-.386.361-3.338-2.939-3.338-2.939l.063-.543.464-.195.292.093s.162-.01.355.204"/>
        <path fill="#A8ABAE" d="M80.025 76.294c-1.327-.588-2.62-2.004-2.957-1.993-2.139.08-2.026 2.634-2.266 2.963-.24.33-.642.84-1.428.627-.616-.167-1.379-1.196-5.048-2.641-.852-.39-1.374-.211-2.994-.794-.982-.353-1.693-.963-2.207-1.685-.514-.723-3.638-4.411-5.386-6.204-9.668-10.372-13.205-9.196-15.369-6.817 0 0 .534-1.102 1.997-2.117.39-.271 1.824-.207 1.824-.207l1.793.503 3.635 1.827 5.732 4.89 12.21 8.94 8.513-1.174 1.175 2.605.877.926s.263.459-.1.35"/>
        <path fill="#939699" d="M80.186 75.177c-.064.288.197.853.197.853l-1.085-1.133v-.753l.84.669s.094.222.047.364"/>
        <path fill="#FFF" d="M82.966 78.761L83.19 78.853 83.104 78.522z"/>
        <path fill="#FFF" d="M83.135 78.846L83.359 78.939 83.274 78.609zM83.623 77.718L83.419 77.587 83.441 77.926z"/>
        <path fill="#FFF" d="M83.499 77.626L83.297 77.493 83.318 77.834z"/>
        <path fill="#FFF" d="M83.359 77.533L83.156 77.4 83.178 77.741z"/>
        <path fill="#FFF" d="M83.258 77.4L83.055 77.267 83.077 77.607z"/>
        <path fill="#FFF" d="M83.135 77.363L82.931 77.23 82.953 77.571z"/>
        <path fill="#FFF" d="M83.034 77.23L82.832 77.096 82.853 77.437z"/>
        <path fill="#FFF" d="M82.932 77.168L82.73 77.035 82.751 77.376z"/>
        <path fill="#FFF" d="M82.832 77.075L82.629 76.942 82.65 77.283z"/>
        <path fill="#FFF" d="M82.73 76.992L82.527 76.858 82.548 77.199z"/>
        <path fill="#FFF" d="M82.607 76.924L82.404 76.79 82.425 77.131z"/>
        <path fill="#FFF" d="M82.461 76.821L82.259 76.688 82.28 77.028z"/>
        <path fill="#FFF" d="M82.347 76.668L82.144 76.535 82.165 76.875z"/>
        <path fill="#FFF" d="M82.246 76.541L82.043 76.409 82.064 76.749z"/>
        <path fill="#FFF" d="M82.161 76.448L81.959 76.316 81.98 76.656z"/>
        <path fill="#FFF" d="M82.06 76.356L81.858 76.223 81.878 76.564z"/>
        <path fill="#FFF" d="M81.96 76.261L81.755 76.129 81.778 76.469z"/>
        <path fill="#FFF" d="M81.865 76.169L81.662 76.036 81.682 76.377z"/>
        <path fill="#FFF" d="M81.766 76.059L81.564 75.925 81.584 76.266z"/>
        <path fill="#FFF" d="M81.669 75.974L81.467 75.839 81.488 76.18z"/>
        <path fill="#FFF" d="M81.581 75.866L81.379 75.731 81.4 76.072z"/>
        <path fill="#FFF" d="M81.48 75.765L81.276 75.633 81.297 75.974z"/>
        <path fill="#FFF" d="M81.379 75.668L81.175 75.534 81.196 75.874z"/>
        <path fill="#FFF" d="M81.277 75.542L81.073 75.407 81.095 75.748zM83.726 77.849L83.543 77.69 83.518 78.03z"/>
        <path fill="#FFF" d="M83.785 78.019L83.602 77.859 83.577 78.199z"/>
        <path fill="#FFF" d="M83.868 78.154L83.685 77.994 83.66 78.335z"/>
        <path fill="#FFF" d="M83.96 78.221L83.776 78.061 83.752 78.4z"/>
        <path fill="#FFF" d="M84.039 78.302L83.856 78.141 83.831 78.483z"/>
        <path fill="#FFF" d="M84.143 78.389L83.959 78.23 83.936 78.57zM83.297 78.937L83.522 78.989 83.437 78.699z"/>
        <path fill="#FFF" d="M83.44 78.989L83.664 79.04 83.578 78.749z"/>
        <path fill="#FFF" d="M83.603 79.017L83.832 79.03 83.716 78.762z"/>
        <path fill="#FFF" d="M83.764 79.015L83.992 78.997 83.844 78.746z"/>
        <path fill="#FFF" d="M83.915 78.989L84.072 78.939 84.01 78.698zM82.799 78.648L83.014 78.762 82.935 78.416z"/>
        <path fill="#FFF" d="M82.649 78.532L82.848 78.648 82.748 78.263z"/>
        <path fill="#FFF" d="M82.492 78.409L82.689 78.523 82.591 78.139z"/>
        <path fill="#FFF" d="M82.321 78.263L82.52 78.377 82.421 77.993z"/>
        <path fill="#FFF" d="M82.161 78.13L82.36 78.244 82.261 77.861z"/>
        <path fill="#FFF" d="M82.02 78.025L82.218 78.139 82.119 77.756z"/>
        <path fill="#FFF" d="M81.855 77.875L82.04 78.036 82.02 77.64z"/>
        <path fill="#FFF" d="M81.764 77.772L81.948 77.934 81.928 77.537z"/>
        <path fill="#FFF" d="M81.665 77.7L81.85 77.862 81.829 77.466z"/>
        <path fill="#FFF" d="M81.573 77.594L81.757 77.756 81.737 77.36z"/>
        <path fill="#FFF" d="M81.48 77.492L81.653 77.663 81.656 77.266z"/>
        <path fill="#FFF" d="M81.391 77.398L81.566 77.571 81.568 77.175z"/>
        <path fill="#FFF" d="M81.302 77.31L81.477 77.481 81.48 77.085z"/>
        <path fill="#FFF" d="M81.2 77.175L81.367 77.371 81.432 77z"/>
        <path fill="#FFF" d="M81.114 77.094L81.28 77.294 81.346 76.921z"/>
        <path fill="#FFF" d="M81.043 77.008L81.209 77.206 81.273 76.832z"/>
        <path fill="#FFF" d="M80.982 76.907L81.147 77.108 81.213 76.734z"/>
        <path fill="#FFF" d="M80.918 76.83L81.084 77.028 81.148 76.655z"/>
        <path fill="#FFF" d="M80.845 76.754L81.012 76.952 81.076 76.58z"/>
        <path fill="#FFF" d="M80.792 76.662L80.958 76.86 81.023 76.487z"/>
        <path fill="#FFF" d="M80.729 76.6L80.896 76.798 80.961 76.424z"/>
        <path fill="#FFF" d="M80.677 76.522L80.843 76.72 80.908 76.347z"/>
        <path fill="#FFF" d="M80.614 76.456L80.78 76.655 80.845 76.282z"/>
        <path fill="#FFF" d="M80.561 76.38L80.728 76.58 80.791 76.207z"/>
        <path fill="#FFF" d="M80.499 76.336L80.665 76.535 80.728 76.161z"/>
        <path fill="#FFF" d="M80.456 76.271L80.621 76.469 80.687 76.097z"/>
        <path fill="#FFF" d="M80.399 76.221L80.566 76.42 80.631 76.047zM84.189 78.502L84.014 78.271 84.046 78.662z"/>
        <path fill="#FFF" d="M84.3 78.55L84.101 78.342 84.177 78.724z"/>
        <path fill="#FFF" d="M84.41 78.572L84.21 78.362 84.287 78.745z"/>
        <path fill="#FFF" d="M84.51 78.572L84.311 78.362 84.386 78.745z"/>
        <path fill="#FFF" d="M84.62 78.572L84.422 78.362 84.499 78.745z"/>
        <path fill="#FFF" d="M84.7 78.55L84.501 78.342 84.578 78.724z"/>
        <path fill="#FFF" d="M84.778 78.515L84.578 78.306 84.655 78.689zM84.045 78.914l.05-.034s.02-.113-.016-.243c0 .08-.034.277-.034.277"/>
        <path fill="#00AA49" d="M42.37 59.75c5.27-7.594 19.925 11.292 19.925 11.292s.784.577 1.388 1.098c2.13 1.834 2.835 1.168 4.158 2.1 2.555 1.802 3.433 1.604 4.54 2.839 0 0 1.697 1.199 2.656-.624.155-.294-.216-.845.498-1.858 1.045-1.513 2.434-.76 2.667-.457.555.759 1.314 1.506 1.895 2.24 1.247 1.59 2.589 2.658 3.29 2.814.176.039.46.102.63-.078.093-.123.078-.236.078-.236-1.071.357-2.38-1.288-3.6-2.905-.905-.977-1.121-1.52-1.121-1.52.948 1.063 1.477.909 1.86 1.25.91 1.018 1.79 1.764 2.323 2.047.129.648.676.937.887.906.292 0 .51-.098.62-.354.015-.04.025-.074.03-.108.146-.647-.682-1.196-1.847-2.806-1.046-1.445-.875-3.088-2.874-4.588-2.974-2.592-4.69-.301-6.085-1.02-3.274-1.291-3.47-4.49-11.09-5.994-6.152-2.607-7.52-3.992-11.237-5.964-7.24-3.84-9.59 1.926-9.59 1.926"/>
        <path fill="#00883A" d="M72.381 77.078s.494-.865-.023-1.059c-.553.186.023 1.06.023 1.06M66.476 73.64l-.353-.096c-.15-.728-.088-3.11.154-2.826.19 1.082.636 2.2.199 2.922M61.457 70.006l-.214-2.51s-.522.94-.247 1.957l.461.553"/>
        <path fill="#00AA49" d="M62.698 79.516s.521.328.504.505c-.028.295-.315.223-.844.697-.137 0-.943-.831-.822-1.277.144-.536-.593-1.254-.537-1.763.017-.161.17-.368.295-.908.171-.737-.062-1.302.137-1.835.164-.44.362.274.987-1.282.085-.211-1.994-3.606-.96-7.155.256-.711 4.875 1.438 4.747 3.235-.026 1.183.671 3.192-.489 5.032-1.3 1.538-1.717 1.227-2.869 1.363-.963 1.198-.149 3.388-.149 3.388"/>
        <path fill="#00883A" d="M62.848 76.128s-.564-.033-.784.063c.435.054.623.171.623.171l.16-.234z"/>
        <path fill="#00692B" d="M69.556 77.743s-.248.272-.652.303c.348.074.625-.047.625-.047l.027-.256z"/>
        <path fill="#00AA49" d="M74.915 80.323c-.133 0-.203-.122-.203-.122-.166-.004-.453-.254-.449-.397-.403-.233-1.874-.337-2.136-1.108-.124-.37.308-1.386.258-1.828-.315-2.852 1.462-.62 1.7.218-.15.74-.78 1.216-.78 1.389 0 .172 1.182.596 1.533.63.39-.08 1.097.271 1.103.362 0 0-.362.447-.25.697-.207.183-.431.096-.776.159"/>
        <path fill="#00883A" d="M75.093 79.467c.527-.141.559.359.559.359s-.24-.319-.56-.359M74.754 79.686c.53-.14.547.46.547.46s-.227-.419-.547-.46M79.795 73.489c0 .132.103.317.23.413.127.097.23.067.23-.064s-.103-.317-.229-.413c-.127-.096-.23-.067-.23.064"/>
        <path fill="#0E0E0F" d="M79.796 73.522c0 .117.091.278.202.363.11.085.201.06.201-.056 0-.117-.09-.279-.2-.363-.112-.085-.203-.06-.203.056"/>
        <path fill="#FFF" d="M80.026 73.695c0 .04.031.096.07.126.038.028.07.02.07-.02s-.032-.097-.07-.126c-.039-.028-.07-.02-.07.02"/>
        <path fill="#00883A" d="M79.374 74.456s-.612-.47-.825-1.373c.48.779.825 1.373.825 1.373"/>
        <path fill="#525259" d="M63.138 79.931c.52.246.775.67.715 1.195-.173-.18-.459-.543-.973-.723 0 0-.129-.413.258-.472"/>
        <path fill="#525259" d="M62.895 80.072c.52.245.774.67.714 1.194-.173-.179-.459-.542-.972-.721 0 0-.13-.412.258-.473"/>
        <path fill="#525259" d="M62.616 80.246c.52.245.76.667.7 1.188-.173-.178-.445-.535-.958-.716 0 0-.13-.412.258-.472M70.957 81.192c.521.246.776.671.715 1.195-.173-.178-.46-.543-.972-.722 0 0-.13-.414.257-.473M75.94 79.467c.458.347.62.816.452 1.316 0 0 .02-.676-.802-.908 0 0-.042-.431.35-.408"/>
        <path fill="#525259" d="M75.652 79.826c.359.448.469 1.013.185 1.457 0 0 .185-.651-.557-1.077 0 0-.003-.497.372-.38"/>
        <path fill="#525259" d="M75.393 80.195c.169.5.047.939-.338 1.233 0 0 .366-.503-.14-1.105 0 0 .192-.348.478-.128M70.713 81.333c.52.246.775.67.715 1.195-.173-.18-.459-.543-.973-.724 0 0-.128-.411.258-.471"/>
        <path fill="#525259" d="M70.436 81.507c.52.245.76.666.698 1.19-.172-.18-.445-.537-.957-.716 0 0-.13-.413.258-.474"/>
        <path fill="#00883A" d="M62.698 79.516s-.416-.295-.68.29c.363-.283.68-.29.68-.29M73.305 78.474c-.18.436-.819.115-.819.115s.616-.033.82-.115"/>
        <path fill="#939699" d="M77.026 74.303s-.594-.04-1.165.436c.798-.264 1.165-.436 1.165-.436"/>
        <path fill="#000" d="M81.048 113.326c-2.03 1.853 1.026 5.984 6.826 9.223 5.799 3.241 12.144 4.366 14.174 2.512 2.028-1.854-1.027-5.983-6.827-9.224-5.798-3.24-12.145-4.365-14.173-2.51"/>
        <path fill="#C81238" d="M114.602 108.434s-.334 1.998 1.069 3.51c1.886 2.503 3.863 3.177 3.863 4.658-.068.592-.439.63-1.059.527-.813-.303-3.533-2.794-5.474-5.257-.895-1.14-2.06-3.468-.21-3.924l1.81.486z"/>
        <path fill="#00883A" d="M99.196 120.235c.23.268.488.69.628 1.009 0 0-.524.068-.79.45-.207-.07-.87-.45-1.045-.24-1.002-.62-1.397-.977-1.48-1.47-.05-.311.098-.63-.357-1.605-.407-.871-.99-2.38-1.069-3.916-.093-.927.461-1.36.175-4.677-.038-.448.116-.874.067-1.475-.078-.477-4.812-4.226-5.495-9.182-.16-1.487 5.92-2.391 6.865.847.684 2.069 2.471 8.25 2.442 9.223-.266 4.317-1.767 5.253-2.11 5.698-.25 1.638.484 3.348.994 4.277.802.399 1.175 1.06 1.175 1.06"/>
        <path fill="#00692B" d="M98.022 119.174s-.644-.456-1.053.451c.564-.44 1.053-.45 1.053-.45"/>
        <path fill="#00883A" d="M109.389 109.229c.286 1.906-.422 3.446-.422 3.446l-.333 2.849c.616 0 1.87 1.932 1.87 1.932s.544-.54.808-.026c.217-.413.662-.166.81-.188 0 0 .043.108 0 .155.573-.327.823.128.823.128-.184 1.007-.704 1.01-.704 1.01s-.16.35-.781.34c0 0-.18.296-.724.007-.453-.238-.626-.762-.626-.762-.997-.778-2.774-1.785-2.836-2.441l-.277-2.875.353-3.067 1.12-1.455s.795.295.919.947"/>
        <path fill="#A8ABAE" d="M115.612 111.28c-2.053-.912-4.057-3.105-4.575-3.085-3.31.124-2.96 3.816-3.264 4.68-.209.597-.545 2.715-4.837 2.25-.98-.106-.123-3.052-5.833-5.653-1.319-.601-1.887.108-4.394-.794-1.519-.546-2.457-1.734-3.252-2.853-.794-1.118-1.414-1.419-2.266-2.436-.85-1.016-1.604-2.57-4.31-5.344-22.315-23.422-27.925-10.993-27.925-10.993s1.213-2.394 3.45-3.253c.992-1.122 4.112-1.4 4.112-1.4l3.51.46 5.624 2.828 8.87 7.566L99.42 107.09l13.171-1.82 1.82 4.031 1.357 1.434s.405.71-.156.543"/>
        <path fill="#FF4C77" d="M114.865 110.583c.935 1.043 3.947 4.671 3.35 5.23-.599.56-5.166-4.546-5.166-4.546l.097-.842.717-.3.455.143s.248-.018.547.315"/>
        <path fill="#A8ABAE" d="M113.228 112.654c-2.051-.91-4.055-3.103-4.575-3.084-3.31.125-3.136 4.076-3.507 4.586-.374.51-.993 1.3-2.21.97-.953-.26-2.134-1.85-7.812-4.088-1.32-.602-2.125-.325-4.632-1.23-1.52-.547-2.621-1.49-3.416-2.607-.794-1.117-5.63-6.825-8.334-9.6-14.964-16.052-20.438-14.233-23.786-10.55 0 0 .826-1.706 3.09-3.276.605-.42 2.822-.32 2.822-.32l2.776.78 5.627 2.826 8.868 7.567 18.898 13.838 13.172-1.819 1.82 4.03 1.358 1.434s.404.71-.159.543"/>
        <path fill="#939699" d="M113.477 110.926c-.1.445.307 1.318.307 1.318l-1.68-1.752v-1.165l1.299 1.036s.146.344.073.563"/>
        <path fill="#FFF" d="M117.78 116.473L118.127 116.617 117.994 116.104z"/>
        <path fill="#FFF" d="M118.042 116.604L118.389 116.748 118.256 116.237zM118.796 114.86L118.483 114.654 118.515 115.18z"/>
        <path fill="#FFF" d="M118.606 114.715L118.293 114.509 118.325 115.036z"/>
        <path fill="#FFF" d="M118.389 114.573L118.075 114.365 118.109 114.894z"/>
        <path fill="#FFF" d="M118.231 114.365L117.918 114.16 117.951 114.686z"/>
        <path fill="#FFF" d="M118.042 114.31L117.728 114.104 117.761 114.63z"/>
        <path fill="#FFF" d="M117.885 114.103L117.573 113.896 117.605 114.422z"/>
        <path fill="#FFF" d="M117.728 114.008L117.415 113.801 117.448 114.328z"/>
        <path fill="#FFF" d="M117.572 113.864L117.258 113.657 117.291 114.183z"/>
        <path fill="#FFF" d="M117.414 113.735L117.101 113.528 117.134 114.055z"/>
        <path fill="#FFF" d="M117.224 113.629L116.911 113.421 116.943 113.949z"/>
        <path fill="#FFF" d="M116.999 113.47L116.686 113.264 116.718 113.79z"/>
        <path fill="#FFF" d="M116.822 113.233L116.509 113.026 116.542 113.553z"/>
        <path fill="#FFF" d="M116.666 113.038L116.352 112.832 116.384 113.358z"/>
        <path fill="#FFF" d="M116.534 112.895L116.222 112.689 116.254 113.215z"/>
        <path fill="#FFF" d="M116.378 112.75L116.065 112.543 116.097 113.071z"/>
        <path fill="#FFF" d="M116.222 112.605L115.908 112.398 115.942 112.926z"/>
        <path fill="#FFF" d="M116.075 112.462L115.762 112.255 115.794 112.781z"/>
        <path fill="#FFF" d="M115.923 112.291L115.611 112.085 115.643 112.612z"/>
        <path fill="#FFF" d="M115.772 112.159L115.46 111.951 115.493 112.478z"/>
        <path fill="#FFF" d="M115.637 111.99L115.324 111.784 115.357 112.311z"/>
        <path fill="#FFF" d="M115.48 111.837L115.165 111.631 115.198 112.158z"/>
        <path fill="#FFF" d="M115.323 111.685L115.009 111.479 115.041 112.004z"/>
        <path fill="#FFF" d="M115.165 111.489L114.852 111.284 114.885 111.808zM118.955 115.06L118.673 114.814 118.634 115.34z"/>
        <path fill="#FFF" d="M119.046 115.325L118.764 115.076 118.725 115.603z"/>
        <path fill="#FFF" d="M119.176 115.531L118.893 115.284 118.854 115.811z"/>
        <path fill="#FFF" d="M119.317 115.635L119.035 115.389 118.997 115.915z"/>
        <path fill="#FFF" d="M119.44 115.76L119.158 115.514 119.12 116.041z"/>
        <path fill="#FFF" d="M119.602 115.898L119.317 115.652 119.281 116.178zM118.292 116.744L118.64 116.824 118.509 116.376z"/>
        <path fill="#FFF" d="M118.515 116.825L118.862 116.903 118.729 116.456z"/>
        <path fill="#FFF" d="M118.765 116.868L119.12 116.889 118.943 116.472z"/>
        <path fill="#FFF" d="M119.015 116.865L119.369 116.838 119.138 116.45z"/>
        <path fill="#FFF" d="M119.247 116.825L119.492 116.748 119.396 116.376zM117.522 116.296L117.855 116.473 117.734 115.938z"/>
        <path fill="#FFF" d="M117.289 116.117L117.596 116.296 117.442 115.701z"/>
        <path fill="#FFF" d="M117.046 115.927L117.352 116.104 117.199 115.51z"/>
        <path fill="#FFF" d="M116.783 115.7L117.091 115.878 116.936 115.284z"/>
        <path fill="#FFF" d="M116.534 115.496L116.842 115.674 116.687 115.08z"/>
        <path fill="#FFF" d="M116.315 115.332L116.621 115.51 116.468 114.917z"/>
        <path fill="#FFF" d="M116.061 115.101L116.347 115.351 116.316 114.739z"/>
        <path fill="#FFF" d="M115.919 114.941L116.203 115.192 116.172 114.578z"/>
        <path fill="#FFF" d="M115.768 114.829L116.052 115.08 116.021 114.466z"/>
        <path fill="#FFF" d="M115.624 114.666L115.909 114.917 115.879 114.303z"/>
        <path fill="#FFF" d="M115.48 114.507L115.751 114.774 115.754 114.16z"/>
        <path fill="#FFF" d="M115.342 114.364L115.613 114.63 115.616 114.016z"/>
        <path fill="#FFF" d="M115.205 114.226L115.475 114.492 115.479 113.877z"/>
        <path fill="#FFF" d="M115.047 114.017L115.304 114.323 115.404 113.746z"/>
        <path fill="#FFF" d="M114.914 113.895L115.17 114.202 115.272 113.624z"/>
        <path fill="#FFF" d="M114.803 113.758L115.061 114.065 115.161 113.487z"/>
        <path fill="#FFF" d="M114.71 113.605L114.967 113.914 115.068 113.336z"/>
        <path fill="#FFF" d="M114.609 113.484L114.866 113.791 114.967 113.214z"/>
        <path fill="#FFF" d="M114.498 113.365L114.757 113.674 114.856 113.096z"/>
        <path fill="#FFF" d="M114.415 113.224L114.673 113.531 114.773 112.953z"/>
        <path fill="#FFF" d="M114.318 113.127L114.577 113.434 114.677 112.856z"/>
        <path fill="#FFF" d="M114.237 113.008L114.494 113.315 114.594 112.737z"/>
        <path fill="#FFF" d="M114.141 112.906L114.398 113.215 114.498 112.635z"/>
        <path fill="#FFF" d="M114.059 112.787L114.316 113.096 114.415 112.518z"/>
        <path fill="#FFF" d="M113.961 112.719L114.219 113.026 114.318 112.448z"/>
        <path fill="#FFF" d="M113.894 112.618L114.151 112.926 114.252 112.348z"/>
        <path fill="#FFF" d="M113.808 112.541L114.067 112.848 114.167 112.27zM119.671 116.073L119.402 115.716 119.451 116.317z"/>
        <path fill="#FFF" d="M119.845 116.147L119.537 115.823 119.655 116.416z"/>
        <path fill="#FFF" d="M120.015 116.179L119.706 115.856 119.825 116.449z"/>
        <path fill="#FFF" d="M120.169 116.179L119.86 115.856 119.979 116.449z"/>
        <path fill="#FFF" d="M120.341 116.179L120.033 115.856 120.154 116.449z"/>
        <path fill="#FFF" d="M120.464 116.147L120.155 115.823 120.275 116.416z"/>
        <path fill="#FFF" d="M120.584 116.091L120.275 115.768 120.394 116.36zM119.451 116.71l.075-.054s.031-.175-.023-.377c0 .127-.052.43-.052.43"/>
        <path fill="#00AA49" d="M54.956 87.052c8.154-11.752 30.833 17.473 30.833 17.473s1.214.895 2.15 1.7c3.296 2.839 4.385 1.806 6.433 3.25 3.955 2.79 5.313 2.484 7.028 4.393 0 0 2.623 1.856 4.11-.965.239-.455-.334-1.306.769-2.875 1.618-2.342 3.767-1.178 4.128-.707.86 1.175 2.032 2.33 2.931 3.469 1.932 2.459 4.008 4.11 5.094 4.352.272.062.71.159.974-.121.144-.19.12-.365.12-.365-1.655.551-3.682-1.994-5.57-4.496-1.401-1.513-1.736-2.352-1.736-2.352 1.466 1.644 2.286 1.406 2.882 1.934 1.407 1.576 2.766 2.73 3.592 3.168.2 1.004 1.045 1.45 1.372 1.404.453 0 .792-.153.96-.55.024-.057.039-.112.048-.166.225-1.002-1.056-1.852-2.86-4.343-1.619-2.234-1.354-4.78-4.447-7.102-4.603-4.008-7.256-.464-9.416-1.576-5.069-1.998-5.371-6.95-17.162-9.278-9.522-4.034-11.639-6.177-17.391-9.229-11.203-5.942-14.842 2.982-14.842 2.982"/>
        <path fill="#00883A" d="M101.4 113.867s.763-1.337-.036-1.638c-.857.287.036 1.638.036 1.638M92.26 108.548l-.546-.147c-.231-1.127-.136-4.816.237-4.375.298 1.674.986 3.403.309 4.522M84.494 102.921l-.33-3.883s-.81 1.455-.384 3.03l.714.853z"/>
        <path fill="#00AA49" d="M86.415 117.64s.806.508.78.78c-.044.458-.487.346-1.307 1.08-.213 0-1.459-1.287-1.272-1.974.225-.831-.918-1.943-.832-2.73.027-.25.264-.57.459-1.405.264-1.142-.096-2.015.21-2.841.254-.68.56.424 1.528-1.983.132-.325-3.085-5.58-1.486-11.072.396-1.1 7.544 2.226 7.346 5.005-.038 1.83 1.038 4.94-.757 7.788-2.01 2.379-2.656 1.899-4.439 2.11-1.49 1.853-.23 5.243-.23 5.243"/>
        <path fill="#00883A" d="M86.645 112.398s-.873-.05-1.212.099c.672.082.963.264.963.264l.25-.363z"/>
        <path fill="#00692B" d="M97.027 114.897s-.384.422-1.009.47c.54.115.966-.074.966-.074l.043-.396z"/>
        <path fill="#00AA49" d="M105.321 118.889c-.205 0-.312-.188-.312-.188-.259-.008-.704-.394-.697-.616-.624-.36-2.9-.521-3.304-1.712-.193-.574.473-2.145.398-2.83-.488-4.412 2.263-.958 2.63.336-.232 1.147-1.207 1.88-1.207 2.149 0 .268 1.83.924 2.372.974.602-.122 1.697.423 1.707.563 0 0-.56.692-.388 1.079-.32.283-.666.15-1.199.245"/>
        <path fill="#00883A" d="M105.595 117.564c.816-.217.866.556.866.556s-.371-.494-.866-.556M105.072 117.904c.818-.216.846.712.846.712s-.35-.65-.846-.712M112.874 108.314c0 .204.158.49.354.64.198.15.356.105.358-.1 0-.203-.159-.491-.356-.641-.196-.148-.356-.102-.356.1"/>
        <path fill="#0E0E0F" d="M112.876 108.365c-.001.18.139.431.311.562.172.13.312.091.312-.088 0-.18-.139-.43-.311-.561-.173-.132-.312-.093-.312.087"/>
        <path fill="#FFF" d="M113.23 108.632c0 .062.048.15.108.195.06.044.11.033.11-.03 0-.062-.05-.149-.11-.194-.058-.046-.107-.033-.107.03"/>
        <path fill="#00883A" d="M112.22 109.809s-.945-.728-1.276-2.123c.743 1.204 1.276 2.123 1.276 2.123"/>
        <path fill="#525259" d="M87.096 118.284c.804.378 1.199 1.036 1.106 1.848-.268-.279-.71-.839-1.505-1.119 0 0-.201-.638.399-.73"/>
        <path fill="#525259" d="M86.72 118.501c.803.378 1.198 1.037 1.104 1.848-.268-.278-.71-.839-1.505-1.118 0 0-.2-.637.4-.73"/>
        <path fill="#525259" d="M86.287 118.77c.804.38 1.177 1.03 1.084 1.84-.269-.277-.689-.83-1.483-1.11 0 0-.2-.637.4-.73M99.196 120.235c.806.38 1.2 1.039 1.105 1.849-.267-.277-.71-.84-1.504-1.12 0 0-.2-.636.4-.73M106.908 117.565c.708.538.957 1.265.698 2.037 0 0 .032-1.047-1.24-1.405 0 0-.064-.666.542-.632M112.944 117.525c.19-.868-.094-1.583-.792-2.001 0 0 .704.773-.029 1.873 0 0 .512.54.821.128M112.123 117.242c-.149-.877-.678-1.434-1.481-1.563 0 0 .942.457.669 1.75 0 0 .679.311.812-.188M111.311 117.43c-.363-.812-1.045-1.253-1.856-1.176 0 0 1.028.207 1.088 1.527 0 0 .765.166.768-.351"/>
        <path fill="#525259" d="M106.46 118.12c.557.693.727 1.567.286 2.255 0 0 .287-1.009-.86-1.666 0 0-.005-.77.575-.59"/>
        <path fill="#525259" d="M106.06 118.69c.26.776.072 1.456-.525 1.909 0 0 .568-.778-.213-1.71 0 0 .296-.537.739-.198M98.82 120.452c.803.38 1.197 1.038 1.104 1.85-.268-.28-.709-.84-1.504-1.12 0 0-.2-.637.4-.73"/>
        <path fill="#525259" d="M98.388 120.722c.805.379 1.176 1.03 1.083 1.84-.268-.277-.687-.83-1.481-1.11 0 0-.202-.637.398-.73"/>
        <path fill="#00883A" d="M86.415 117.64s-.644-.456-1.055.45c.564-.438 1.055-.45 1.055-.45M102.83 116.028c-.279.674-1.269.179-1.269.179s.954-.05 1.268-.18"/>
        <path fill="#00692B" d="M111.311 117.43s.456.59-.18 1.196c.228-.677.18-1.196.18-1.196M107.802 115.676s.346-.681.832-.152c-.47-.078-.832.152-.832.152M112.123 117.242s.446.587-.189 1.194c.225-.679.189-1.195.189-1.195"/>
        <path fill="#939699" d="M108.587 109.573s-.918-.06-1.802.675c1.234-.41 1.802-.675 1.802-.675"/>
        <path fill="#00883A" d="M63.595 108.736c-.165 0-.25-.151-.25-.151-.208-.006-.566-.316-.56-.495-.502-.288-2.33-.417-2.655-1.375-.155-.46.38-1.723.32-2.272-.392-3.545 1.567-1.334 1.862-.295.011.352-.337.593-.337.593-.213.628-.382 1.555-.382 1.697 0 .217 1.47.742 1.906.783.484-.098 1.363.339 1.37.452 0 0-.45.556-.31.866-.258.228-.536.12-.964.197"/>
        <path fill="#00692B" d="M63.815 107.672c.656-.174.696.446.696.446s-.3-.396-.696-.446M63.395 107.946c.658-.174.68.57.68.57s-.282-.52-.68-.57"/>
        <path fill="#525259" d="M64.87 107.672c.569.432.77 1.016.56 1.637 0 0 .027-.842-.996-1.129 0 0-.051-.535.436-.508"/>
        <path fill="#525259" d="M64.51 108.118c.447.558.584 1.26.23 1.811 0 0 .23-.809-.691-1.337 0 0-.005-.62.462-.474"/>
        <path fill="#525259" d="M64.189 108.576c.209.623.059 1.17-.421 1.533 0 0 .454-.624-.172-1.374 0 0 .238-.43.593-.159"/>
        <path fill="#00692B" d="M61.593 106.438c-.224.54-1.019.144-1.019.144s.766-.04 1.02-.144"/>
        <path fill="#000" d="M39.602 106.875c-1.63 1.487.825 4.807 5.483 7.408 4.658 2.605 9.755 3.505 11.386 2.02 1.63-1.49-.825-4.807-5.484-7.41-4.657-2.603-9.756-3.508-11.386-2.018"/>
        <path fill="#C81238" d="M66.555 102.945s-.268 1.604.859 2.82c1.516 2.009 3.103 2.552 3.103 3.742-.054.475-.352.504-.85.422-.654-.244-2.84-2.243-4.397-4.222-.72-.914-1.655-2.785-.17-3.153l1.455.39z"/>
        <path fill="#00883A" d="M54.18 112.424c.186.215.393.554.504.811 0 0-.42.055-.635.362-.166-.059-.699-.362-.839-.193-.804-.499-1.122-.785-1.188-1.18-.042-.253.078-.507-.287-1.292-.326-.696-.795-1.909-.859-3.146-.074-.743.37-1.09.142-3.756-.032-.36.092-.7.053-1.185-.063-.383-3.866-3.394-4.415-7.375-.128-1.193 4.755-1.92 5.515.681.55 1.662 1.985 6.627 1.963 7.408-.214 3.47-1.42 4.22-1.696 4.578-.2 1.315.388 2.688.8 3.435.642.32.942.852.942.852"/>
        <path fill="#00692B" d="M53.237 111.573s-.516-.366-.847.36c.453-.352.847-.36.847-.36"/>
        <path fill="#A8ABAE" d="M67.367 105.23c-1.649-.73-3.259-2.492-3.675-2.477-2.66.1-2.379 3.066-2.622 3.759-.168.48-.438 2.18-3.886 1.809-.788-.086-.099-2.451-4.685-4.542-1.06-.483-1.515.087-3.53-.64-1.22-.438-1.974-1.391-2.61-2.29-.64-.897-1.138-1.14-1.823-1.955-.684-.818-1.289-2.065-3.462-4.295-17.924-18.813-22.43-8.83-22.43-8.83s.974-1.922 2.771-2.612c.796-.901 3.303-1.125 3.303-1.125l2.818.369 4.52 2.272 7.124 6.077 15.18 11.117 10.58-1.462 1.462 3.238 1.09 1.15s.325.572-.125.438"/>
        <path fill="#FF4C77" d="M66.767 104.671c.75.84 3.17 3.752 2.69 4.202-.48.448-4.148-3.653-4.148-3.653l.077-.676.576-.242.366.115s.199-.014.439.254"/>
        <path fill="#A8ABAE" d="M65.453 106.335c-1.65-.73-3.258-2.492-3.676-2.478-2.66.101-2.52 3.274-2.817 3.684-.3.41-.798 1.043-1.775.78-.766-.209-1.714-1.487-6.275-3.285-1.06-.483-1.71-.262-3.722-.986-1.22-.44-2.105-1.197-2.744-2.095-.638-.898-4.522-5.482-6.695-7.712C25.73 81.35 21.334 82.811 18.644 85.77c0 0 .663-1.37 2.482-2.632.486-.337 2.267-.257 2.267-.257l2.229.626 4.519 2.271 7.125 6.078 15.18 11.115 10.58-1.46 1.463 3.237 1.089 1.151s.327.572-.125.437"/>
        <path fill="#939699" d="M65.651 104.947c-.079.356.247 1.06.247 1.06l-1.35-1.409v-.936l1.043.832s.12.276.06.453"/>
        <path fill="#FFF" d="M69.108 109.403L69.387 109.518 69.279 109.106z"/>
        <path fill="#FFF" d="M69.318 109.507L69.596 109.622 69.49 109.212zM69.924 108.106L69.672 107.942 69.697 108.364z"/>
        <path fill="#FFF" d="M69.771 107.99L69.52 107.825 69.545 108.249z"/>
        <path fill="#FFF" d="M69.597 107.875L69.345 107.71 69.372 108.133z"/>
        <path fill="#FFF" d="M69.471 107.71L69.219 107.544 69.246 107.967z"/>
        <path fill="#FFF" d="M69.318 107.664L69.065 107.498 69.091 107.922z"/>
        <path fill="#FFF" d="M69.192 107.498L68.941 107.332 68.967 107.755z"/>
        <path fill="#FFF" d="M69.065 107.422L68.814 107.256 68.84 107.68z"/>
        <path fill="#FFF" d="M68.941 107.307L68.689 107.141 68.715 107.565z"/>
        <path fill="#FFF" d="M68.814 107.202L68.562 107.036 68.588 107.46z"/>
        <path fill="#FFF" d="M68.661 107.118L68.409 106.951 68.434 107.375z"/>
        <path fill="#FFF" d="M68.48 106.99L68.229 106.825 68.255 107.248z"/>
        <path fill="#FFF" d="M68.338 106.8L68.086 106.634 68.112 107.057z"/>
        <path fill="#FFF" d="M68.213 106.643L67.961 106.479 67.987 106.902z"/>
        <path fill="#FFF" d="M68.107 106.528L67.856 106.362 67.882 106.786z"/>
        <path fill="#FFF" d="M67.981 106.412L67.73 106.246 67.755 106.67z"/>
        <path fill="#FFF" d="M67.856 106.295L67.603 106.129 67.63 106.553z"/>
        <path fill="#FFF" d="M67.739 106.18L67.487 106.014 67.512 106.438z"/>
        <path fill="#FFF" d="M67.616 106.043L67.365 105.877 67.39 106.301z"/>
        <path fill="#FFF" d="M67.496 105.938L67.245 105.77 67.271 106.194z"/>
        <path fill="#FFF" d="M67.386 105.803L67.135 105.635 67.161 106.059z"/>
        <path fill="#FFF" d="M67.26 105.678L67.008 105.514 67.034 105.938z"/>
        <path fill="#FFF" d="M67.135 105.557L66.882 105.391 66.908 105.813z"/>
        <path fill="#FFF" d="M67.008 105.401L66.756 105.234 66.782 105.657zM70.052 108.268L69.825 108.071 69.793 108.493z"/>
        <path fill="#FFF" d="M70.126 108.48L69.898 108.281 69.867 108.704z"/>
        <path fill="#FFF" d="M70.228 108.647L70.001 108.448 69.969 108.872z"/>
        <path fill="#FFF" d="M70.343 108.73L70.115 108.532 70.085 108.954z"/>
        <path fill="#FFF" d="M70.442 108.83L70.215 108.632 70.184 109.056z"/>
        <path fill="#FFF" d="M70.571 108.94L70.343 108.743 70.314 109.166zM69.519 109.62L69.799 109.684 69.692 109.324z"/>
        <path fill="#FFF" d="M69.698 109.685L69.977 109.748 69.869 109.388z"/>
        <path fill="#FFF" d="M69.899 109.72L70.184 109.737 70.042 109.403z"/>
        <path fill="#FFF" d="M70.1 109.718L70.383 109.696 70.199 109.384z"/>
        <path fill="#FFF" d="M70.287 109.685L70.483 109.623 70.407 109.325zM68.9 109.261L69.168 109.403 69.07 108.973z"/>
        <path fill="#FFF" d="M68.714 109.117L68.961 109.261 68.837 108.783z"/>
        <path fill="#FFF" d="M68.519 108.964L68.764 109.106 68.641 108.629z"/>
        <path fill="#FFF" d="M68.307 108.782L68.555 108.925 68.431 108.448z"/>
        <path fill="#FFF" d="M68.107 108.617L68.354 108.76 68.231 108.283z"/>
        <path fill="#FFF" d="M67.932 108.487L68.178 108.63 68.055 108.153z"/>
        <path fill="#FFF" d="M67.727 108.301L67.956 108.5 67.932 108.008z"/>
        <path fill="#FFF" d="M67.613 108.172L67.842 108.373 67.817 107.88z"/>
        <path fill="#FFF" d="M67.491 108.082L67.72 108.283 67.695 107.791z"/>
        <path fill="#FFF" d="M67.376 107.951L67.605 108.152 67.58 107.66z"/>
        <path fill="#FFF" d="M67.26 107.825L67.477 108.037 67.48 107.544z"/>
        <path fill="#FFF" d="M67.149 107.707L67.367 107.922 67.369 107.43z"/>
        <path fill="#FFF" d="M67.04 107.598L67.257 107.811 67.26 107.318z"/>
        <path fill="#FFF" d="M66.913 107.43L67.12 107.674 67.201 107.212z"/>
        <path fill="#FFF" d="M66.806 107.33L67.012 107.578 67.094 107.113z"/>
        <path fill="#FFF" d="M66.716 107.223L66.923 107.469 67.004 107.004z"/>
        <path fill="#FFF" d="M66.642 107.098L66.848 107.347 66.93 106.883z"/>
        <path fill="#FFF" d="M66.561 107.001L66.768 107.247 66.849 106.784z"/>
        <path fill="#FFF" d="M66.472 106.906L66.68 107.153 66.76 106.689z"/>
        <path fill="#FFF" d="M66.405 106.793L66.612 107.039 66.693 106.575z"/>
        <path fill="#FFF" d="M66.327 106.715L66.535 106.961 66.616 106.496z"/>
        <path fill="#FFF" d="M66.262 106.619L66.468 106.865 66.55 106.401z"/>
        <path fill="#FFF" d="M66.185 106.537L66.391 106.784 66.472 106.32z"/>
        <path fill="#FFF" d="M66.118 106.442L66.325 106.69 66.405 106.227z"/>
        <path fill="#FFF" d="M66.041 106.387L66.247 106.634 66.327 106.17z"/>
        <path fill="#FFF" d="M65.987 106.306L66.193 106.553 66.276 106.09z"/>
        <path fill="#FFF" d="M65.918 106.244L66.124 106.491 66.207 106.027zM70.627 109.08L70.411 108.793 70.449 109.278z"/>
        <path fill="#FFF" d="M70.766 109.14L70.518 108.881 70.614 109.357z"/>
        <path fill="#FFF" d="M70.903 109.166L70.655 108.906 70.751 109.382z"/>
        <path fill="#FFF" d="M71.027 109.166L70.78 108.906 70.874 109.382z"/>
        <path fill="#FFF" d="M71.165 109.166L70.918 108.906 71.014 109.382z"/>
        <path fill="#FFF" d="M71.264 109.14L71.016 108.881 71.112 109.357z"/>
        <path fill="#FFF" d="M71.36 109.096L71.112 108.836 71.208 109.312zM70.45 109.592l.06-.042s.026-.141-.018-.303c0 .102-.042.345-.042.345"/>
        <path fill="#00AA49" d="M18.643 85.769c6.55-9.44 24.768 14.037 24.768 14.037s.974.718 1.727 1.365c2.648 2.28 3.523 1.452 5.168 2.612 3.177 2.24 4.267 1.993 5.645 3.527 0 0 2.108 1.49 3.3-.774.193-.366-.268-1.051.62-2.31 1.298-1.881 3.024-.945 3.314-.568.69.943 1.633 1.872 2.355 2.786 1.551 1.974 3.22 3.303 4.091 3.497.219.048.572.126.784-.1.114-.15.095-.291.095-.291-1.33.444-2.958-1.601-4.474-3.612-1.126-1.214-1.394-1.888-1.394-1.888 1.178 1.32 1.836 1.129 2.315 1.552 1.13 1.267 2.223 2.193 2.885 2.546.16.806.84 1.164 1.103 1.126.363 0 .636-.122.77-.441.02-.047.031-.09.04-.133.18-.805-.85-1.488-2.298-3.49-1.3-1.795-1.087-3.837-3.572-5.703-3.699-3.22-5.83-.373-7.565-1.266-4.072-1.606-4.313-5.583-13.785-7.452-7.648-3.241-9.348-4.962-13.97-7.414-8.998-4.773-11.922 2.394-11.922 2.394"/>
        <path fill="#00883A" d="M55.95 107.31s.613-1.074-.029-1.315c-.687.23.03 1.315.03 1.315M48.609 103.036l-.44-.119c-.185-.904-.108-3.867.192-3.514.238 1.346.79 2.735.248 3.633M42.37 98.518l-.266-3.12s-.65 1.17-.308 2.433c.121.143.574.687.574.687"/>
        <path fill="#00AA49" d="M43.913 110.34s.647.407.626.628c-.034.367-.39.276-1.049.866-.17 0-1.172-1.033-1.022-1.587.18-.666-.737-1.559-.667-2.192.022-.199.212-.457.367-1.128.212-.917-.077-1.619.17-2.28.203-.548.45.34 1.227-1.595.105-.262-2.479-4.483-1.195-8.895.32-.882 6.061 1.788 5.902 4.022-.03 1.471.834 3.968-.608 6.256-1.615 1.911-2.133 1.524-3.565 1.694-1.198 1.488-.186 4.211-.186 4.211"/>
        <path fill="#00883A" d="M44.099 106.13s-.701-.042-.974.077c.54.068.774.213.774.213l.2-.29z"/>
        <path fill="#00692B" d="M52.438 108.137s-.308.338-.81.377c.433.092.776-.059.776-.059l.034-.318z"/>
        <path fill="#00AA49" d="M59.1 111.343c-.165 0-.251-.151-.251-.151-.207-.006-.564-.317-.56-.494-.5-.289-2.33-.418-2.654-1.376-.155-.461.38-1.724.32-2.272-.391-3.546 1.818-.77 2.114.269-.187.921-.97 1.511-.97 1.726 0 .216 1.469.741 1.906.783.484-.098 1.363.339 1.37.452 0 0-.45.555-.311.865-.257.229-.535.121-.963.198"/>
        <path fill="#00883A" d="M59.32 110.28c.656-.175.696.445.696.445s-.299-.395-.696-.445M58.9 110.552c.657-.174.68.572.68.572s-.283-.521-.68-.572M65.166 102.848c0 .165.127.396.287.515.157.119.284.084.285-.08 0-.164-.127-.395-.284-.515-.158-.12-.287-.083-.287.08"/>
        <path fill="#0E0E0F" d="M65.168 102.89c0 .145.112.346.25.45.138.107.251.074.251-.07 0-.144-.112-.345-.249-.45-.14-.106-.252-.075-.252.07"/>
        <path fill="#FFF" d="M65.454 103.105c0 .049.038.119.086.156.048.035.087.026.087-.025 0-.05-.039-.12-.087-.155-.047-.037-.086-.026-.086.024"/>
        <path fill="#00883A" d="M64.642 104.05s-.76-.584-1.026-1.706c.598.968 1.026 1.706 1.026 1.706"/>
        <path fill="#525259" d="M44.46 110.857c.646.306.963.833.889 1.485-.216-.223-.571-.674-1.21-.898 0 0-.16-.514.32-.587"/>
        <path fill="#525259" d="M44.158 111.031c.646.305.963.834.888 1.484-.216-.222-.571-.672-1.21-.895 0 0-.16-.514.322-.589"/>
        <path fill="#525259" d="M43.81 111.248c.646.305.945.828.87 1.477-.213-.22-.553-.665-1.19-.89 0 0-.162-.513.32-.587M54.18 112.424c.647.306.963.835.888 1.485-.215-.22-.57-.674-1.208-.897 0 0-.16-.515.32-.588M60.374 110.28c.57.431.77 1.014.561 1.636 0 0 .026-.841-.997-1.129 0 0-.05-.536.436-.508"/>
        <path fill="#525259" d="M60.016 110.726c.446.557.583 1.259.23 1.81 0 0 .23-.81-.692-1.337 0 0-.005-.62.462-.473"/>
        <path fill="#525259" d="M59.693 111.184c.21.623.06 1.168-.42 1.533 0 0 .455-.625-.173-1.374 0 0 .238-.431.593-.16M53.877 112.599c.646.306.963.833.889 1.485-.216-.223-.571-.674-1.21-.9 0 0-.16-.511.32-.585"/>
        <path fill="#525259" d="M53.531 112.816c.646.305.944.828.87 1.478-.215-.222-.554-.666-1.19-.89 0 0-.162-.513.32-.588"/>
        <path fill="#00883A" d="M43.913 110.34s-.517-.366-.846.362c.452-.353.846-.362.846-.362M57.099 109.045c-.224.542-1.02.144-1.02.144s.767-.04 1.02-.144"/>
        <path fill="#939699" d="M61.724 103.86s-.738-.048-1.448.542c.992-.328 1.448-.541 1.448-.541"/>
    </g>
</svg>
